<svg width="20" height="20" viewBox="0 0 20 20" fill="none" xmlns="http://www.w3.org/2000/svg">
<path fill-rule="evenodd" clip-rule="evenodd" d="M2.91699 8.59809C2.91699 4.76487 6.12023 1.66663 9.99486 1.66663C13.8804 1.66663 17.0837 4.76487 17.0837 8.59809C17.0837 10.5297 16.3812 12.323 15.2249 13.8429C13.9493 15.5196 12.3771 16.9803 10.6074 18.127C10.2024 18.392 9.83689 18.412 9.39237 18.127C7.61261 16.9803 6.0404 15.5196 4.77574 13.8429C3.61865 12.323 2.91699 10.5297 2.91699 8.59809ZM7.66218 8.81392C7.66218 10.098 8.71004 11.108 9.99486 11.108C11.2805 11.108 12.3385 10.098 12.3385 8.81392C12.3385 7.53979 11.2805 6.48065 9.99486 6.48065C8.71004 6.48065 7.66218 7.53979 7.66218 8.81392Z" fill="#9E9E9E"/>
</svg>
