<svg width="63" height="62" viewBox="0 0 63 62" fill="none" xmlns="http://www.w3.org/2000/svg">
<rect x="0.25" width="62" height="62" rx="31" fill="#2C78B4"/>
<g clip-path="url(#clip0_6228_2607)">
<path d="M40.3757 23.9234L45.6491 22.1656C46.1092 22.0128 46.3581 21.515 46.2045 21.0541C46.0508 20.5949 45.5564 20.3425 45.0929 20.4987L39.8195 22.2565C39.3594 22.4093 39.1105 22.9071 39.2642 23.368C39.4167 23.8258 39.9121 24.0779 40.3757 23.9234Z" fill="white"/>
<path d="M39.2642 28.6414C39.4167 29.0991 39.9121 29.3512 40.3757 29.1967L45.6491 27.4389C46.1092 27.2862 46.3581 26.7883 46.2045 26.3274C46.0508 25.8673 45.5564 25.6176 45.0929 25.772L39.8195 27.5299C39.3594 27.6827 39.1105 28.1805 39.2642 28.6414Z" fill="white"/>
<path d="M39.2642 33.9148C39.4167 34.3725 39.9121 34.6246 40.3757 34.4702L45.6491 32.7124C46.1092 32.5596 46.3581 32.0618 46.2045 31.6009C46.0508 31.14 45.5564 30.8893 45.0929 31.0455L39.8195 32.8033C39.3594 32.9561 39.1105 33.4539 39.2642 33.9148Z" fill="white"/>
<path d="M39.2642 39.1883C39.4167 39.6459 39.9121 39.8981 40.3757 39.7436L45.6491 37.9858C46.1092 37.833 46.3581 37.3352 46.2045 36.8743C46.0508 36.4142 45.5564 36.1645 45.0929 36.3189L39.8195 38.0767C39.3594 38.2295 39.1105 38.7274 39.2642 39.1883Z" fill="white"/>
<path d="M32.1394 42.7116L31.9355 43.3047H34.8242C35.1992 43.3047 35.5331 43.0661 35.655 42.7116C35.7288 42.497 37.4609 37.3841 37.4609 31C37.4609 24.6159 35.7288 19.503 35.655 19.2884C35.5331 18.9339 35.1993 18.6953 34.8242 18.6953H31.9355L32.1394 19.2884C32.2132 19.503 33.9453 24.6159 33.9453 31C33.9453 37.3841 32.2132 42.497 32.1394 42.7116Z" fill="white"/>
<path d="M30.077 18.6953H28.5547C21.7698 18.6953 16.25 24.2151 16.25 31C16.25 37.7849 21.7698 43.3047 28.5547 43.3047H30.0775L30.4778 42.14C30.4941 42.091 32.1876 37.0768 32.1876 31C32.1876 24.9232 30.4941 19.909 30.4769 19.8592L30.077 18.6953Z" fill="white"/>
</g>
<defs>
<clipPath id="clip0_6228_2607">
<rect width="30" height="30" fill="white" transform="translate(16.25 16)"/>
</clipPath>
</defs>
</svg>
