<svg width="28" height="28" viewBox="0 0 28 28" fill="none" xmlns="http://www.w3.org/2000/svg">
<path fill-rule="evenodd" clip-rule="evenodd" d="M3.83651 4.76932L3.92115 4.68087C6.16981 2.43201 7.63416 1.83593 9.19658 2.73439C9.64602 2.99284 10.0674 3.3546 10.6403 3.93651L12.3977 5.75887C13.3684 6.81808 13.5891 7.83407 13.273 9.02392L13.2295 9.18144L13.1812 9.33807L12.9462 10.0274C12.4434 11.5732 12.6533 12.4453 14.4424 14.2339C16.3029 16.094 17.1713 16.2461 18.8364 15.6643L19.1331 15.5611L19.492 15.4446L19.649 15.401C20.9137 15.0636 21.982 15.3328 23.1151 16.4651L24.5311 17.8329L24.9479 18.2428C25.4101 18.7141 25.7155 19.0875 25.9411 19.4822C26.8339 21.0442 26.2372 22.5076 23.9237 24.8125L23.7036 25.0355C23.3582 25.3684 23.0355 25.6069 22.5614 25.832C21.7656 26.2099 20.8254 26.3523 19.7329 26.2004C17.0409 25.826 13.6265 23.7019 9.3002 19.3767C8.94803 19.0246 8.61073 18.6793 8.28797 18.3407L7.66173 17.6724C1.79357 11.2968 1.27588 7.38036 3.68071 4.92408L3.83651 4.76932ZM9.22382 4.99458C8.84373 4.61985 8.56763 4.39142 8.32421 4.25145C7.78577 3.94182 7.20442 4.0727 6.12852 4.99872L5.79046 5.30073C5.73149 5.35516 5.67117 5.41167 5.60945 5.47029L5.2218 5.84786L5.18687 5.89151L4.92407 6.15553C4.28899 6.80421 3.98817 7.59591 4.2474 8.95745C4.67277 11.1916 6.61983 14.2224 10.5375 18.1391C14.6195 22.2201 17.7297 24.155 19.974 24.4671C21.2823 24.649 21.9496 24.3322 22.6301 23.635L23.1491 23.1112C23.3925 22.8565 23.6004 22.6257 23.776 22.4148L24.0156 22.1131C24.6277 21.2977 24.6836 20.8086 24.4218 20.3507C24.3222 20.1764 24.1773 19.9854 23.9664 19.7519L23.6803 19.4497L23.511 19.2803L21.7245 17.5552C21.1275 17.0047 20.7195 16.9266 20.1001 17.0919L19.9213 17.1433L19.1813 17.3945C17.0345 18.0878 15.4858 17.7516 13.2051 15.4715C10.843 13.1101 10.566 11.5331 11.3574 9.26253L11.4082 9.11662L11.5486 8.69362L11.6176 8.424C11.74 7.8372 11.6003 7.42807 10.9695 6.79717C10.9435 6.7712 10.9145 6.74193 10.8829 6.7099L9.22382 4.99458Z" fill="#212121"/>
</svg>
