<svg width="80" height="80" viewBox="0 0 80 80" fill="none" xmlns="http://www.w3.org/2000/svg">
<rect width="80" height="80" rx="40" fill="#246BFD" fill-opacity="0.08"/>
<path d="M23.3947 38.5547L23.4944 38.5634C23.5087 38.3986 23.5251 38.2344 23.544 38.0714C23.7531 36.2675 24.2521 34.5521 24.993 32.9727C25.1837 32.5662 25.3903 32.1689 25.6122 31.7813C26.4334 30.3471 27.4627 29.0473 28.6592 27.9239L28.6593 27.9238C28.8264 27.7664 28.9966 27.613 29.1704 27.4633L29.1705 27.4631C32.0744 24.952 35.8595 23.4335 39.9997 23.4335C49.1492 23.4335 56.5663 30.8507 56.5663 40.0002C56.5663 41.1063 56.4579 42.1872 56.2509 43.2323L56.2508 43.2324C56.1864 43.56 56.1118 43.8842 56.0279 44.2048L56.0279 44.2049C55.8623 44.8398 55.6593 45.4595 55.4221 46.0623L55.4219 46.0627C55.3898 46.1452 55.3567 46.2273 55.3225 46.3095L55.3223 46.3099C55.238 46.5149 55.1495 46.7178 55.057 46.9181L55.0569 46.9185C55.0079 47.0257 54.9573 47.1324 54.9053 47.2385L54.9051 47.2389C54.7103 47.6402 54.4992 48.0329 54.2727 48.4153L54.2726 48.4154C54.0154 48.851 53.7388 49.2744 53.4433 49.6828L53.4433 49.6829C52.9146 50.4162 52.3271 51.1044 51.6879 51.74L51.6879 51.74C48.6919 54.7236 44.5612 56.5668 39.9997 56.5668C35.4172 56.5668 31.2691 54.7063 28.2701 51.6991L28.1993 51.7697L28.2701 51.6991C27.6518 51.0793 27.0822 50.411 26.5684 49.6998L26.5683 49.6998C25.9757 48.8811 25.4562 48.0058 25.0196 47.0834L25.0195 47.0832C24.9475 46.932 24.878 46.7792 24.811 46.6254L24.811 46.6254L24.8102 46.6236C24.8044 46.6109 24.7993 46.5989 24.7935 46.5856C24.7913 46.5803 24.7889 46.5748 24.7864 46.569L24.7864 46.5689C24.6837 46.3323 24.5871 46.0926 24.4955 45.8501C24.4137 45.6333 24.336 45.414 24.2634 45.1928L24.2634 45.1926C24.156 44.8674 24.0583 44.5381 23.9715 44.2044L23.9714 44.2042C23.9009 43.9353 23.837 43.6633 23.7802 43.3893L23.7802 43.3892C23.5736 42.3968 23.456 41.3722 23.4366 40.3234L23.4366 40.3229C23.434 40.2158 23.433 40.1081 23.433 40.0002C23.433 39.5159 23.454 39.0368 23.4944 38.5632L23.3947 38.5547ZM23.3947 38.5547C23.3541 39.031 23.333 39.513 23.333 40.0002C23.333 40.1087 23.334 40.2172 23.3366 40.3253L28.5907 27.851C27.387 28.9811 26.3515 30.2887 25.5254 31.7316C25.3021 32.1216 25.0943 32.5213 24.9025 32.9302C24.1571 34.5192 23.655 36.245 23.4446 38.0598C23.4256 38.2239 23.4091 38.3891 23.3947 38.5547ZM56.1247 44.2301C56.209 43.9076 56.2841 43.5814 56.349 43.2517L56.1247 44.2301ZM56.1247 44.2301C55.958 44.869 55.7538 45.4924 55.5151 46.0989M56.1247 44.2301L55.5151 46.0989M55.5151 46.0989C55.4827 46.1823 55.4493 46.2651 55.4148 46.3479M55.5151 46.0989L55.4148 46.3479M55.4148 46.3479C55.3299 46.5542 55.2409 46.7584 55.1478 46.96M55.4148 46.3479L55.1478 46.96M55.1478 46.96C55.0984 47.0681 55.0475 47.1756 54.9951 47.2826C54.7991 47.6864 54.5866 48.0814 54.3587 48.4662C54.1 48.9045 53.8217 49.3304 53.5244 49.7414C52.9925 50.4791 52.4014 51.1715 51.7584 51.8109L55.1478 46.96Z" fill="white" stroke="#2E2C2A" stroke-width="0.2"/>
<g clip-path="url(#clip0_4274_15917)">
<path d="M40.298 45.0926C43.2861 45.0926 45.7084 42.6704 45.7084 39.6823C45.7084 36.6943 43.2861 34.272 40.298 34.272C37.31 34.272 34.8877 36.6943 34.8877 39.6823C34.8877 42.6704 37.31 45.0926 40.298 45.0926Z" fill="#EFCEAF"/>
<path d="M35.8203 46.3043L36.9481 43.4221L42.7752 42.5449L43.4013 48.925L37.5115 49.0504L35.8203 46.3043Z" fill="#EFCEAF"/>
<path d="M45.7606 40.6806C45.6904 40.9619 45.5485 41.6317 45.3268 41.635C45.1457 41.6376 44.9724 38.7318 45.1533 38.2512C45.3611 37.699 44.815 37.0005 44.4036 36.6419C43.664 35.9972 42.0222 37.3816 40.3528 36.7545C40.3085 36.7379 40.3174 36.7397 39.7902 36.5294C38.168 35.8822 38.0828 35.8635 37.9898 35.8543C37.2034 35.7765 36.2438 36.42 35.8519 37.2045C35.4445 38.0201 35.7849 38.7196 35.4018 40.6928C35.3572 40.9227 35.287 41.2505 35.1767 41.2554C34.9751 41.2642 34.7782 40.1872 34.7267 39.9051C34.5106 38.7233 34.3023 37.5839 34.7267 36.3044C34.7729 36.1648 35.0582 35.6468 35.6268 34.6165C36.446 33.1323 36.8581 32.3874 36.9771 32.2535C37.831 31.2932 39.3854 30.4172 40.6904 30.7907C41.35 30.9795 41.2317 31.283 42.0406 31.5784C43.4823 32.1047 44.7352 31.461 44.9662 31.916C45.0887 32.1569 44.7462 32.3556 44.7412 32.8161C44.7327 33.6063 45.7321 33.8347 46.3165 34.6165C46.6307 35.0368 47.1685 35.0413 45.7606 40.6806Z" fill="#2E2C2A"/>
<path d="M52.4634 51.0659C52.2454 51.3109 52.0192 51.5509 51.7848 51.7852C48.637 54.9331 44.4515 56.6668 39.9998 56.6668C36.152 56.6668 32.5035 55.3717 29.5518 52.9876C29.5499 52.9864 29.5486 52.9851 29.5468 52.9832C29.1552 52.6675 28.7761 52.3316 28.4102 51.9769C28.417 51.9218 28.4246 51.8673 28.4327 51.8134C28.4841 51.45 28.5411 51.1035 28.605 50.7846C29.1282 48.1706 36.0123 45.4262 36.1915 45.3547C36.194 45.3541 36.1952 45.3535 36.1952 45.3535C36.1952 45.3535 37.0812 48.6192 40.8776 48.5772C43.4634 48.549 42.9622 45.3535 42.9622 45.3535C42.9622 45.3535 42.9935 45.3598 43.0524 45.3723C43.7992 45.5308 48.9847 46.6699 51.0305 48.2245C51.6539 48.6981 52.1012 49.7069 52.4227 50.9099C52.4365 50.9613 52.4496 51.0139 52.4634 51.0659Z" fill="#2C78B4"/>
</g>
<defs>
<clipPath id="clip0_4274_15917">
<rect width="33.3333" height="33.3333" fill="white" transform="translate(23.333 23.3335)"/>
</clipPath>
</defs>
</svg>
