<svg width="61" height="60" viewBox="0 0 61 60" fill="none" xmlns="http://www.w3.org/2000/svg">
<rect x="0.75" width="60" height="60" rx="30" fill="#2C78B4"/>
<g clip-path="url(#clip0_6228_20565)">
<path d="M30.75 31.8482C32.6888 31.8482 37.2472 29.5149 37.2472 23.924C37.2472 23.1442 37.2282 22.3908 37.1639 21.6791C37.0584 20.2782 36.7715 19.0367 36.0571 18.0853C35.1408 16.7905 33.5377 16 30.75 16C27.9628 16 26.3598 16.7902 25.4435 18.0846C24.7286 19.0363 24.4415 20.2781 24.3361 21.6794C24.2719 22.3911 24.2529 23.1443 24.2529 23.9241C24.2528 29.5149 28.8112 31.8482 30.75 31.8482ZM32.8708 18.903C32.6816 19.3813 32.5867 19.6204 32.3974 20.0986C31.1751 19.7533 30.3247 19.7533 29.1025 20.0986C28.9132 19.6204 28.8184 19.3813 28.629 18.903C30.1576 18.4403 31.3424 18.4404 32.8708 18.903ZM25.2194 22.7118C25.2943 22.8755 25.6123 23.505 26.1045 23.564C26.6704 23.6319 27.6096 21.5601 30.75 21.555C33.8903 21.5601 34.8296 23.6319 35.3955 23.564C35.8877 23.5049 36.2057 22.8755 36.2806 22.7118C36.2958 23.113 36.3014 23.5192 36.3014 23.9241C36.3014 26.6569 35.0948 28.3502 34.0824 29.2894C32.8069 30.473 31.3908 30.9025 30.7501 30.9025C30.1094 30.9025 28.6932 30.473 27.4178 29.2894C26.4053 28.3502 25.1987 26.6569 25.1987 23.9241C25.1987 23.5192 25.2042 23.113 25.2194 22.7118Z" fill="white"/>
<path d="M42.8126 39.9751C42.4808 37.9126 41.798 35.2557 40.4283 34.3116C39.4928 33.6666 36.2294 31.9231 34.8358 31.1786L34.8122 31.1661C34.653 31.0809 34.4584 31.0981 34.3165 31.2095C33.5864 31.7826 32.7868 32.1688 31.9398 32.3575C31.7901 32.3908 31.6673 32.4971 31.613 32.6404L30.7505 34.914L29.8878 32.6404C29.8336 32.4971 29.7108 32.3908 29.5611 32.3575C28.7141 32.1688 27.9145 31.7826 27.1845 31.2095C27.0423 31.098 26.8479 31.0809 26.6886 31.1661C25.3116 31.9019 22.0082 33.681 21.0768 34.3089C19.5 35.3711 18.8106 39.2153 18.6884 39.9751C18.6763 40.0505 18.6833 40.1276 18.7087 40.1996C18.7421 40.294 19.2636 41.6447 21.8716 42.7308C22.022 42.5413 22.2222 42.3976 22.4475 42.3167C22.1677 42.2174 21.9248 42.0227 21.7695 41.7613C21.538 41.3719 21.5294 40.8832 21.7465 40.4869C22.4151 39.263 23.6956 38.5014 25.09 38.4996C26.3869 38.4996 27.5626 39.144 28.2607 40.1915H33.2373C33.374 39.9874 33.5307 39.7966 33.7065 39.6202C34.4258 38.8988 35.3827 38.5009 36.4011 38.4994H36.4019H36.4027C37.7959 38.4994 39.078 39.2568 39.749 40.4765C39.9664 40.8724 39.9591 41.3602 39.729 41.7509C39.5746 42.0123 39.3324 42.2077 39.0529 42.3079C39.2821 42.3891 39.4855 42.5349 39.6369 42.7277C42.2383 41.6422 42.759 40.294 42.7924 40.1998C42.8177 40.1275 42.8247 40.0504 42.8126 39.9751Z" fill="white"/>
<path d="M38.625 43.359H38.6246L36.2269 43.3623C36.1844 43.2613 36.1027 42.981 36.1019 42.3123C36.1008 41.6435 36.1815 41.3627 36.2239 41.2615L38.621 41.258C38.6783 41.2577 38.7312 41.2275 38.7602 41.1783C38.7894 41.1289 38.7902 41.0681 38.7627 41.018C38.2898 40.1582 37.3873 39.6243 36.4025 39.6243C35.6845 39.6253 35.0101 39.9059 34.5032 40.4143C34.242 40.6762 34.0427 40.9828 33.9099 41.3164H27.5878C27.1908 40.3267 26.2222 39.6245 25.0899 39.6245C24.108 39.6259 23.2052 40.1629 22.7337 41.0261C22.7062 41.0763 22.7074 41.1373 22.7365 41.1864C22.7657 41.2355 22.8186 41.2655 22.8757 41.2655H22.8759L25.2737 41.2617C25.3163 41.3626 25.3978 41.6429 25.3986 42.3119C25.3998 42.9808 25.3191 43.2614 25.2766 43.3624L22.8795 43.366C22.8224 43.3661 22.7695 43.3965 22.7403 43.4456C22.7113 43.4949 22.7103 43.5559 22.738 43.606C23.2108 44.4657 24.1136 45 25.0941 45H25.0981C25.8162 44.9989 26.4905 44.7183 26.9975 44.2098C27.2587 43.9478 27.4579 43.6411 27.5907 43.3075H33.9126C34.3096 44.2975 35.2775 44.9996 36.4071 44.9998C36.4071 44.9998 36.4107 44.9998 36.4108 44.9998C37.3925 44.9984 38.2955 44.4611 38.767 43.5984C38.7945 43.5482 38.7933 43.4871 38.7642 43.4381C38.735 43.389 38.6821 43.359 38.625 43.359Z" fill="white"/>
</g>
<defs>
<clipPath id="clip0_6228_20565">
<rect width="28" height="28" fill="white" transform="translate(16.75 16)"/>
</clipPath>
</defs>
</svg>
