<svg width="28" height="28" viewBox="0 0 28 28" fill="none" xmlns="http://www.w3.org/2000/svg">
<rect width="28" height="28" rx="10" fill="#2C78B4"/>
<path d="M22.1884 13.2468L14.753 5.81155C14.5532 5.61205 14.2824 5.5 14 5.5C13.7176 5.5 13.4468 5.61205 13.247 5.81155L5.81156 13.2468C5.61205 13.4466 5.5 13.7175 5.5 13.9998C5.5 14.2822 5.61205 14.553 5.81156 14.7528L13.247 22.1881C13.3459 22.287 13.4633 22.3654 13.5925 22.4189C13.7217 22.4725 13.8602 22.5 14 22.5C14.1398 22.5 14.2783 22.4725 14.4075 22.4189C14.5367 22.3654 14.6541 22.287 14.753 22.1881L22.1884 14.7528C22.3879 14.553 22.5 14.2822 22.5 13.9998C22.5 13.7175 22.3879 13.4466 22.1884 13.2468ZM18.8354 13.6635L16.0388 16.2446C16.0009 16.2797 15.9535 16.303 15.9025 16.3116C15.8515 16.3202 15.7991 16.3137 15.7518 16.293C15.7044 16.2722 15.6641 16.238 15.6359 16.1947C15.6077 16.1514 15.5927 16.1007 15.5929 16.049V14.2653H12.4062V16.3901C12.4062 16.4605 12.3782 16.528 12.3284 16.5778C12.2786 16.6276 12.2111 16.6555 12.1407 16.6555H11.074C11.0036 16.6555 10.9361 16.6276 10.8863 16.5778C10.8365 16.528 10.8085 16.4605 10.8085 16.3901V13.7343C10.8085 13.5945 10.8361 13.4561 10.8897 13.3269C10.9433 13.1978 11.0218 13.0805 11.1208 12.9818C11.2198 12.883 11.3373 12.8048 11.4666 12.7516C11.5959 12.6983 11.7344 12.6711 11.8742 12.6715H15.5929V10.8849C15.5927 10.8332 15.6077 10.7826 15.6359 10.7392C15.6641 10.6959 15.7044 10.6617 15.7518 10.641C15.7991 10.6202 15.8515 10.6137 15.9025 10.6223C15.9535 10.6309 16.0009 10.6542 16.0388 10.6894L18.8354 13.2704C18.8628 13.2953 18.8847 13.3257 18.8997 13.3595C18.9146 13.3934 18.9224 13.43 18.9224 13.467C18.9224 13.504 18.9146 13.5406 18.8997 13.5744C18.8847 13.6083 18.8628 13.6386 18.8354 13.6635Z" fill="white"/>
</svg>
