<svg width="24" height="24" viewBox="0 0 24 24" fill="none" xmlns="http://www.w3.org/2000/svg">
<path fill-rule="evenodd" clip-rule="evenodd" d="M6.94801 0.33252H17.063C21.018 0.33252 23.6663 3.10919 23.6663 7.23919V16.772C23.6663 20.8904 21.018 23.6659 17.063 23.6659H6.94801C2.99301 23.6659 0.333008 20.8904 0.333008 16.772V7.23919C0.333008 3.10919 2.99301 0.33252 6.94801 0.33252ZM15.5113 15.4992C15.908 15.1037 15.908 14.462 15.5113 14.0654L13.4347 11.9887L15.5113 9.91085C15.908 9.51535 15.908 8.86202 15.5113 8.46535C15.1147 8.06752 14.473 8.06752 14.0647 8.46535L11.9997 10.5409L9.92301 8.46535C9.51468 8.06752 8.87301 8.06752 8.47634 8.46535C8.07967 8.86202 8.07967 9.51535 8.47634 9.91085L10.553 11.9887L8.47634 14.0537C8.07967 14.462 8.07967 15.1037 8.47634 15.4992C8.67467 15.6975 8.94301 15.8037 9.19968 15.8037C9.46801 15.8037 9.72468 15.6975 9.92301 15.4992L11.9997 13.4354L14.0763 15.4992C14.2747 15.7104 14.5313 15.8037 14.788 15.8037C15.0563 15.8037 15.313 15.6975 15.5113 15.4992Z" fill="white"/>
</svg>
