<svg width="80" height="80" viewBox="0 0 80 80" fill="none" xmlns="http://www.w3.org/2000/svg">
<rect width="80" height="80" rx="40" fill="#246BFD" fill-opacity="0.08"/>
<g clip-path="url(#clip0_4274_15960)">
<path d="M23.3947 38.5547L23.4944 38.5634C23.5087 38.3986 23.5251 38.2344 23.544 38.0714C23.7531 36.2675 24.2521 34.5521 24.993 32.9727C25.1837 32.5662 25.3903 32.1689 25.6122 31.7813C26.4334 30.3471 27.4627 29.0473 28.6592 27.9239L28.6593 27.9238C28.8264 27.7664 28.9966 27.613 29.1704 27.4633L29.1705 27.4631C32.0744 24.952 35.8595 23.4335 39.9997 23.4335C49.1492 23.4335 56.5663 30.8507 56.5663 40.0002C56.5663 41.1063 56.4579 42.1872 56.2509 43.2323L56.2508 43.2324C56.1864 43.56 56.1118 43.8842 56.0279 44.2048L56.0279 44.2049C55.8623 44.8398 55.6593 45.4595 55.4221 46.0623L55.4219 46.0627C55.3898 46.1452 55.3567 46.2273 55.3225 46.3095L55.3223 46.3099C55.238 46.5149 55.1495 46.7178 55.057 46.9181L55.0569 46.9185C55.0079 47.0257 54.9573 47.1324 54.9053 47.2385L54.9051 47.2389C54.7103 47.6402 54.4992 48.0329 54.2727 48.4153L54.2726 48.4154C54.0154 48.851 53.7388 49.2744 53.4433 49.6828L53.4433 49.6829C52.9146 50.4162 52.3271 51.1044 51.6879 51.74L51.6879 51.74C48.6919 54.7236 44.5612 56.5668 39.9997 56.5668C35.4172 56.5668 31.2691 54.7063 28.2701 51.6991L28.1993 51.7697L28.2701 51.6991C27.6518 51.0793 27.0822 50.411 26.5684 49.6998L26.5683 49.6998C25.9757 48.8811 25.4562 48.0058 25.0196 47.0834L25.0195 47.0832C24.9475 46.932 24.878 46.7792 24.811 46.6254L24.811 46.6254L24.8102 46.6236C24.8044 46.6109 24.7993 46.5989 24.7935 46.5856C24.7913 46.5803 24.7889 46.5748 24.7864 46.569L24.7864 46.5689C24.6837 46.3323 24.5871 46.0926 24.4955 45.8501C24.4137 45.6333 24.336 45.414 24.2634 45.1928L24.2634 45.1926C24.156 44.8674 24.0583 44.5381 23.9715 44.2044L23.9714 44.2042C23.9009 43.9353 23.837 43.6633 23.7802 43.3893L23.7802 43.3892C23.5736 42.3968 23.456 41.3722 23.4366 40.3234L23.4366 40.3229C23.434 40.2158 23.433 40.1081 23.433 40.0002C23.433 39.5159 23.454 39.0368 23.4944 38.5632L23.3947 38.5547ZM23.3947 38.5547C23.3541 39.031 23.333 39.513 23.333 40.0002C23.333 40.1087 23.334 40.2172 23.3366 40.3253L28.5907 27.851C27.387 28.9811 26.3515 30.2887 25.5254 31.7316C25.3021 32.1216 25.0943 32.5213 24.9025 32.9302C24.1571 34.5192 23.655 36.245 23.4446 38.0598C23.4256 38.2239 23.4091 38.3891 23.3947 38.5547ZM56.1247 44.2301C56.209 43.9076 56.2841 43.5814 56.349 43.2517L56.1247 44.2301ZM56.1247 44.2301C55.958 44.869 55.7538 45.4924 55.5151 46.0989M56.1247 44.2301L55.5151 46.0989M55.5151 46.0989C55.4827 46.1823 55.4493 46.2651 55.4148 46.3479M55.5151 46.0989L55.4148 46.3479M55.4148 46.3479C55.3299 46.5542 55.2409 46.7584 55.1478 46.96M55.4148 46.3479L55.1478 46.96M55.1478 46.96C55.0984 47.0681 55.0475 47.1756 54.9951 47.2826C54.7991 47.6864 54.5866 48.0814 54.3587 48.4662C54.1 48.9045 53.8217 49.3304 53.5244 49.7414C52.9925 50.4791 52.4014 51.1715 51.7584 51.8109L55.1478 46.96Z" fill="white" stroke="#2E2C2A" stroke-width="0.2"/>
<path d="M48.5126 35.3213H47.8896V39.7443H48.5126V35.3213Z" fill="#2E2C2A"/>
<path d="M48.5147 35.2658L48.4921 35.3219L48.2801 35.8429L47.8902 35.6845L47.3295 35.4571C43.8495 34.3401 39.4514 33.7686 37.776 31.5796L37.667 31.5353C36.9659 32.117 36.4791 32.151 36.4411 31.0374L36.3321 30.9931C33.4728 31.581 31 29.9023 28.5908 27.8512C28.759 27.6927 28.9303 27.5384 29.1052 27.3877C32.4923 27.4827 35.3807 28.0703 36.5121 30.3939L36.6217 30.4386L37.938 30.9726L38.0481 31.0173C40.9722 30.4007 44.2572 32.6233 47.5456 34.8723L48.5147 35.2658Z" fill="#2E2C2A"/>
<path d="M53.5243 49.7416C52.9924 50.4793 52.4014 51.1716 51.7584 51.811C44.3484 51.9556 35.4189 51.9376 28.1992 51.7699C27.5773 51.1464 27.0043 50.4741 26.4873 49.7586C27.9868 49.7169 29.5794 49.684 31.2311 49.6583C31.8849 49.6475 32.5485 49.6387 33.2193 49.6305C33.8854 49.6233 34.5588 49.6166 35.2373 49.6109H35.2378C41.4029 49.561 47.9976 49.6068 53.5243 49.7416Z" fill="#EEEEEE"/>
<path d="M56.1249 44.23C55.9582 44.8689 55.754 45.4923 55.5153 46.0988C55.4829 46.1821 55.4494 46.265 55.415 46.3478H54.6182V44.23H56.1249Z" fill="#3F3D56"/>
<path d="M55.5151 46.0991C55.4827 46.1825 55.4492 46.2653 55.4148 46.3481C55.3299 46.5544 55.2409 46.7586 55.1478 46.9602C55.0984 47.0683 55.0475 47.1758 54.995 47.2828C54.799 47.6866 54.5866 48.0816 54.3587 48.4664C46.3968 49.3941 39.0283 49.6164 32.8145 48.4664V46.0991H55.5151Z" fill="#2E2C2A"/>
<path d="M55.1481 43.2839V46.9598C55.0987 47.0679 55.0478 47.1754 54.9953 47.2824C52.734 46.1783 50.6667 46.31 48.7314 47.2824V39.215C50.2981 38.2784 51.8918 38.1242 53.5283 39.215L55.0319 42.9912L55.1481 43.2839Z" fill="#EEEEEE"/>
<path d="M49.7282 39.7134H52.4693V42.4544C51.5655 42.9372 50.6516 42.9269 49.7282 42.4544C49.2521 41.5407 49.2521 40.6271 49.7282 39.7134Z" fill="white"/>
<path d="M54.5246 42.4857C54.1643 42.8912 53.5037 42.7461 52.7803 42.4857V39.7446H53.5279L54.5246 42.4857Z" fill="white"/>
<path d="M50.4755 44.0117H49.8525V45.1954H50.4755V44.0117Z" fill="#2E2C2A"/>
<path d="M53.3096 41.4888H53.3407C53.6676 41.4888 53.9325 41.7537 53.9325 42.0806C53.9325 42.4074 53.6676 42.6724 53.3407 42.6724H53.3096V41.4888Z" fill="#2E2C2A"/>
<path d="M30.1357 46.0986H30.1669C30.4937 46.0986 30.7587 46.3636 30.7587 46.6904C30.7587 47.0173 30.4937 47.2823 30.1669 47.2823H30.1357V46.0986Z" fill="#3F3D56"/>
<path d="M56.3489 43.2519C56.2841 43.5816 56.209 43.9077 56.1246 44.2303C55.9579 44.8691 55.7537 45.4926 55.515 46.0991C55.4826 46.1824 55.4492 46.2652 55.4147 46.3481C55.3298 46.5543 55.2409 46.7585 55.1477 46.9602C55.0984 47.0682 55.0474 47.1757 54.995 47.2827H54.7115L54.6781 46.3481L54.6693 46.0991L54.6179 44.649L54.5557 42.8979L55.0315 42.9916L56.3489 43.2519Z" fill="#EEEEEE"/>
<path d="M33.2188 50.7399C34.5262 50.7399 35.5861 49.68 35.5861 48.3726C35.5861 47.0652 34.5262 46.0054 33.2188 46.0054C31.9114 46.0054 30.8516 47.0652 30.8516 48.3726C30.8516 49.68 31.9114 50.7399 33.2188 50.7399Z" fill="#2E2C2A"/>
<path d="M33.2196 49.6188C33.9077 49.6188 34.4655 49.061 34.4655 48.3729C34.4655 47.6848 33.9077 47.127 33.2196 47.127C32.5315 47.127 31.9736 47.6848 31.9736 48.3729C31.9736 49.061 32.5315 49.6188 33.2196 49.6188Z" fill="#EEEEEE"/>
<path d="M48.9181 45.8185L48.9181 38.0938H47.6098C47.3503 38.583 47.2185 39.3269 47.1716 40.24C47.0112 43.3605 44.4562 45.8185 41.3316 45.8185H30.1045V46.3792H47.4986C47.5354 46.7629 47.5729 47.1479 47.6098 47.5317L48.9181 47.5317V46.3792L48.9181 45.8185Z" fill="#2E2C2A"/>
<path d="M38.8021 43.2324L39.1535 42.9741L41.3119 45.9112L40.9605 46.1694C39.3395 45.9694 38.6276 44.9838 38.8021 43.2324Z" fill="#2E2C2A"/>
<path d="M42.3983 33.3018L42.7968 33.479L38.4863 46.1714L38.0879 45.9942C38.6221 42.5162 40.2634 36.1526 42.3983 33.3018Z" fill="#2E2C2A"/>
<path d="M53.6835 42.6104H53.0605V42.8595H53.6835V42.6104Z" fill="#3F3D56"/>
<path d="M48.0886 38.9519C48.0889 38.9473 48.0891 38.9431 48.0884 38.9388C48.0846 38.9042 48.054 38.8799 48.0198 38.8837L47.6182 38.9288L33.5138 39.4387L33.389 39.4525C33.3618 39.4554 33.3399 39.4761 33.335 39.5034C33.3289 39.5373 33.3513 39.5696 33.3853 39.5756L47.7871 41.3708C47.8215 41.3744 47.8517 41.3489 47.8552 41.3146L48.0886 38.9519ZM33.829 39.5286L47.5954 39.0564L47.9569 39.0161L47.7377 41.2355L33.829 39.5286Z" fill="#2E2C2A"/>
<path d="M37.9383 30.9723L37.6672 31.535L33.9934 39.1513L36.4414 31.0371L36.622 30.4383L36.5124 30.3936L36.3324 30.9928L33.8066 39.4208L33.7799 39.5432C33.7737 39.57 33.7861 39.5973 33.8108 39.6106C33.8406 39.6276 33.8787 39.6168 33.8951 39.5865L37.7763 31.5793L38.0484 31.017L37.9383 30.9723Z" fill="#2E2C2A"/>
<path d="M25.9454 39.5953L25.7648 37.891L25.7154 37.4214L25.4603 35.0099L25.3055 33.5443C25.3024 33.5129 25.2756 33.4888 25.2437 33.4888C25.2118 33.4888 25.1851 33.5124 25.1815 33.5438L25.0133 35.0099L24.7046 37.7053L24.6475 38.2038L24.4824 39.6441L24.2525 41.6518C24.252 41.6539 24.252 41.656 24.252 41.6585C24.2514 41.6925 24.2792 41.7208 24.3137 41.7213L25.0627 41.7285L26.1023 41.7383H26.1028C26.1048 41.7383 26.1069 41.7377 26.109 41.7377C26.1434 41.7341 26.1681 41.7033 26.1645 41.6693L25.9454 39.5953ZM25.3291 41.6061L25.0313 41.6035L24.3842 41.5973L24.5714 39.9625V39.962L24.7772 38.1678L24.8343 37.6688L25.1393 35.0099L25.2412 34.1199L25.3353 35.0099L25.594 37.4553L25.6434 37.925L25.8235 39.6292L26.0333 41.6127L25.3291 41.6061Z" fill="#2E2C2A"/>
<path d="M35.1663 42.0563L34.831 42.2394L33.8726 42.5074L33.0691 42.7327L31.3243 43.2209L30.5208 43.4457C28.0234 43.036 26.7624 43.8983 25.5701 44.8315L24.7666 45.0563L24.1684 45.224C24.0604 44.8968 23.9621 44.5655 23.8747 44.2296C23.8037 43.959 23.7394 43.6854 23.6823 43.4097C23.4745 42.4112 23.3562 41.3803 23.3366 40.3253C23.334 40.2173 23.333 40.1087 23.333 40.0002C23.333 39.5131 23.3541 39.0311 23.3947 38.5547C23.4091 38.3891 23.4256 38.224 23.4446 38.0599L24.7044 37.7054L24.834 37.6689L25.5938 37.4554L25.7152 37.4215L27.6437 36.8788C29.1264 36.7741 30.2558 37.418 31.2178 38.4169C31.2178 38.4169 32.5871 38.0079 33.5948 38.7296C33.9138 38.9585 34.1962 39.3006 34.3875 39.8052L34.5527 40.2811L35.1663 42.0563Z" fill="#2C78B4"/>
<path d="M32.1545 44.5721C33.1195 44.5721 33.9017 43.7899 33.9017 42.8249C33.9017 41.8599 33.1195 41.0776 32.1545 41.0776C31.1895 41.0776 30.4072 41.8599 30.4072 42.8249C30.4072 43.7899 31.1895 44.5721 32.1545 44.5721Z" fill="#2E2C2A"/>
<path d="M32.154 43.7445C32.6619 43.7445 33.0736 43.3328 33.0736 42.8249C33.0736 42.317 32.6619 41.9053 32.154 41.9053C31.6461 41.9053 31.2344 42.317 31.2344 42.8249C31.2344 43.3328 31.6461 43.7445 32.154 43.7445Z" fill="#EEEEEE"/>
<path d="M25.5993 45.1488C25.5993 45.727 25.3184 46.2393 24.8853 46.5572C24.8323 46.5963 24.7768 46.6323 24.7196 46.6653C24.7109 46.6462 24.7032 46.6277 24.695 46.6087C24.5916 46.3705 24.4943 46.1292 24.4023 45.8854C24.32 45.6673 24.2418 45.4466 24.1687 45.2239C24.0607 44.8967 23.9624 44.5655 23.875 44.2296C23.804 43.959 23.7397 43.6853 23.6826 43.4096C23.7382 43.4039 23.7948 43.4014 23.8519 43.4014C24.7083 43.4014 25.4213 44.0176 25.5705 44.8314C25.5895 44.9343 25.5993 45.0403 25.5993 45.1488Z" fill="#2E2C2A"/>
<path d="M24.7716 45.1487C24.7716 45.4502 24.6265 45.7177 24.4023 45.8854C24.32 45.6672 24.2418 45.4466 24.1687 45.2238C24.0607 44.8967 23.9624 44.5654 23.875 44.2295C24.3416 44.2408 24.7212 44.5988 24.767 45.0561C24.7701 45.0865 24.7716 45.1174 24.7716 45.1487Z" fill="#EEEEEE"/>
<path d="M29.982 38.4655L24.5756 39.9788L24.1201 38.3514C24.8008 37.8197 26.1402 37.5831 27.5681 37.3862L29.982 38.4655Z" fill="white"/>
<path d="M23.9138 40.1637L23.3366 40.3252C23.334 40.2172 23.333 40.1086 23.333 40.0001C23.333 39.513 23.3541 39.031 23.3947 38.5546L23.4585 38.5366C24.0224 38.9066 24.1649 39.4528 23.9138 40.1637Z" fill="white"/>
<path d="M25.1918 41.1152L24.916 41.1924L25.0627 41.7165L25.3385 41.6393L25.1918 41.1152Z" fill="#2E2C2A"/>
<path d="M34.5524 40.2809C34.0779 40.4708 33.5394 40.2401 33.3495 39.7656C33.2044 39.4031 33.3025 38.9886 33.5946 38.7295C33.9136 38.9582 34.1964 39.3002 34.3876 39.805L34.5524 40.2809Z" fill="#2E2C2A"/>
<path d="M24.9023 32.93C25.0942 32.5211 25.302 32.1214 25.5253 31.7314V35.0097H24.9023V32.93Z" fill="#2E2C2A"/>
<path d="M48.2013 36.3185C48.6829 36.3185 49.0734 35.928 49.0734 35.4464C49.0734 34.9647 48.6829 34.5742 48.2013 34.5742C47.7196 34.5742 47.3291 34.9647 47.3291 35.4464C47.3291 35.928 47.7196 36.3185 48.2013 36.3185Z" fill="#2E2C2A"/>
</g>
<defs>
<clipPath id="clip0_4274_15960">
<rect width="33.3333" height="33.3333" fill="white" transform="translate(23.333 23.3335)"/>
</clipPath>
</defs>
</svg>
