<svg width="14" height="15" viewBox="0 0 14 15" fill="none" xmlns="http://www.w3.org/2000/svg">
<g clip-path="url(#clip0_6230_19477)">
<path d="M13.1011 8.61575L13.1014 8.61457C13.1726 8.25488 13.2101 7.88217 13.2101 7.49992C13.2101 4.34615 10.6534 1.7895 7.49967 1.7895C6.072 1.7895 4.76855 2.31236 3.76728 3.17822L3.76625 3.17911C3.70682 3.23032 3.64866 3.28272 3.59157 3.3365L3.59064 3.33737C3.17794 3.72484 2.82299 4.17312 2.53992 4.66752L2.53992 4.66753C2.46349 4.80102 2.39232 4.93788 2.3266 5.07796L13.1011 8.61575ZM13.1011 8.61575C13.0791 8.72773 13.0535 8.83907 13.0245 8.94981L13.0244 8.9503M13.1011 8.61575L13.0244 8.9503M13.0244 8.9503C12.9675 9.16839 12.8977 9.38155 12.816 9.58928L12.8148 9.59224M13.0244 8.9503L12.8148 9.59224M12.8148 9.59224C12.8046 9.61848 12.7939 9.64501 12.7826 9.67207L12.7814 9.67511M12.8148 9.59224L12.7814 9.67511M12.7814 9.67511C12.7524 9.74554 12.7221 9.81498 12.6906 9.88324L12.6893 9.88602M12.7814 9.67511L12.6893 9.88602M12.6893 9.88602C12.6731 9.92161 12.6563 9.95706 12.639 9.99237L12.6375 9.99529M12.6893 9.88602L12.6375 9.99529M12.6375 9.99529C12.5706 10.1331 12.4981 10.268 12.4203 10.3993L12.4198 10.4002M12.6375 9.99529L12.4198 10.4002M12.4198 10.4002C12.331 10.5506 12.2358 10.6962 12.1346 10.8362L12.1339 10.8372M12.4198 10.4002L12.1339 10.8372M12.1339 10.8372C11.9516 11.09 11.7491 11.3272 11.5288 11.5462L11.5284 11.5466M12.1339 10.8372L11.5284 11.5466M11.5284 11.5466C10.495 12.5758 9.07223 13.2103 7.49967 13.2103C5.91993 13.2103 4.49113 12.5698 3.45659 11.5325L3.45653 11.5324M11.5284 11.5466L3.45653 11.5324M3.45653 11.5324C3.24314 11.3185 3.04679 11.0881 2.86988 10.8432L2.86943 10.8426M3.45653 11.5324L2.86943 10.8426M2.86943 10.8426C2.66517 10.5604 2.48621 10.2589 2.33585 9.94123L2.33501 9.93947M2.86943 10.8426L2.33501 9.93947M2.33501 9.93947C2.31074 9.88852 2.28717 9.83671 2.26432 9.78422L2.26113 9.77688M2.33501 9.93947L2.26113 9.77688M2.26113 9.77688L2.25961 9.77359M2.26113 9.77688L2.25961 9.77359M2.25961 9.77359L2.25889 9.7719L2.25541 9.7638L2.25497 9.7628M2.25961 9.77359L2.25497 9.7628M2.25497 9.7628C2.22024 9.68279 2.18711 9.60067 2.15528 9.5164L2.25497 9.7628ZM2.07524 9.28962L2.07576 9.29117C2.10035 9.36619 2.12693 9.44125 2.15522 9.51622L2.07524 9.28962ZM2.07524 9.28962C2.03818 9.17737 2.0047 9.06441 1.97504 8.95049L1.97466 8.94902M2.07524 9.28962L1.97466 8.94902M1.97466 8.94902C1.95043 8.85668 1.92851 8.76338 1.90908 8.66951L1.90891 8.66872M1.97466 8.94902L1.90891 8.66872M1.90891 8.66872C1.83779 8.32704 1.79723 7.97397 1.79054 7.6121L1.79044 7.60785M1.90891 8.66872L1.79044 7.60785M1.79044 7.60785C1.78961 7.57325 1.78926 7.53734 1.78926 7.49992C1.78926 7.33296 1.79647 7.16759 1.81042 7.00395C1.81545 6.94613 1.82111 6.88951 1.82754 6.83412L1.82754 6.83411M1.79044 7.60785L1.82754 6.83411M1.82754 6.83411C1.89959 6.21256 2.07144 5.62193 2.32657 5.07802L1.82754 6.83411ZM1.03286 6.74198L1.04951 6.7439L1.03286 6.74198ZM0.990666 7.62691L0.990711 7.62691L0.990666 7.62691ZM1.84599 4.27022L1.84566 4.27003L1.84599 4.27022Z" fill="white" stroke="white" stroke-width="1.6"/>
<path d="M10.8254 5.67236H10.582V7.40012H10.8254V5.67236Z" fill="#2E2C2A"/>
<path d="M10.8257 5.65037L10.8169 5.67228L10.7341 5.87583L10.5818 5.81394L10.3628 5.72512C9.0034 5.28879 7.28536 5.06552 6.63093 4.21045L6.58833 4.19317C6.31448 4.4204 6.12431 4.43368 6.1095 3.99866L6.0669 3.98138C4.94998 4.21102 3.98407 3.55526 3.04297 2.75404C3.10868 2.69215 3.17559 2.63187 3.24391 2.573C4.56699 2.61009 5.69526 2.83965 6.13722 3.74728L6.18003 3.76477L6.69423 3.97334L6.73723 3.99082C7.87943 3.74996 9.16264 4.61816 10.4472 5.49666L10.8257 5.65037Z" fill="#2E2C2A"/>
<path d="M12.783 11.305C12.5753 11.5932 12.3444 11.8637 12.0932 12.1134C9.19868 12.1699 5.71058 12.1629 2.8904 12.0973C2.64747 11.8538 2.42362 11.5912 2.22168 11.3117C2.80741 11.2954 3.42952 11.2825 4.07474 11.2725C4.33013 11.2683 4.58934 11.2649 4.85136 11.2616C5.11158 11.2588 5.37461 11.2562 5.63965 11.254H5.63985C8.0481 11.2345 10.6241 11.2524 12.783 11.305Z" fill="#EEEEEE"/>
<path d="M13.7985 9.15234C13.7334 9.40191 13.6536 9.64545 13.5604 9.88235C13.5477 9.91491 13.5347 9.94726 13.5212 9.97961H13.21V9.15234H13.7985Z" fill="#3F3D56"/>
<path d="M13.5608 9.88232C13.5481 9.91488 13.5351 9.94723 13.5216 9.97958C13.4884 10.0602 13.4537 10.1399 13.4173 10.2187C13.398 10.2609 13.3781 10.3029 13.3576 10.3447C13.2811 10.5024 13.1981 10.6567 13.1091 10.807C9.99896 11.1694 7.12066 11.2563 4.69336 10.807V9.88232H13.5608Z" fill="#2E2C2A"/>
<path d="M13.4167 8.78283V10.2187C13.3974 10.2609 13.3775 10.3029 13.357 10.3447C12.4737 9.91345 11.6661 9.9649 10.9102 10.3447V7.19341C11.5221 6.82754 12.1447 6.76732 12.7839 7.19341L13.3713 8.6685L13.4167 8.78283Z" fill="#EEEEEE"/>
<path d="M11.2997 7.38794H12.3704V8.45866C12.0173 8.64724 11.6604 8.64322 11.2997 8.45866C11.1137 8.10175 11.1137 7.74485 11.2997 7.38794Z" fill="white"/>
<path d="M13.1736 8.47087C13.0328 8.62929 12.7748 8.57259 12.4922 8.47087V7.40015H12.7842L13.1736 8.47087Z" fill="white"/>
<path d="M11.592 9.06689H11.3486V9.52925H11.592V9.06689Z" fill="#2E2C2A"/>
<path d="M12.6992 8.08154H12.7114C12.8391 8.08154 12.9426 8.18504 12.9426 8.31272C12.9426 8.4404 12.8391 8.5439 12.7114 8.5439H12.6992V8.08154Z" fill="#2E2C2A"/>
<path d="M3.64648 9.88232H3.65865C3.78633 9.88232 3.88983 9.98583 3.88983 10.1135C3.88983 10.2412 3.78633 10.3447 3.65865 10.3447H3.64648V9.88232Z" fill="#3F3D56"/>
<path d="M13.886 8.77008C13.8607 8.89888 13.8314 9.02628 13.7984 9.15227C13.7333 9.40183 13.6535 9.64537 13.5603 9.88228C13.5476 9.91483 13.5346 9.94718 13.5211 9.97953C13.488 10.0601 13.4532 10.1399 13.4168 10.2186C13.3975 10.2608 13.3776 10.3028 13.3571 10.3446H13.2464L13.2334 9.97953L13.23 9.88228L13.2099 9.31583L13.1855 8.63184L13.3714 8.66841L13.886 8.77008Z" fill="#EEEEEE"/>
<path d="M4.85147 11.6951C5.36218 11.6951 5.77619 11.2811 5.77619 10.7704C5.77619 10.2597 5.36218 9.8457 4.85147 9.8457C4.34077 9.8457 3.92676 10.2597 3.92676 10.7704C3.92676 11.2811 4.34077 11.6951 4.85147 11.6951Z" fill="#2E2C2A"/>
<path d="M4.85095 11.2571C5.11974 11.2571 5.33764 11.0392 5.33764 10.7704C5.33764 10.5016 5.11974 10.2837 4.85095 10.2837C4.58216 10.2837 4.36426 10.5016 4.36426 10.7704C4.36426 11.0392 4.58216 11.2571 4.85095 11.2571Z" fill="#EEEEEE"/>
<path d="M10.9838 9.77262L10.9838 6.75513H10.4728C10.3714 6.94623 10.3199 7.23683 10.3016 7.5935C10.2389 8.81247 9.24092 9.77262 8.02034 9.77262H3.63477V9.99163H10.4293C10.4437 10.1415 10.4584 10.2919 10.4728 10.4418L10.9838 10.4418V9.99163L10.9838 9.77262Z" fill="#2E2C2A"/>
<path d="M7.03154 8.76249L7.1688 8.66162L8.01193 9.80892L7.87466 9.90979C7.24147 9.83164 6.96338 9.44666 7.03154 8.76249Z" fill="#2E2C2A"/>
<path d="M8.43669 4.8833L8.59233 4.95252L6.90857 9.91052L6.75293 9.8413C6.9616 8.48267 7.60275 5.99692 8.43669 4.8833Z" fill="#2E2C2A"/>
<path d="M12.8449 8.51953H12.6016V8.61687H12.8449V8.51953Z" fill="#3F3D56"/>
<path d="M10.659 7.09053C10.6592 7.08871 10.6592 7.0871 10.6589 7.08541C10.6575 7.07188 10.6455 7.06238 10.6322 7.06387L10.4753 7.08151L4.96574 7.28069L4.91701 7.28605C4.90639 7.28721 4.89781 7.29527 4.8959 7.30595C4.89352 7.3192 4.90229 7.33179 4.91554 7.33417L10.5413 8.03541C10.5547 8.03679 10.5665 8.02686 10.5679 8.01343L10.659 7.09053ZM5.08887 7.3158L10.4664 7.13135L10.6076 7.11561L10.522 7.98255L5.08887 7.3158Z" fill="#2E2C2A"/>
<path d="M6.69434 3.97337L6.58845 4.1932L5.15334 7.1683L6.10961 3.99869L6.18014 3.7648L6.13734 3.74731L6.06701 3.98141L5.0804 7.27359L5.06995 7.32141C5.06754 7.33186 5.07236 7.34251 5.082 7.34774C5.09366 7.35437 5.10853 7.35015 5.11496 7.33829L6.63104 4.21048L6.73734 3.99085L6.69434 3.97337Z" fill="#2E2C2A"/>
<path d="M2.00915 7.34189L1.93862 6.67618L1.91933 6.49272L1.81966 5.55072L1.75918 4.97825C1.75798 4.96599 1.74753 4.95654 1.73507 4.95654C1.72261 4.95654 1.71216 4.96579 1.71075 4.97804L1.64505 5.55072L1.52448 6.60364L1.50218 6.79835L1.43768 7.36098L1.34786 8.14524C1.34766 8.14604 1.34766 8.14685 1.34766 8.14785C1.34746 8.16111 1.35831 8.17217 1.37177 8.17237L1.66434 8.17518L2.07044 8.179H2.07064C2.07144 8.179 2.07224 8.1788 2.07305 8.1788C2.08651 8.17739 2.09616 8.16533 2.09475 8.15207L2.00915 7.34189ZM1.76843 8.12736L1.65208 8.12635L1.3993 8.12394L1.47244 7.48536V7.48516L1.55282 6.78428L1.57512 6.58937L1.69428 5.55072L1.73407 5.2031L1.77083 5.55072L1.87191 6.50598L1.8912 6.68944L1.96152 7.35515L2.04351 8.12997L1.76843 8.12736Z" fill="#2E2C2A"/>
<path d="M5.61165 8.30316L5.48064 8.3747L5.10629 8.47939L4.79243 8.5674L4.11084 8.75809L3.79698 8.8459C2.82145 8.68587 2.32885 9.02272 1.86314 9.38723L1.54927 9.47504L1.31558 9.54054C1.27339 9.41275 1.23501 9.28334 1.20085 9.15213C1.17312 9.04643 1.148 8.93954 1.1257 8.83183C1.04452 8.44181 0.998299 8.03913 0.990666 7.627C0.98966 7.58481 0.989258 7.54241 0.989258 7.50001C0.989258 7.30972 0.997494 7.12144 1.01337 6.93537C1.019 6.87067 1.02543 6.80617 1.03286 6.74207L1.52496 6.60362L1.5756 6.58936L1.87238 6.50596L1.91981 6.4927L2.67313 6.28071C3.25229 6.2398 3.69348 6.49133 4.06925 6.88152C4.06925 6.88152 4.60415 6.72177 4.99779 7.00369C5.12237 7.09311 5.23268 7.22673 5.30743 7.42385L5.37193 7.60972L5.61165 8.30316Z" fill="#2C78B4"/>
<path d="M4.43545 9.2857C4.8124 9.2857 5.11797 8.98012 5.11797 8.60318C5.11797 8.22623 4.8124 7.92065 4.43545 7.92065C4.0585 7.92065 3.75293 8.22623 3.75293 8.60318C3.75293 8.98012 4.0585 9.2857 4.43545 9.2857Z" fill="#2E2C2A"/>
<path d="M4.43539 8.96258C4.63379 8.96258 4.79462 8.80175 4.79462 8.60336C4.79462 8.40497 4.63379 8.24414 4.43539 8.24414C4.237 8.24414 4.07617 8.40497 4.07617 8.60336C4.07617 8.80175 4.237 8.96258 4.43539 8.96258Z" fill="#EEEEEE"/>
<path d="M1.87467 9.5112C1.87467 9.73706 1.76496 9.93719 1.59577 10.0614C1.57507 10.0766 1.55337 10.0907 1.53107 10.1036C1.52765 10.0961 1.52464 10.0889 1.52142 10.0815C1.48103 9.98843 1.44306 9.89419 1.40709 9.79895C1.37494 9.71375 1.34439 9.62755 1.31586 9.54054C1.27367 9.41274 1.23529 9.28334 1.20113 9.15212C1.1734 9.04643 1.14828 8.93953 1.12598 8.83183C1.14768 8.82962 1.16978 8.82861 1.19209 8.82861C1.52665 8.82861 1.80515 9.06934 1.86342 9.38722C1.87086 9.42741 1.87467 9.4688 1.87467 9.5112Z" fill="#2E2C2A"/>
<path d="M1.55141 9.51118C1.55141 9.62893 1.49474 9.73342 1.40713 9.79892C1.37498 9.71372 1.34444 9.62752 1.31591 9.54051C1.27371 9.41272 1.23533 9.28331 1.20117 9.1521C1.38342 9.15652 1.53172 9.29637 1.5496 9.47501C1.5508 9.48686 1.55141 9.49892 1.55141 9.51118Z" fill="#EEEEEE"/>
<path d="M3.58667 6.90035L1.47481 7.49147L1.29688 6.85576C1.56278 6.64809 2.08596 6.55568 2.64373 6.47876L3.58667 6.90035Z" fill="white"/>
<path d="M1.21612 7.56379L0.990666 7.62689C0.98966 7.58469 0.989258 7.54229 0.989258 7.49989C0.989258 7.3096 0.997494 7.12132 1.01337 6.93526L1.03829 6.92822C1.25853 7.07274 1.31421 7.2861 1.21612 7.56379Z" fill="white"/>
<path d="M1.71517 7.93542L1.60742 7.96558L1.66472 8.1703L1.77247 8.14014L1.71517 7.93542Z" fill="#2E2C2A"/>
<path d="M5.37175 7.60967C5.18642 7.68385 4.97605 7.59374 4.90187 7.40841C4.8452 7.2668 4.88351 7.10486 4.99763 7.00366C5.12221 7.093 5.23269 7.2266 5.3074 7.42377L5.37175 7.60967Z" fill="#2E2C2A"/>
<path d="M1.60254 4.73821C1.67749 4.57846 1.75867 4.42233 1.84588 4.27002V5.5506H1.60254V4.73821Z" fill="#2E2C2A"/>
<path d="M10.704 6.06174C10.8921 6.06174 11.0447 5.90921 11.0447 5.72106C11.0447 5.5329 10.8921 5.38037 10.704 5.38037C10.5158 5.38037 10.3633 5.5329 10.3633 5.72106C10.3633 5.90921 10.5158 6.06174 10.704 6.06174Z" fill="#2E2C2A"/>
</g>
<defs>
<clipPath id="clip0_6230_19477">
<rect width="13.0208" height="13.0208" fill="white" transform="translate(0.989258 0.989502)"/>
</clipPath>
</defs>
</svg>
