<svg width="83" height="80" viewBox="0 0 83 80" fill="none" xmlns="http://www.w3.org/2000/svg">
<circle cx="42.5" cy="40.5" r="31.5" fill="#F6F9FF"/>
<circle cx="79.5" cy="12.5" r="3.5" fill="#F6F9FF"/>
<circle cx="8.5" cy="4.5" r="4.5" fill="#F6F9FF"/>
<circle cx="4" cy="59" r="2" fill="#F6F9FF"/>
<circle cx="73" cy="71" r="1" fill="#F6F9FF"/>
<path d="M54.9808 42.5824L54.9807 42.5828C54.9293 42.8442 54.8697 43.103 54.8027 43.3591L54.8026 43.3593C54.6704 43.8662 54.5083 44.361 54.3189 44.8425L54.3184 44.8437C54.293 44.9089 54.2668 44.974 54.2396 45.0392L54.2391 45.0404C54.1718 45.2041 54.1012 45.366 54.0274 45.5258L54.027 45.5268C53.988 45.612 53.9478 45.6969 53.9064 45.7813L53.9059 45.7824C53.7504 46.1028 53.5818 46.4163 53.401 46.7216L53.4008 46.7219C53.1953 47.07 52.9744 47.408 52.7386 47.734L52.7383 47.7344C52.3161 48.32 51.8468 48.8697 51.3363 49.3773L51.3362 49.3775C48.9431 51.7608 45.6441 53.2327 42.0007 53.2327C38.3405 53.2327 35.0276 51.7469 32.632 49.3448L32.632 49.3448C32.1381 48.8497 31.6832 48.3159 31.2728 47.7479L31.2726 47.7477C30.7993 47.0938 30.3844 46.3947 30.0357 45.6581L30.0354 45.6574C29.978 45.537 29.9226 45.4152 29.8692 45.2925L29.8693 45.2925L29.8667 45.2868C29.8632 45.2793 29.8606 45.2732 29.8567 45.264C29.8547 45.2594 29.8524 45.254 29.8495 45.2472L29.8493 45.2468C29.7675 45.0583 29.6904 44.867 29.6171 44.6731C29.5517 44.4999 29.4897 44.3248 29.4319 44.1485L29.4317 44.1479C29.3459 43.8881 29.268 43.6253 29.1987 43.3591L29.1985 43.3585C29.1422 43.1438 29.0912 42.9267 29.0459 42.7081L29.0459 42.7078C28.8809 41.9152 28.787 41.0968 28.7715 40.2591L28.7714 40.2574C28.7694 40.1726 28.7686 40.0869 28.7686 40.0007C28.7686 39.6139 28.7853 39.2311 28.8176 38.8528C28.8291 38.7209 28.8421 38.5897 28.8572 38.4598L28.5497 38.4241L28.8572 38.4598C29.0242 37.0191 29.4228 35.6491 30.0144 34.3878C30.1668 34.0631 30.3317 33.7458 30.509 33.4363L30.2428 33.2839L30.509 33.4363C31.1649 32.2907 31.987 31.2525 32.9428 30.3551L32.9431 30.3548C33.0765 30.2292 33.2123 30.1069 33.3509 29.9874L33.3513 29.987C35.6708 27.9813 38.6936 26.7686 42.0007 26.7686C49.3085 26.7686 55.2327 32.6928 55.2327 40.0007C55.2327 40.8844 55.1461 41.7478 54.9808 42.5824Z" fill="white" stroke="#2E2C2A" stroke-width="0.619178"/>
<g clip-path="url(#clip0_4528_22512)">
<path d="M42.2416 44.1355C44.6694 44.1355 46.6375 42.1674 46.6375 39.7396C46.6375 37.3119 44.6694 35.3438 42.2416 35.3438C39.8138 35.3438 37.8457 37.3119 37.8457 39.7396C37.8457 42.1674 39.8138 44.1355 42.2416 44.1355Z" fill="#EFCEAF"/>
<path d="M38.6045 45.119L39.5208 42.7772L44.2553 42.0645L44.764 47.2483L39.9786 47.3501L38.6045 45.119Z" fill="#EFCEAF"/>
<path d="M46.6817 40.5514C46.6247 40.78 46.5093 41.3242 46.3292 41.3269C46.1821 41.329 46.0413 38.968 46.1882 38.5775C46.3571 38.1289 45.9134 37.5613 45.5792 37.27C44.9782 36.7462 43.6443 37.871 42.2879 37.3614C42.2519 37.348 42.2591 37.3495 41.8307 37.1786C40.5127 36.6527 40.4435 36.6375 40.3679 36.63C39.729 36.5668 38.9493 37.0897 38.6309 37.7271C38.2999 38.3898 38.5764 38.9582 38.2652 40.5613C38.2289 40.7482 38.1719 41.0145 38.0823 41.0184C37.9185 41.0256 37.7585 40.1505 37.7166 39.9213C37.5411 38.9611 37.3719 38.0353 37.7166 36.9957C37.7542 36.8823 37.986 36.4615 38.448 35.6244C39.1136 34.4184 39.4484 33.8132 39.5451 33.7044C40.2389 32.9242 41.5018 32.2124 42.5621 32.5159C43.0981 32.6693 43.002 32.9159 43.6592 33.1559C44.8306 33.5836 45.8486 33.0605 46.0363 33.4302C46.1358 33.626 45.8575 33.7874 45.8534 34.1616C45.8465 34.8036 46.6585 34.9891 47.1334 35.6244C47.3887 35.9659 47.8256 35.9695 46.6817 40.5514Z" fill="#2E2C2A"/>
<path d="M52.1263 48.9919C51.9491 49.191 51.7653 49.386 51.5749 49.5764C49.0173 52.134 45.6166 53.5426 41.9996 53.5426C38.8733 53.5426 35.9089 52.4903 33.5106 50.5533C33.509 50.5523 33.508 50.5512 33.5065 50.5497C33.1883 50.2932 32.8803 50.0203 32.583 49.7321C32.5886 49.6873 32.5947 49.643 32.6013 49.5992C32.6431 49.304 32.6894 49.0224 32.7413 48.7633C33.1664 46.6394 38.7597 44.4096 38.9053 44.3516C38.9074 44.3511 38.9084 44.3506 38.9084 44.3506C38.9084 44.3506 39.6282 47.0039 42.7128 46.9698C44.8138 46.9469 44.4065 44.3506 44.4065 44.3506C44.4065 44.3506 44.432 44.3557 44.4798 44.3658C45.0866 44.4947 49.2998 45.4202 50.962 46.6832C51.4685 47.0681 51.832 47.8877 52.0932 48.8651C52.1044 48.9069 52.1151 48.9497 52.1263 48.9919Z" fill="#2C78B4"/>
</g>
<circle cx="47" cy="2" r="1" fill="#F6F9FF"/>
<circle cx="27.5" cy="78.5" r="1.5" fill="#F6F9FF"/>
<circle cx="54.5" cy="76.5" r="0.5" fill="#F6F9FF"/>
<circle cx="76" cy="49" r="1" fill="#F6F9FF"/>
<circle cx="0.5" cy="33.5" r="0.5" fill="#F6F9FF"/>
<defs>
<clipPath id="clip0_4528_22512">
<rect width="27.0833" height="27.0833" fill="white" transform="translate(28.459 26.459)"/>
</clipPath>
</defs>
</svg>
