<svg width="14" height="14" viewBox="0 0 14 14" fill="none" xmlns="http://www.w3.org/2000/svg">
<g clip-path="url(#clip0_6230_10994)">
<path d="M12.3619 7.87625L12.3621 7.87507C12.4334 7.51538 12.4708 7.14267 12.4708 6.76042C12.4708 3.60665 9.91419 1.05 6.76042 1.05C5.33274 1.05 4.02929 1.57286 3.02802 2.43872L3.02699 2.43961C2.96756 2.49082 2.90941 2.54322 2.85231 2.59699L2.85138 2.59787C2.43869 2.98534 2.08373 3.43362 1.80066 3.92802L1.80066 3.92803C1.72423 4.06152 1.65306 4.19838 1.58734 4.33846L12.3619 7.87625ZM12.3619 7.87625C12.3399 7.98823 12.3142 8.09957 12.2853 8.21031L12.2852 8.2108M12.3619 7.87625L12.2852 8.2108M12.2852 8.2108C12.2283 8.42889 12.1585 8.64205 12.0767 8.84978L12.0756 8.85273M12.2852 8.2108L12.0756 8.85273M12.0756 8.85273C12.0654 8.87897 12.0546 8.9055 12.0434 8.93258L12.0421 8.9356M12.0756 8.85273L12.0421 8.9356M12.0421 8.9356C12.0131 9.00604 11.9829 9.07547 11.9513 9.14374L11.9501 9.14652M12.0421 8.9356L11.9501 9.14652M11.9501 9.14652C11.9338 9.18211 11.917 9.21756 11.8997 9.25286L11.8983 9.25579M11.9501 9.14652L11.8983 9.25579M11.8983 9.25579C11.8314 9.39364 11.7589 9.52849 11.6811 9.6598L11.6805 9.66074M11.8983 9.25579L11.6805 9.66074M11.6805 9.66074C11.5917 9.81112 11.4966 9.95672 11.3953 10.0967L11.3946 10.0977M11.6805 9.66074L11.3946 10.0977M11.3946 10.0977C11.2123 10.3505 11.0098 10.5877 10.7896 10.8067L10.7892 10.8071M11.3946 10.0977L10.7892 10.8071M10.7892 10.8071C9.75572 11.8363 8.33297 12.4708 6.76042 12.4708C5.18067 12.4708 3.75187 11.8303 2.71734 10.793L2.71727 10.7929M10.7892 10.8071L2.71727 10.7929M2.71727 10.7929C2.50388 10.579 2.30753 10.3486 2.13062 10.1037L2.13018 10.1031M2.71727 10.7929L2.13018 10.1031M2.13018 10.1031C1.92591 9.82094 1.74695 9.51935 1.59659 9.20172L1.59575 9.19997M2.13018 10.1031L1.59575 9.19997M1.59575 9.19997C1.57148 9.14902 1.54791 9.09721 1.52506 9.04471L1.52187 9.03738M1.59575 9.19997L1.52187 9.03738M1.52187 9.03738L1.52035 9.03408M1.52187 9.03738L1.52035 9.03408M1.52035 9.03408L1.51963 9.0324L1.51615 9.0243L1.51572 9.0233M1.52035 9.03408L1.51572 9.0233M1.51572 9.0233C1.48098 8.94329 1.44786 8.86117 1.41603 8.7769L0.667552 9.05936C0.703521 9.1546 0.741496 9.24884 0.781885 9.34188L1.51572 9.0233ZM1.33599 8.55012L1.3365 8.55167C1.36109 8.62668 1.38767 8.70174 1.41596 8.77672L1.33599 8.55012ZM1.33599 8.55012C1.29892 8.43787 1.26544 8.32491 1.23579 8.21099L1.2354 8.20952M1.33599 8.55012L1.2354 8.20952M1.2354 8.20952C1.21117 8.11718 1.18926 8.02388 1.16982 7.93001L1.16965 7.92922M1.2354 8.20952L1.16965 7.92922M1.16965 7.92922C1.09853 7.58754 1.05797 7.23447 1.05128 6.8726L1.05118 6.86835M1.16965 7.92922L1.05118 6.86835M1.05118 6.86835C1.05036 6.83375 1.05 6.79784 1.05 6.76042C1.05 6.59346 1.05722 6.42809 1.07116 6.26445C1.07619 6.20663 1.08186 6.15001 1.08828 6.09462L1.08828 6.0946M1.05118 6.86835L1.08828 6.0946M1.08828 6.0946C1.16034 5.47306 1.33218 4.88242 1.58731 4.33852L1.08828 6.0946Z" fill="white" stroke="white" stroke-width="1.6"/>
<g clip-path="url(#clip1_6230_10994)">
<path fill-rule="evenodd" clip-rule="evenodd" d="M4.93892 4.8899C5.13449 4.02866 5.90008 3.41736 6.78321 3.41736C7.66647 3.41736 8.43193 4.02868 8.62754 4.8899C8.64637 5.28935 8.70327 5.567 8.79814 5.72279C9.21808 6.23316 9.31922 6.60045 9.10174 6.82456C8.93387 7.09746 8.91724 7.32046 9.05181 7.49325C9.58355 7.87461 9.63385 8.25726 9.2027 8.64132C7.78234 9.75611 5.78408 9.75611 4.36385 8.64132C3.93265 8.25726 3.98292 7.87461 4.51469 7.49325C4.64926 7.32044 4.63259 7.09746 4.46476 6.82456C4.2472 6.60047 4.34839 6.23318 4.76833 5.72279C4.86319 5.567 4.92007 5.28935 4.93892 4.8899Z" fill="#2E2C2A"/>
<path fill-rule="evenodd" clip-rule="evenodd" d="M8.00854 9.91567H5.51172V8.35981C5.79709 8.43245 5.94136 8.20935 5.94469 7.69006H7.5756C7.57881 8.20935 7.72317 8.43247 8.00854 8.35981V9.91567Z" fill="#EFCEAF"/>
<path fill-rule="evenodd" clip-rule="evenodd" d="M6.76044 9.3573C6.18913 9.3573 5.68389 8.98689 5.51197 8.44214C4.81095 8.61681 3.84138 8.75874 3.3188 9.25495C2.64738 9.89248 2.57198 10.5553 2.3916 11.5208C2.79544 11.8792 3.2796 12.2149 3.90907 12.561L9.79005 12.4631C10.4562 12.0715 10.7254 11.8757 11.1293 11.4964C10.949 10.5308 10.8736 9.89248 10.2021 9.25495C9.67954 8.75876 8.70991 8.61681 8.00885 8.44214C7.83694 8.98689 7.33175 9.3573 6.76044 9.3573Z" fill="#E0E0E0"/>
<path fill-rule="evenodd" clip-rule="evenodd" d="M8.73616 8.52888C8.61701 8.50017 8.49884 8.47344 8.38385 8.44739V11.1603H8.73616V8.52888ZM5.1375 8.44739C5.02254 8.47344 4.90435 8.50017 4.78516 8.52888V11.1603H5.1375V8.44739Z" fill="#2C78B4"/>
<path fill-rule="evenodd" clip-rule="evenodd" d="M8.34759 5.67003C8.16915 5.7848 8.04684 5.9689 8.01018 6.17797C7.97354 6.38696 8.02594 6.60178 8.1547 6.77038C8.81809 6.80512 9.15463 5.37014 8.34759 5.67003ZM5.17346 5.67003C5.35177 5.7848 5.47417 5.9689 5.51074 6.17797C5.54742 6.38696 5.49506 6.60178 5.3663 6.77038C4.70296 6.80512 4.36642 5.37014 5.17346 5.67003Z" fill="#EFCEAF"/>
<path fill-rule="evenodd" clip-rule="evenodd" d="M4.93891 4.88985C6.13864 4.48751 7.4273 4.56397 8.62753 4.88985C8.76284 4.15075 8.44382 3.40226 7.81696 2.98804C7.19006 2.57381 6.37643 2.57381 5.74957 2.98804C5.12265 3.40226 4.80365 4.15073 4.93891 4.88985Z" fill="#2C78B4"/>
<path fill-rule="evenodd" clip-rule="evenodd" d="M10.7122 11.8704V10.1473C11.0117 10.0164 11.2054 9.72046 11.2054 9.39347C11.2054 9.06652 11.0117 8.77052 10.7122 8.63965L10.6874 9.33957L10.3829 9.55354L10.0537 9.33957V8.63965C9.75413 8.77056 9.56055 9.06652 9.56055 9.39347C9.56055 9.72046 9.75413 10.0163 10.0537 10.1473V12.3163C10.3097 12.1817 10.53 12.0103 10.7122 11.8704Z" fill="#9E9E9E"/>
<path fill-rule="evenodd" clip-rule="evenodd" d="M9.63336 10.495C9.62543 10.3981 9.54039 10.3261 9.44345 10.3341C9.34659 10.342 9.27446 10.4271 9.28247 10.524L9.3225 11.0005L9.66993 10.9296L9.63336 10.495ZM3.88911 10.495C3.89712 10.3981 3.98208 10.3261 4.07898 10.3341C4.17592 10.342 4.24805 10.4271 4.23992 10.524L4.19992 11.0005L3.85254 10.9296L3.88911 10.495Z" fill="#BDBDBD"/>
<path fill-rule="evenodd" clip-rule="evenodd" d="M3.73047 12.3809C4.00293 12.88 5.27618 13.2419 6.76005 13.2419C8.24399 13.2419 9.51718 12.88 9.78968 12.3809L9.6698 10.9297H3.85243L3.73047 12.3809Z" fill="#2C78B4"/>
<path fill-rule="evenodd" clip-rule="evenodd" d="M8.43737 13.0722V11.9538C8.43699 11.833 8.33921 11.7353 8.21841 11.7349H5.30286C5.18207 11.7352 5.08422 11.833 5.08398 11.9538V13.0722C5.56957 13.18 6.14707 13.242 6.76066 13.242C7.37424 13.242 7.95166 13.18 8.43737 13.0722Z" fill="#5BB7FF"/>
<path fill-rule="evenodd" clip-rule="evenodd" d="M5.17383 5.67002C5.43929 5.02763 6.06575 4.60864 6.76085 4.60864C7.45591 4.60864 8.08241 5.02763 8.34796 5.67002C8.2103 8.80132 5.31144 8.80132 5.17383 5.67002Z" fill="#EFCEAF"/>
<path fill-rule="evenodd" clip-rule="evenodd" d="M4.93848 4.88989C5.41496 4.39414 6.07277 4.11401 6.76037 4.11401C7.44793 4.11401 8.10574 4.39414 8.58222 4.88989C8.48661 5.27903 8.16885 5.55953 7.62873 5.73136C7.38467 5.80896 7.09518 5.53509 6.76037 5.56835C6.42556 5.53509 6.13611 5.80896 5.89209 5.73136C5.35195 5.55953 5.03411 5.27903 4.93848 4.88989Z" fill="#4299DE"/>
</g>
</g>
<defs>
<clipPath id="clip0_6230_10994">
<rect width="13.0208" height="13.0208" fill="white" transform="translate(0.25 0.25)"/>
</clipPath>
<clipPath id="clip1_6230_10994">
<rect width="10.8181" height="10.8181" fill="white" transform="translate(1.35156 2.55066)"/>
</clipPath>
</defs>
</svg>
