<svg width="61" height="60" viewBox="0 0 61 60" fill="none" xmlns="http://www.w3.org/2000/svg">
<rect x="0.75" width="60" height="60" rx="30" fill="#2C78B4"/>
<g clip-path="url(#clip0_6228_5873)">
<g clip-path="url(#clip1_6228_5873)">
<path d="M43.3584 23.551C43.079 22.2951 41.9846 21.418 40.6985 21.418H31.658V25.0508H32.5662C33.0681 25.0508 33.4743 25.457 33.4743 25.9589C33.4743 26.4609 33.0681 26.8671 32.5662 26.8671H28.9334C28.4314 26.8671 28.0252 26.4609 28.0252 25.9589C28.0252 25.457 28.4314 25.0508 28.9334 25.0508H29.8416V21.418H20.8616C19.5756 21.418 18.4206 22.2951 18.1404 23.5519L15.3164 36.2657C14.937 37.9656 16.2306 39.5819 17.9754 39.5819H28.3653L24.9904 32.6445L21.2004 30.3704C20.7703 30.1123 20.6311 29.5544 20.8891 29.1243C21.1472 28.6942 21.7042 28.5558 22.1352 28.813L31.2172 34.2622C31.6473 34.5203 31.7866 35.0781 31.5285 35.5083C31.27 35.9391 30.7114 36.077 30.2824 35.8196L27.8435 34.3562L30.3856 39.5819H37.4468L34.0724 32.6445L30.2825 30.3704C29.8523 30.1123 29.7131 29.5544 29.9711 29.1243C30.2292 28.6942 30.7862 28.5558 31.2172 28.813L40.2992 34.2622C40.7293 34.5203 40.8686 35.0781 40.6105 35.5083C40.352 35.9391 39.7935 36.077 39.3644 35.8196L36.9252 34.3561L39.4671 39.5818H43.5243C45.2695 39.5818 46.5618 37.9653 46.1841 36.2665L43.3584 23.551Z" fill="white"/>
</g>
</g>
<defs>
<clipPath id="clip0_6228_5873">
<rect width="28" height="28" fill="white" transform="translate(16.75 16)"/>
</clipPath>
<clipPath id="clip1_6228_5873">
<rect width="31" height="31" fill="white" transform="translate(15.25 15)"/>
</clipPath>
</defs>
</svg>
