<svg width="430" height="250" viewBox="0 0 430 250" fill="none" xmlns="http://www.w3.org/2000/svg">
<g clip-path="url(#clip0_4233_49047)">
<rect width="430" height="250" fill="url(#paint0_linear_4233_49047)"/>
<g clip-path="url(#clip1_4233_49047)">
<path d="M-0.895822 68.2611L-7.5166 70.3193L-5.45674 76.9453L1.16404 74.8871L-0.895822 68.2611Z" fill="#69B3EE" fill-opacity="0.7"/>
<path d="M7.78484 72.8285L1.16406 74.8867L3.22393 81.5127L9.84471 79.4544L7.78484 72.8285Z" fill="#69B3EE" fill-opacity="0.7"/>
<path d="M3.22429 81.513L-3.39648 83.5713L-1.33662 90.1973L5.28416 88.139L3.22429 81.513Z" fill="#69B3EE" fill-opacity="0.7"/>
<path d="M16.4655 77.3963L9.84473 79.4546L11.9046 86.0806L18.5254 84.0223L16.4655 77.3963Z" fill="#69B3EE" fill-opacity="0.7"/>
<path d="M-1.33723 90.1971L-7.95801 92.2554L-5.89814 98.8813L0.722637 96.8231L-1.33723 90.1971Z" fill="#69B3EE" fill-opacity="0.7"/>
<path d="M11.905 86.0804L5.28418 88.1387L7.34405 94.7646L13.9648 92.7064L11.905 86.0804Z" fill="#69B3EE" fill-opacity="0.7"/>
<path d="M25.1462 81.9642L18.5254 84.0225L20.5853 90.6484L27.206 88.5902L25.1462 81.9642Z" fill="#69B3EE" fill-opacity="0.7"/>
<path d="M7.34344 94.765L0.722656 96.8232L2.78252 103.449L9.4033 101.391L7.34344 94.765Z" fill="#69B3EE" fill-opacity="0.7"/>
<path d="M20.5856 90.6483L13.9648 92.7065L16.0247 99.3325L22.6455 97.2743L20.5856 90.6483Z" fill="#69B3EE" fill-opacity="0.7"/>
<path d="M33.8268 86.5321L27.2061 88.5903L29.2659 95.2163L35.8867 93.1581L33.8268 86.5321Z" fill="#69B3EE" fill-opacity="0.7"/>
<path d="M2.78289 103.449L-3.83789 105.507L-1.77802 112.133L4.84275 110.075L2.78289 103.449Z" fill="#69B3EE" fill-opacity="0.7"/>
<path d="M16.0241 99.3324L9.40332 101.391L11.4632 108.017L18.084 105.958L16.0241 99.3324Z" fill="#69B3EE" fill-opacity="0.7"/>
<path d="M29.2663 95.2162L22.6455 97.2744L24.7054 103.9L31.3262 101.842L29.2663 95.2162Z" fill="#69B3EE" fill-opacity="0.7"/>
<path d="M42.5075 91.0995L35.8867 93.1577L37.9466 99.7837L44.5674 97.7254L42.5075 91.0995Z" fill="#69B3EE" fill-opacity="0.7"/>
<path d="M55.7487 86.9833L49.1279 89.0415L51.1878 95.6675L57.8086 93.6092L55.7487 86.9833Z" fill="#69B3EE" fill-opacity="0.7"/>
<path d="M-1.77766 112.133L-8.39844 114.191L-6.33857 120.817L0.282208 118.759L-1.77766 112.133Z" fill="#69B3EE" fill-opacity="0.7"/>
<path d="M11.4636 108.017L4.84277 110.075L6.90264 116.701L13.5234 114.643L11.4636 108.017Z" fill="#69B3EE" fill-opacity="0.7"/>
<path d="M24.7048 103.9L18.084 105.958L20.1439 112.584L26.7646 110.526L24.7048 103.9Z" fill="#69B3EE" fill-opacity="0.7"/>
<path d="M37.947 99.784L31.3262 101.842L33.386 108.468L40.0068 106.41L37.947 99.784Z" fill="#69B3EE" fill-opacity="0.7"/>
<path d="M51.1882 95.6673L44.5674 97.7256L46.6272 104.352L53.248 102.293L51.1882 95.6673Z" fill="#69B3EE" fill-opacity="0.7"/>
<path d="M64.4294 91.5506L57.8086 93.6089L59.8685 100.235L66.4892 98.1766L64.4294 91.5506Z" fill="#69B3EE" fill-opacity="0.7"/>
<path d="M6.90301 116.701L0.282227 118.759L2.34209 125.385L8.96287 123.327L6.90301 116.701Z" fill="#69B3EE" fill-opacity="0.7"/>
<path d="M20.1442 112.584L13.5234 114.643L15.5833 121.269L22.2041 119.21L20.1442 112.584Z" fill="#69B3EE" fill-opacity="0.7"/>
<path d="M33.3854 108.468L26.7646 110.526L28.8245 117.152L35.4453 115.094L33.3854 108.468Z" fill="#69B3EE" fill-opacity="0.7"/>
<path d="M46.6276 104.351L40.0068 106.41L42.0667 113.036L48.6875 110.977L46.6276 104.351Z" fill="#69B3EE" fill-opacity="0.7"/>
<path d="M59.8688 100.235L53.248 102.293L55.3079 108.919L61.9287 106.861L59.8688 100.235Z" fill="#69B3EE" fill-opacity="0.7"/>
<path d="M73.11 96.1185L66.4893 98.1768L68.5491 104.803L75.1699 102.744L73.11 96.1185Z" fill="#69B3EE" fill-opacity="0.7"/>
<path d="M86.3522 92.0023L79.7314 94.0605L81.7913 100.687L88.4121 98.6283L86.3522 92.0023Z" fill="#69B3EE" fill-opacity="0.7"/>
<path d="M99.5934 87.8856L92.9727 89.9438L95.0325 96.5698L101.653 94.5116L99.5934 87.8856Z" fill="#69B3EE" fill-opacity="0.7"/>
<path d="M2.34148 125.385L-4.2793 127.443L-2.21943 134.069L4.40135 132.011L2.34148 125.385Z" fill="#69B3EE" fill-opacity="0.7"/>
<path d="M15.5837 121.269L8.96289 123.327L11.0228 129.953L17.6435 127.895L15.5837 121.269Z" fill="#69B3EE" fill-opacity="0.7"/>
<path d="M28.8249 117.152L22.2041 119.21L24.264 125.836L30.8847 123.778L28.8249 117.152Z" fill="#69B3EE" fill-opacity="0.7"/>
<path d="M42.0661 113.036L35.4453 115.094L37.5052 121.72L44.126 119.662L42.0661 113.036Z" fill="#69B3EE" fill-opacity="0.7"/>
<path d="M55.3083 108.919L48.6875 110.978L50.7474 117.604L57.3681 115.545L55.3083 108.919Z" fill="#69B3EE" fill-opacity="0.7"/>
<path d="M68.5495 104.803L61.9287 106.861L63.9886 113.487L70.6094 111.429L68.5495 104.803Z" fill="#69B3EE" fill-opacity="0.7"/>
<path d="M81.7907 100.686L75.1699 102.745L77.2298 109.371L83.8506 107.312L81.7907 100.686Z" fill="#69B3EE" fill-opacity="0.7"/>
<path d="M95.0329 96.5697L88.4121 98.6279L90.472 105.254L97.0928 103.196L95.0329 96.5697Z" fill="#69B3EE" fill-opacity="0.7"/>
<path d="M11.0221 129.953L4.40137 132.011L6.46123 138.637L13.082 136.579L11.0221 129.953Z" fill="#69B3EE" fill-opacity="0.7"/>
<path d="M24.2643 125.836L17.6436 127.895L19.7034 134.521L26.3242 132.462L24.2643 125.836Z" fill="#69B3EE" fill-opacity="0.7"/>
<path d="M37.5055 121.72L30.8848 123.778L32.9446 130.404L39.5654 128.346L37.5055 121.72Z" fill="#69B3EE" fill-opacity="0.7"/>
<path d="M50.7468 117.603L44.126 119.662L46.1858 126.288L52.8066 124.229L50.7468 117.603Z" fill="#69B3EE" fill-opacity="0.7"/>
<path d="M63.9889 113.487L57.3682 115.545L59.428 122.171L66.0488 120.113L63.9889 113.487Z" fill="#69B3EE" fill-opacity="0.7"/>
<path d="M77.2302 109.37L70.6094 111.429L72.6692 118.055L79.29 115.996L77.2302 109.37Z" fill="#69B3EE" fill-opacity="0.7"/>
<path d="M90.4714 105.254L83.8506 107.312L85.9105 113.938L92.5312 111.88L90.4714 105.254Z" fill="#69B3EE" fill-opacity="0.7"/>
<path d="M6.4616 138.637L-0.15918 140.695L1.90069 147.321L8.52147 145.263L6.4616 138.637Z" fill="#69B3EE" fill-opacity="0.7"/>
<path d="M19.7028 134.521L13.082 136.579L15.1419 143.205L21.7627 141.147L19.7028 134.521Z" fill="#69B3EE" fill-opacity="0.7"/>
<path d="M32.945 130.404L26.3242 132.462L28.3841 139.088L35.0049 137.03L32.945 130.404Z" fill="#69B3EE" fill-opacity="0.7"/>
<path d="M46.1862 126.288L39.5654 128.346L41.6253 134.972L48.2461 132.914L46.1862 126.288Z" fill="#69B3EE" fill-opacity="0.7"/>
<path d="M59.4274 122.171L52.8066 124.229L54.8665 130.855L61.4873 128.797L59.4274 122.171Z" fill="#69B3EE" fill-opacity="0.7"/>
<path d="M72.6696 118.055L66.0488 120.113L68.1087 126.739L74.7295 124.681L72.6696 118.055Z" fill="#69B3EE" fill-opacity="0.7"/>
<path d="M85.9108 113.938L79.29 115.997L81.3499 122.623L87.9707 120.564L85.9108 113.938Z" fill="#69B3EE" fill-opacity="0.7"/>
<path d="M99.152 109.822L92.5312 111.88L94.5911 118.506L101.212 116.448L99.152 109.822Z" fill="#69B3EE" fill-opacity="0.7"/>
<path d="M1.90105 147.322L-4.71973 149.38L-2.65986 156.006L3.96092 153.948L1.90105 147.322Z" fill="#69B3EE" fill-opacity="0.7"/>
<path d="M15.1423 143.205L8.52148 145.263L10.5814 151.889L17.2021 149.831L15.1423 143.205Z" fill="#69B3EE" fill-opacity="0.7"/>
<path d="M28.3835 139.088L21.7627 141.146L23.8226 147.772L30.4433 145.714L28.3835 139.088Z" fill="#69B3EE" fill-opacity="0.7"/>
<path d="M41.6257 134.972L35.0049 137.03L37.0647 143.656L43.6855 141.598L41.6257 134.972Z" fill="#69B3EE" fill-opacity="0.7"/>
<path d="M54.8669 130.855L48.2461 132.914L50.306 139.54L56.9267 137.481L54.8669 130.855Z" fill="#69B3EE" fill-opacity="0.7"/>
<path d="M68.1081 126.739L61.4873 128.797L63.5472 135.423L70.1679 133.365L68.1081 126.739Z" fill="#69B3EE" fill-opacity="0.7"/>
<path d="M81.3503 122.622L74.7295 124.681L76.7894 131.307L83.4101 129.248L81.3503 122.622Z" fill="#69B3EE" fill-opacity="0.7"/>
<path d="M94.5915 118.506L87.9707 120.564L90.0306 127.19L96.6513 125.132L94.5915 118.506Z" fill="#69B3EE" fill-opacity="0.7"/>
<path d="M10.5807 151.889L3.95996 153.947L6.01983 160.573L12.6406 158.515L10.5807 151.889Z" fill="#69B3EE" fill-opacity="0.7"/>
<path d="M23.8229 147.773L17.2021 149.831L19.262 156.457L25.8828 154.399L23.8229 147.773Z" fill="#69B3EE" fill-opacity="0.7"/>
<path d="M37.0641 143.656L30.4434 145.714L32.5032 152.34L39.124 150.282L37.0641 143.656Z" fill="#69B3EE" fill-opacity="0.7"/>
<path d="M50.3063 139.54L43.6855 141.598L45.7454 148.224L52.3662 146.166L50.3063 139.54Z" fill="#69B3EE" fill-opacity="0.7"/>
<path d="M63.5475 135.423L56.9268 137.481L58.9866 144.107L65.6074 142.049L63.5475 135.423Z" fill="#69B3EE" fill-opacity="0.7"/>
<path d="M76.7887 131.306L70.168 133.365L72.2278 139.991L78.8486 137.932L76.7887 131.306Z" fill="#69B3EE" fill-opacity="0.7"/>
<path d="M90.0309 127.19L83.4102 129.249L85.47 135.875L92.0908 133.816L90.0309 127.19Z" fill="#69B3EE" fill-opacity="0.7"/>
<path d="M103.272 123.074L96.6514 125.132L98.7112 131.758L105.332 129.7L103.272 123.074Z" fill="#69B3EE" fill-opacity="0.7"/>
<path d="M6.02019 160.574L-0.600586 162.632L1.45928 169.258L8.08006 167.2L6.02019 160.574Z" fill="#69B3EE" fill-opacity="0.7"/>
<path d="M19.2614 156.457L12.6406 158.515L14.7005 165.141L21.3213 163.083L19.2614 156.457Z" fill="#69B3EE" fill-opacity="0.7"/>
<path d="M32.5036 152.34L25.8828 154.398L27.9427 161.024L34.5635 158.966L32.5036 152.34Z" fill="#69B3EE" fill-opacity="0.7"/>
<path d="M45.7448 148.224L39.124 150.282L41.1839 156.908L47.8047 154.85L45.7448 148.224Z" fill="#69B3EE" fill-opacity="0.7"/>
<path d="M58.987 144.107L52.3662 146.166L54.4261 152.792L61.0469 150.733L58.987 144.107Z" fill="#69B3EE" fill-opacity="0.7"/>
<path d="M72.2282 139.991L65.6074 142.049L67.6673 148.675L74.2881 146.617L72.2282 139.991Z" fill="#69B3EE" fill-opacity="0.7"/>
<path d="M85.4694 135.874L78.8486 137.933L80.9085 144.559L87.5293 142.5L85.4694 135.874Z" fill="#69B3EE" fill-opacity="0.7"/>
<path d="M98.7116 131.758L92.0908 133.816L94.1507 140.442L100.771 138.384L98.7116 131.758Z" fill="#69B3EE" fill-opacity="0.7"/>
<path d="M1.45965 169.258L-5.16113 171.316L-3.10127 177.942L3.51951 175.884L1.45965 169.258Z" fill="#69B3EE" fill-opacity="0.7"/>
<path d="M14.7009 165.141L8.08008 167.199L10.1399 173.825L16.7607 171.767L14.7009 165.141Z" fill="#69B3EE" fill-opacity="0.7"/>
<path d="M27.9421 161.025L21.3213 163.083L23.3812 169.709L30.0019 167.651L27.9421 161.025Z" fill="#69B3EE" fill-opacity="0.7"/>
<path d="M41.1843 156.908L34.5635 158.966L36.6233 165.592L43.2441 163.534L41.1843 156.908Z" fill="#69B3EE" fill-opacity="0.7"/>
<path d="M54.4255 152.792L47.8047 154.85L49.8646 161.476L56.4853 159.418L54.4255 152.792Z" fill="#69B3EE" fill-opacity="0.7"/>
<path d="M67.6677 148.675L61.0469 150.733L63.1067 157.359L69.7275 155.301L67.6677 148.675Z" fill="#69B3EE" fill-opacity="0.7"/>
<path d="M80.9089 144.558L74.2881 146.617L76.348 153.243L82.9687 151.184L80.9089 144.558Z" fill="#69B3EE" fill-opacity="0.7"/>
<path d="M94.1501 140.442L87.5293 142.5L89.5892 149.126L96.2099 147.068L94.1501 140.442Z" fill="#69B3EE" fill-opacity="0.7"/>
<path d="M10.1403 173.826L3.51953 175.884L5.5794 182.51L12.2002 180.452L10.1403 173.826Z" fill="#69B3EE" fill-opacity="0.7"/>
<path d="M23.3815 169.709L16.7607 171.767L18.8206 178.393L25.4414 176.335L23.3815 169.709Z" fill="#69B3EE" fill-opacity="0.7"/>
<path d="M36.6227 165.592L30.002 167.65L32.0618 174.276L38.6826 172.218L36.6227 165.592Z" fill="#69B3EE" fill-opacity="0.7"/>
<path d="M49.8649 161.476L43.2441 163.534L45.304 170.16L51.9248 168.102L49.8649 161.476Z" fill="#69B3EE" fill-opacity="0.7"/>
<path d="M63.1061 157.359L56.4854 159.417L58.5452 166.043L65.166 163.985L63.1061 157.359Z" fill="#69B3EE" fill-opacity="0.7"/>
<path d="M76.3483 153.243L69.7275 155.301L71.7874 161.927L78.4082 159.869L76.3483 153.243Z" fill="#69B3EE" fill-opacity="0.7"/>
<path d="M89.5895 149.126L82.9688 151.185L85.0286 157.811L91.6494 155.752L89.5895 149.126Z" fill="#69B3EE" fill-opacity="0.7"/>
<path d="M5.57879 182.51L-1.04199 184.568L1.01787 191.194L7.63865 189.136L5.57879 182.51Z" fill="#69B3EE" fill-opacity="0.7"/>
<path d="M18.821 178.393L12.2002 180.451L14.2601 187.077L20.8808 185.019L18.821 178.393Z" fill="#69B3EE" fill-opacity="0.7"/>
<path d="M32.0622 174.277L25.4414 176.335L27.5013 182.961L34.1221 180.903L32.0622 174.277Z" fill="#69B3EE" fill-opacity="0.7"/>
<path d="M45.3034 170.16L38.6826 172.218L40.7425 178.844L47.3633 176.786L45.3034 170.16Z" fill="#69B3EE" fill-opacity="0.7"/>
<path d="M58.5456 166.044L51.9248 168.102L53.9847 174.728L60.6054 172.67L58.5456 166.044Z" fill="#69B3EE" fill-opacity="0.7"/>
<path d="M71.7868 161.927L65.166 163.985L67.2259 170.611L73.8467 168.553L71.7868 161.927Z" fill="#69B3EE" fill-opacity="0.7"/>
<path d="M85.028 157.81L78.4072 159.869L80.4671 166.495L87.0879 164.436L85.028 157.81Z" fill="#69B3EE" fill-opacity="0.7"/>
<path d="M1.01824 191.194L-5.60254 193.252L-3.54267 199.878L3.07811 197.82L1.01824 191.194Z" fill="#69B3EE" fill-opacity="0.7"/>
<path d="M14.2595 187.077L7.63867 189.136L9.69854 195.762L16.3193 193.703L14.2595 187.077Z" fill="#69B3EE" fill-opacity="0.7"/>
<path d="M27.5016 182.961L20.8809 185.019L22.9407 191.645L29.5615 189.587L27.5016 182.961Z" fill="#69B3EE" fill-opacity="0.7"/>
<path d="M40.7428 178.844L34.1221 180.902L36.1819 187.528L42.8027 185.47L40.7428 178.844Z" fill="#69B3EE" fill-opacity="0.7"/>
<path d="M53.9841 174.728L47.3633 176.786L49.4231 183.412L56.0439 181.354L53.9841 174.728Z" fill="#69B3EE" fill-opacity="0.7"/>
<path d="M67.2262 170.611L60.6055 172.669L62.6653 179.295L69.2861 177.237L67.2262 170.611Z" fill="#69B3EE" fill-opacity="0.7"/>
<path d="M80.4675 166.495L73.8467 168.553L75.9065 175.179L82.5273 173.121L80.4675 166.495Z" fill="#69B3EE" fill-opacity="0.7"/>
<path d="M9.6989 195.762L3.07812 197.82L5.13799 204.446L11.7588 202.388L9.6989 195.762Z" fill="#69B3EE" fill-opacity="0.7"/>
<path d="M22.9401 191.645L16.3193 193.703L18.3792 200.329L25 198.271L22.9401 191.645Z" fill="#69B3EE" fill-opacity="0.7"/>
<path d="M36.1823 187.529L29.5615 189.587L31.6214 196.213L38.2422 194.155L36.1823 187.529Z" fill="#69B3EE" fill-opacity="0.7"/>
<path d="M49.4235 183.412L42.8027 185.47L44.8626 192.096L51.4834 190.038L49.4235 183.412Z" fill="#69B3EE" fill-opacity="0.7"/>
<path d="M62.6647 179.296L56.0439 181.354L58.1038 187.98L64.7246 185.922L62.6647 179.296Z" fill="#69B3EE" fill-opacity="0.7"/>
<path d="M75.9069 175.179L69.2861 177.237L71.346 183.863L77.9668 181.805L75.9069 175.179Z" fill="#69B3EE" fill-opacity="0.7"/>
<path d="M5.13836 204.446L-1.48242 206.504L0.577444 213.13L7.19822 211.072L5.13836 204.446Z" fill="#69B3EE" fill-opacity="0.7"/>
<path d="M18.3796 200.329L11.7588 202.388L13.8187 209.014L20.4394 206.955L18.3796 200.329Z" fill="#69B3EE" fill-opacity="0.7"/>
<path d="M31.6208 196.213L25 198.271L27.0599 204.897L33.6806 202.839L31.6208 196.213Z" fill="#69B3EE" fill-opacity="0.7"/>
<path d="M44.863 192.096L38.2422 194.154L40.3021 200.78L46.9228 198.722L44.863 192.096Z" fill="#69B3EE" fill-opacity="0.7"/>
<path d="M58.1042 187.98L51.4834 190.038L53.5433 196.664L60.164 194.606L58.1042 187.98Z" fill="#69B3EE" fill-opacity="0.7"/>
<path d="M71.3454 183.863L64.7246 185.921L66.7845 192.547L73.4053 190.489L71.3454 183.863Z" fill="#69B3EE" fill-opacity="0.7"/>
<path d="M0.576834 213.13L-6.04395 215.188L-3.98408 221.814L2.6367 219.756L0.576834 213.13Z" fill="#69B3EE" fill-opacity="0.7"/>
<path d="M13.819 209.014L7.19824 211.072L9.25811 217.698L15.8789 215.64L13.819 209.014Z" fill="#69B3EE" fill-opacity="0.7"/>
<path d="M27.0602 204.897L20.4395 206.955L22.4993 213.581L29.1201 211.523L27.0602 204.897Z" fill="#69B3EE" fill-opacity="0.7"/>
<path d="M40.3014 200.781L33.6807 202.839L35.7405 209.465L42.3613 207.407L40.3014 200.781Z" fill="#69B3EE" fill-opacity="0.7"/>
<path d="M53.5436 196.664L46.9229 198.722L48.9827 205.348L55.6035 203.29L53.5436 196.664Z" fill="#69B3EE" fill-opacity="0.7"/>
<path d="M66.7848 192.548L60.1641 194.606L62.2239 201.232L68.8447 199.174L66.7848 192.548Z" fill="#69B3EE" fill-opacity="0.7"/>
<path d="M80.0261 188.431L73.4053 190.489L75.4651 197.115L82.0859 195.057L80.0261 188.431Z" fill="#69B3EE" fill-opacity="0.7"/>
<path d="M9.2575 217.698L2.63672 219.756L4.69658 226.382L11.3174 224.324L9.2575 217.698Z" fill="#69B3EE" fill-opacity="0.7"/>
<path d="M22.4997 213.581L15.8789 215.64L17.9388 222.266L24.5596 220.207L22.4997 213.581Z" fill="#69B3EE" fill-opacity="0.7"/>
<path d="M35.7409 209.465L29.1201 211.523L31.18 218.149L37.8008 216.091L35.7409 209.465Z" fill="#69B3EE" fill-opacity="0.7"/>
<path d="M48.9821 205.348L42.3613 207.406L44.4212 214.032L51.042 211.974L48.9821 205.348Z" fill="#69B3EE" fill-opacity="0.7"/>
<path d="M62.2243 201.232L55.6035 203.29L57.6634 209.916L64.2842 207.858L62.2243 201.232Z" fill="#69B3EE" fill-opacity="0.7"/>
<path d="M75.4655 197.115L68.8447 199.173L70.9046 205.799L77.5254 203.741L75.4655 197.115Z" fill="#69B3EE" fill-opacity="0.7"/>
<path d="M88.7067 192.999L82.0859 195.057L84.1458 201.683L90.7666 199.625L88.7067 192.999Z" fill="#69B3EE" fill-opacity="0.7"/>
<path d="M101.949 188.882L95.3281 190.94L97.388 197.566L104.009 195.508L101.949 188.882Z" fill="#69B3EE" fill-opacity="0.7"/>
<path d="M4.69695 226.382L-1.92383 228.44L0.136038 235.066L6.75682 233.008L4.69695 226.382Z" fill="#69B3EE" fill-opacity="0.7"/>
<path d="M17.9382 222.265L11.3174 224.324L13.3772 230.95L19.998 228.891L17.9382 222.265Z" fill="#69B3EE" fill-opacity="0.7"/>
<path d="M31.1803 218.149L24.5596 220.207L26.6194 226.833L33.2402 224.775L31.1803 218.149Z" fill="#69B3EE" fill-opacity="0.7"/>
<path d="M44.4216 214.033L37.8008 216.091L39.8606 222.717L46.4814 220.659L44.4216 214.033Z" fill="#69B3EE" fill-opacity="0.7"/>
<path d="M57.6628 209.916L51.042 211.974L53.1019 218.6L59.7226 216.542L57.6628 209.916Z" fill="#69B3EE" fill-opacity="0.7"/>
<path d="M70.905 205.8L64.2842 207.858L66.344 214.484L72.9648 212.426L70.905 205.8Z" fill="#69B3EE" fill-opacity="0.7"/>
<path d="M84.1462 201.683L77.5254 203.741L79.5853 210.367L86.206 208.309L84.1462 201.683Z" fill="#69B3EE" fill-opacity="0.7"/>
<path d="M97.3874 197.566L90.7666 199.625L92.8265 206.25L99.4472 204.192L97.3874 197.566Z" fill="#69B3EE" fill-opacity="0.7"/>
<path d="M0.135428 235.066L-6.48535 237.125L-4.42549 243.75L2.19529 241.692L0.135428 235.066Z" fill="#69B3EE" fill-opacity="0.7"/>
<path d="M13.3776 230.95L6.75684 233.008L8.8167 239.634L15.4375 237.576L13.3776 230.95Z" fill="#69B3EE" fill-opacity="0.7"/>
<path d="M26.6188 226.833L19.998 228.892L22.0579 235.518L28.6787 233.459L26.6188 226.833Z" fill="#69B3EE" fill-opacity="0.7"/>
<path d="M39.861 222.717L33.2402 224.775L35.3001 231.401L41.9209 229.343L39.861 222.717Z" fill="#69B3EE" fill-opacity="0.7"/>
<path d="M53.1022 218.6L46.4814 220.658L48.5413 227.284L55.1621 225.226L53.1022 218.6Z" fill="#69B3EE" fill-opacity="0.7"/>
<path d="M66.3434 214.484L59.7227 216.542L61.7825 223.168L68.4033 221.11L66.3434 214.484Z" fill="#69B3EE" fill-opacity="0.7"/>
<path d="M79.5856 210.367L72.9648 212.425L75.0247 219.051L81.6455 216.993L79.5856 210.367Z" fill="#69B3EE" fill-opacity="0.7"/>
<path d="M92.8268 206.251L86.2061 208.309L88.2659 214.935L94.8867 212.877L92.8268 206.251Z" fill="#69B3EE" fill-opacity="0.7"/>
<path d="M106.068 202.134L99.4473 204.192L101.507 210.818L108.128 208.76L106.068 202.134Z" fill="#69B3EE" fill-opacity="0.7"/>
<path d="M8.81609 239.634L2.19531 241.692L4.25518 248.318L10.876 246.26L8.81609 239.634Z" fill="#69B3EE" fill-opacity="0.7"/>
<path d="M22.0583 235.517L15.4375 237.576L17.4974 244.202L24.1181 242.143L22.0583 235.517Z" fill="#69B3EE" fill-opacity="0.7"/>
<path d="M35.2995 231.401L28.6787 233.459L30.7386 240.085L37.3594 238.027L35.2995 231.401Z" fill="#69B3EE" fill-opacity="0.7"/>
<path d="M48.5407 227.285L41.9199 229.343L43.9798 235.969L50.6006 233.91L48.5407 227.285Z" fill="#69B3EE" fill-opacity="0.7"/>
<path d="M61.7829 223.168L55.1621 225.226L57.222 231.852L63.8428 229.794L61.7829 223.168Z" fill="#69B3EE" fill-opacity="0.7"/>
<path d="M75.0241 219.052L68.4033 221.11L70.4632 227.736L77.084 225.678L75.0241 219.052Z" fill="#69B3EE" fill-opacity="0.7"/>
<path d="M88.2663 214.935L81.6455 216.993L83.7054 223.619L90.3262 221.561L88.2663 214.935Z" fill="#69B3EE" fill-opacity="0.7"/>
<path d="M101.507 210.818L94.8867 212.876L96.9466 219.502L103.567 217.444L101.507 210.818Z" fill="#69B3EE" fill-opacity="0.7"/>
<path d="M4.25554 248.318L-2.36523 250.376L-0.305368 257.002L6.31541 254.944L4.25554 248.318Z" fill="#69B3EE" fill-opacity="0.7"/>
<path d="M17.4968 244.202L10.876 246.26L12.9358 252.886L19.5566 250.827L17.4968 244.202Z" fill="#69B3EE" fill-opacity="0.7"/>
<path d="M30.7389 240.085L24.1182 242.144L26.178 248.77L32.7988 246.711L30.7389 240.085Z" fill="#69B3EE" fill-opacity="0.7"/>
<path d="M43.9802 235.969L37.3594 238.027L39.4192 244.653L46.04 242.595L43.9802 235.969Z" fill="#69B3EE" fill-opacity="0.7"/>
<path d="M57.2214 231.852L50.6006 233.91L52.6605 240.536L59.2812 238.478L57.2214 231.852Z" fill="#69B3EE" fill-opacity="0.7"/>
<path d="M70.4636 227.736L63.8428 229.794L65.9026 236.42L72.5234 234.362L70.4636 227.736Z" fill="#69B3EE" fill-opacity="0.7"/>
<path d="M83.7048 223.619L77.084 225.677L79.1439 232.303L85.7646 230.245L83.7048 223.619Z" fill="#69B3EE" fill-opacity="0.7"/>
<path d="M96.947 219.503L90.3262 221.561L92.386 228.187L99.0068 226.129L96.947 219.503Z" fill="#69B3EE" fill-opacity="0.7"/>
<path d="M110.188 215.386L103.567 217.444L105.627 224.07L112.248 222.012L110.188 215.386Z" fill="#69B3EE" fill-opacity="0.7"/>
<path d="M26.1774 248.769L19.5566 250.828L21.6165 257.454L28.2373 255.395L26.1774 248.769Z" fill="#69B3EE" fill-opacity="0.7"/>
<path d="M39.4196 244.653L32.7988 246.711L34.8587 253.337L41.4795 251.279L39.4196 244.653Z" fill="#69B3EE" fill-opacity="0.7"/>
<path d="M52.6608 240.536L46.04 242.595L48.0999 249.221L54.7207 247.162L52.6608 240.536Z" fill="#69B3EE" fill-opacity="0.7"/>
<path d="M65.902 236.42L59.2812 238.478L61.3411 245.104L67.9619 243.046L65.902 236.42Z" fill="#69B3EE" fill-opacity="0.7"/>
<path d="M79.1442 232.304L72.5234 234.362L74.5833 240.988L81.2041 238.93L79.1442 232.304Z" fill="#69B3EE" fill-opacity="0.7"/>
<path d="M92.3854 228.187L85.7646 230.245L87.8245 236.871L94.4453 234.813L92.3854 228.187Z" fill="#69B3EE" fill-opacity="0.7"/>
<path d="M105.628 224.07L99.0068 226.128L101.067 232.754L107.687 230.696L105.628 224.07Z" fill="#69B3EE" fill-opacity="0.7"/>
<path d="M118.869 219.954L112.248 222.012L114.308 228.638L120.929 226.58L118.869 219.954Z" fill="#69B3EE" fill-opacity="0.7"/>
<path d="M48.1003 249.221L41.4795 251.279L43.5394 257.905L50.1601 255.847L48.1003 249.221Z" fill="#69B3EE" fill-opacity="0.7"/>
<path d="M61.3415 245.104L54.7207 247.162L56.7806 253.788L63.4013 251.73L61.3415 245.104Z" fill="#69B3EE" fill-opacity="0.7"/>
<path d="M74.5827 240.988L67.9619 243.046L70.0218 249.672L76.6426 247.614L74.5827 240.988Z" fill="#69B3EE" fill-opacity="0.7"/>
<path d="M87.8249 236.871L81.2041 238.929L83.264 245.555L89.8847 243.497L87.8249 236.871Z" fill="#69B3EE" fill-opacity="0.7"/>
<path d="M101.066 232.755L94.4453 234.813L96.5052 241.439L103.126 239.381L101.066 232.755Z" fill="#69B3EE" fill-opacity="0.7"/>
<path d="M114.308 228.638L107.688 230.696L109.747 237.322L116.368 235.264L114.308 228.638Z" fill="#69B3EE" fill-opacity="0.7"/>
<path d="M70.0221 249.672L63.4014 251.73L65.4612 258.356L72.082 256.298L70.0221 249.672Z" fill="#69B3EE" fill-opacity="0.7"/>
<path d="M83.2634 245.556L76.6426 247.614L78.7024 254.24L85.3232 252.181L83.2634 245.556Z" fill="#69B3EE" fill-opacity="0.7"/>
<path d="M96.5055 241.439L89.8848 243.497L91.9446 250.123L98.5654 248.065L96.5055 241.439Z" fill="#69B3EE" fill-opacity="0.7"/>
<path d="M109.747 237.322L103.126 239.38L105.186 246.006L111.807 243.948L109.747 237.322Z" fill="#69B3EE" fill-opacity="0.7"/>
<path d="M105.186 246.007L98.5654 248.065L100.625 254.691L107.246 252.633L105.186 246.007Z" fill="#69B3EE" fill-opacity="0.7"/>
<path d="M118.427 241.89L111.807 243.948L113.867 250.574L120.487 248.516L118.427 241.89Z" fill="#69B3EE" fill-opacity="0.7"/>
</g>
<g clip-path="url(#clip2_4233_49047)">
<path d="M280.582 13.6966L273.933 15.6592L275.897 22.3142L282.547 20.3515L280.582 13.6966Z" fill="#69B3EE" fill-opacity="0.7"/>
<path d="M333.78 -2.00462L327.13 -0.0419922L329.094 6.61298L335.744 4.65035L333.78 -2.00462Z" fill="#69B3EE" fill-opacity="0.7"/>
<path d="M347.079 -5.92943L340.43 -3.9668L342.394 2.68817L349.044 0.725545L347.079 -5.92943Z" fill="#69B3EE" fill-opacity="0.7"/>
<path d="M289.196 18.3889L282.546 20.3516L284.51 27.0065L291.16 25.0439L289.196 18.3889Z" fill="#69B3EE" fill-opacity="0.7"/>
<path d="M329.094 6.61305L322.444 8.57568L324.409 15.2307L331.058 13.268L329.094 6.61305Z" fill="#69B3EE" fill-opacity="0.7"/>
<path d="M342.394 2.68776L335.744 4.65039L337.708 11.3054L344.358 9.34273L342.394 2.68776Z" fill="#69B3EE" fill-opacity="0.7"/>
<path d="M355.694 -1.23753L349.044 0.725098L351.008 7.38007L357.658 5.41744L355.694 -1.23753Z" fill="#69B3EE" fill-opacity="0.7"/>
<path d="M368.993 -5.16234L362.343 -3.19971L364.307 3.45526L370.957 1.49264L368.993 -5.16234Z" fill="#69B3EE" fill-opacity="0.7"/>
<path d="M284.51 27.0066L277.86 28.9692L279.825 35.6242L286.474 33.6616L284.51 27.0066Z" fill="#69B3EE" fill-opacity="0.7"/>
<path d="M297.81 23.0813L291.16 25.0439L293.124 31.6989L299.774 29.7363L297.81 23.0813Z" fill="#69B3EE" fill-opacity="0.7"/>
<path d="M311.11 19.156L304.46 21.1187L306.424 27.7736L313.074 25.811L311.11 19.156Z" fill="#69B3EE" fill-opacity="0.7"/>
<path d="M324.409 15.2307L317.759 17.1934L319.723 23.8483L326.373 21.8857L324.409 15.2307Z" fill="#69B3EE" fill-opacity="0.7"/>
<path d="M337.708 11.3054L331.059 13.2681L333.023 19.923L339.673 17.9604L337.708 11.3054Z" fill="#69B3EE" fill-opacity="0.7"/>
<path d="M351.008 7.38014L344.358 9.34277L346.323 15.9977L352.972 14.0351L351.008 7.38014Z" fill="#69B3EE" fill-opacity="0.7"/>
<path d="M364.307 3.45485L357.657 5.41748L359.621 12.0725L366.271 10.1098L364.307 3.45485Z" fill="#69B3EE" fill-opacity="0.7"/>
<path d="M377.607 -0.470442L370.957 1.49219L372.921 8.14716L379.571 6.18453L377.607 -0.470442Z" fill="#69B3EE" fill-opacity="0.7"/>
<path d="M390.907 -4.39525L384.257 -2.43262L386.221 4.22235L392.871 2.25973L390.907 -4.39525Z" fill="#69B3EE" fill-opacity="0.7"/>
<path d="M404.206 -8.32054L397.557 -6.35791L399.521 0.297061L406.171 -1.66557L404.206 -8.32054Z" fill="#69B3EE" fill-opacity="0.7"/>
<path d="M293.124 31.699L286.475 33.6616L288.439 40.3166L295.089 38.354L293.124 31.699Z" fill="#69B3EE" fill-opacity="0.7"/>
<path d="M306.424 27.7737L299.774 29.7363L301.739 36.3913L308.388 34.4287L306.424 27.7737Z" fill="#69B3EE" fill-opacity="0.7"/>
<path d="M319.723 23.8484L313.073 25.811L315.037 32.466L321.687 30.5034L319.723 23.8484Z" fill="#69B3EE" fill-opacity="0.7"/>
<path d="M333.023 19.9231L326.373 21.8857L328.337 28.5407L334.987 26.5781L333.023 19.9231Z" fill="#69B3EE" fill-opacity="0.7"/>
<path d="M346.323 15.9978L339.673 17.9604L341.637 24.6154L348.287 22.6528L346.323 15.9978Z" fill="#69B3EE" fill-opacity="0.7"/>
<path d="M359.621 12.0725L352.972 14.0352L354.936 20.6901L361.586 18.7275L359.621 12.0725Z" fill="#69B3EE" fill-opacity="0.7"/>
<path d="M372.921 8.14723L366.271 10.1099L368.236 16.7648L374.885 14.8022L372.921 8.14723Z" fill="#69B3EE" fill-opacity="0.7"/>
<path d="M386.221 4.22194L379.571 6.18457L381.535 12.8395L388.185 10.8769L386.221 4.22194Z" fill="#69B3EE" fill-opacity="0.7"/>
<path d="M399.52 0.296648L392.87 2.25928L394.834 8.91425L401.484 6.95162L399.52 0.296648Z" fill="#69B3EE" fill-opacity="0.7"/>
<path d="M412.82 -3.62864L406.17 -1.66602L408.134 4.98896L414.784 3.02633L412.82 -3.62864Z" fill="#69B3EE" fill-opacity="0.7"/>
<path d="M426.119 -7.55345L419.47 -5.59082L421.434 1.06415L428.084 -0.898478L426.119 -7.55345Z" fill="#69B3EE" fill-opacity="0.7"/>
<path d="M221.941 59.9426L215.291 61.9053L217.255 68.5602L223.905 66.5976L221.941 59.9426Z" fill="#69B3EE" fill-opacity="0.7"/>
<path d="M235.241 56.0174L228.591 57.98L230.555 64.635L237.205 62.6723L235.241 56.0174Z" fill="#69B3EE" fill-opacity="0.7"/>
<path d="M248.54 52.0921L241.891 54.0547L243.855 60.7097L250.505 58.747L248.54 52.0921Z" fill="#69B3EE" fill-opacity="0.7"/>
<path d="M301.739 36.3914L295.089 38.354L297.053 45.009L303.703 43.0463L301.739 36.3914Z" fill="#69B3EE" fill-opacity="0.7"/>
<path d="M315.037 32.4661L308.388 34.4287L310.352 41.0837L317.002 39.1211L315.037 32.4661Z" fill="#69B3EE" fill-opacity="0.7"/>
<path d="M328.337 28.5408L321.688 30.5034L323.652 37.1584L330.301 35.1958L328.337 28.5408Z" fill="#69B3EE" fill-opacity="0.7"/>
<path d="M341.637 24.6155L334.987 26.5781L336.951 33.2331L343.601 31.2705L341.637 24.6155Z" fill="#69B3EE" fill-opacity="0.7"/>
<path d="M354.936 20.6902L348.286 22.6528L350.25 29.3078L356.9 27.3452L354.936 20.6902Z" fill="#69B3EE" fill-opacity="0.7"/>
<path d="M368.236 16.7649L361.586 18.7275L363.55 25.3825L370.2 23.4199L368.236 16.7649Z" fill="#69B3EE" fill-opacity="0.7"/>
<path d="M381.535 12.8396L374.886 14.8022L376.85 21.4572L383.5 19.4946L381.535 12.8396Z" fill="#69B3EE" fill-opacity="0.7"/>
<path d="M394.834 8.91432L388.185 10.877L390.149 17.5319L396.798 15.5693L394.834 8.91432Z" fill="#69B3EE" fill-opacity="0.7"/>
<path d="M408.134 4.98903L401.484 6.95166L403.449 13.6066L410.098 11.644L408.134 4.98903Z" fill="#69B3EE" fill-opacity="0.7"/>
<path d="M421.434 1.06374L414.784 3.02637L416.748 9.68134L423.398 7.71871L421.434 1.06374Z" fill="#69B3EE" fill-opacity="0.7"/>
<path d="M434.734 -2.86155L428.084 -0.898926L430.048 5.75605L436.698 3.79342L434.734 -2.86155Z" fill="#69B3EE" fill-opacity="0.7"/>
<path d="M217.255 68.5603L210.605 70.5229L212.57 77.1779L219.219 75.2153L217.255 68.5603Z" fill="#69B3EE" fill-opacity="0.7"/>
<path d="M230.555 64.635L223.905 66.5977L225.869 73.2526L232.519 71.29L230.555 64.635Z" fill="#69B3EE" fill-opacity="0.7"/>
<path d="M243.855 60.7097L237.205 62.6724L239.169 69.3273L245.819 67.3647L243.855 60.7097Z" fill="#69B3EE" fill-opacity="0.7"/>
<path d="M257.154 56.7844L250.504 58.7471L252.468 65.402L259.118 63.4394L257.154 56.7844Z" fill="#69B3EE" fill-opacity="0.7"/>
<path d="M270.453 52.8591L263.804 54.8218L265.768 61.4767L272.418 59.5141L270.453 52.8591Z" fill="#69B3EE" fill-opacity="0.7"/>
<path d="M283.753 48.9343L277.104 50.897L279.068 57.5519L285.717 55.5893L283.753 48.9343Z" fill="#69B3EE" fill-opacity="0.7"/>
<path d="M297.053 45.0091L290.403 46.9717L292.367 53.6267L299.017 51.664L297.053 45.0091Z" fill="#69B3EE" fill-opacity="0.7"/>
<path d="M310.352 41.0838L303.702 43.0464L305.666 49.7014L312.316 47.7387L310.352 41.0838Z" fill="#69B3EE" fill-opacity="0.7"/>
<path d="M323.652 37.1585L317.002 39.1211L318.966 45.7761L325.616 43.8134L323.652 37.1585Z" fill="#69B3EE" fill-opacity="0.7"/>
<path d="M336.952 33.2332L330.302 35.1958L332.266 41.8508L338.916 39.8881L336.952 33.2332Z" fill="#69B3EE" fill-opacity="0.7"/>
<path d="M350.25 29.3079L343.601 31.2705L345.565 37.9255L352.215 35.9629L350.25 29.3079Z" fill="#69B3EE" fill-opacity="0.7"/>
<path d="M363.55 25.3826L356.9 27.3452L358.865 34.0002L365.514 32.0376L363.55 25.3826Z" fill="#69B3EE" fill-opacity="0.7"/>
<path d="M376.85 21.4573L370.2 23.4199L372.164 30.0749L378.814 28.1123L376.85 21.4573Z" fill="#69B3EE" fill-opacity="0.7"/>
<path d="M390.149 17.532L383.499 19.4946L385.463 26.1496L392.113 24.187L390.149 17.532Z" fill="#69B3EE" fill-opacity="0.7"/>
<path d="M403.449 13.6067L396.799 15.5693L398.763 22.2243L405.413 20.2617L403.449 13.6067Z" fill="#69B3EE" fill-opacity="0.7"/>
<path d="M416.748 9.68141L410.099 11.644L412.063 18.299L418.713 16.3364L416.748 9.68141Z" fill="#69B3EE" fill-opacity="0.7"/>
<path d="M430.047 5.75612L423.397 7.71875L425.362 14.3737L432.011 12.4111L430.047 5.75612Z" fill="#69B3EE" fill-opacity="0.7"/>
<path d="M225.869 73.2527L219.22 75.2153L221.184 81.8703L227.834 79.9077L225.869 73.2527Z" fill="#69B3EE" fill-opacity="0.7"/>
<path d="M239.169 69.3274L232.52 71.29L234.484 77.945L241.133 75.9824L239.169 69.3274Z" fill="#69B3EE" fill-opacity="0.7"/>
<path d="M252.468 65.4021L245.818 67.3647L247.783 74.0197L254.432 72.0571L252.468 65.4021Z" fill="#69B3EE" fill-opacity="0.7"/>
<path d="M265.768 61.4768L259.118 63.4395L261.082 70.0944L267.732 68.1318L265.768 61.4768Z" fill="#69B3EE" fill-opacity="0.7"/>
<path d="M279.068 57.5515L272.418 59.5142L274.382 66.1691L281.032 64.2065L279.068 57.5515Z" fill="#69B3EE" fill-opacity="0.7"/>
<path d="M292.368 53.6262L285.718 55.5889L287.682 62.2438L294.332 60.2812L292.368 53.6262Z" fill="#69B3EE" fill-opacity="0.7"/>
<path d="M305.666 49.7014L299.017 51.6641L300.981 58.319L307.631 56.3564L305.666 49.7014Z" fill="#69B3EE" fill-opacity="0.7"/>
<path d="M318.966 45.7761L312.316 47.7388L314.281 54.3937L320.93 52.4311L318.966 45.7761Z" fill="#69B3EE" fill-opacity="0.7"/>
<path d="M332.266 41.8508L325.616 43.8135L327.58 50.4684L334.23 48.5058L332.266 41.8508Z" fill="#69B3EE" fill-opacity="0.7"/>
<path d="M345.565 37.9256L338.915 39.8882L340.879 46.5432L347.529 44.5805L345.565 37.9256Z" fill="#69B3EE" fill-opacity="0.7"/>
<path d="M358.865 34.0003L352.215 35.9629L354.179 42.6179L360.829 40.6552L358.865 34.0003Z" fill="#69B3EE" fill-opacity="0.7"/>
<path d="M372.164 30.075L365.515 32.0376L367.479 38.6926L374.129 36.7299L372.164 30.075Z" fill="#69B3EE" fill-opacity="0.7"/>
<path d="M385.463 26.1497L378.813 28.1123L380.778 34.7673L387.427 32.8046L385.463 26.1497Z" fill="#69B3EE" fill-opacity="0.7"/>
<path d="M398.763 22.2244L392.113 24.187L394.077 30.842L400.727 28.8794L398.763 22.2244Z" fill="#69B3EE" fill-opacity="0.7"/>
<path d="M412.063 18.2991L405.413 20.2617L407.377 26.9167L414.027 24.9541L412.063 18.2991Z" fill="#69B3EE" fill-opacity="0.7"/>
<path d="M425.362 14.3738L418.712 16.3364L420.676 22.9914L427.326 21.0288L425.362 14.3738Z" fill="#69B3EE" fill-opacity="0.7"/>
<path d="M221.184 81.8704L214.534 83.833L216.498 90.488L223.148 88.5254L221.184 81.8704Z" fill="#69B3EE" fill-opacity="0.7"/>
<path d="M234.484 77.9451L227.834 79.9077L229.798 86.5627L236.448 84.6001L234.484 77.9451Z" fill="#69B3EE" fill-opacity="0.7"/>
<path d="M247.783 74.0198L241.133 75.9824L243.097 82.6374L249.747 80.6748L247.783 74.0198Z" fill="#69B3EE" fill-opacity="0.7"/>
<path d="M261.082 70.0945L254.433 72.0571L256.397 78.7121L263.047 76.7495L261.082 70.0945Z" fill="#69B3EE" fill-opacity="0.7"/>
<path d="M274.382 66.1692L267.732 68.1318L269.697 74.7868L276.346 72.8242L274.382 66.1692Z" fill="#69B3EE" fill-opacity="0.7"/>
<path d="M287.681 62.2439L281.031 64.2065L282.995 70.8615L289.645 68.8989L287.681 62.2439Z" fill="#69B3EE" fill-opacity="0.7"/>
<path d="M300.981 58.3186L294.331 60.2812L296.295 66.9362L302.945 64.9736L300.981 58.3186Z" fill="#69B3EE" fill-opacity="0.7"/>
<path d="M314.281 54.3933L307.631 56.356L309.595 63.0109L316.245 61.0483L314.281 54.3933Z" fill="#69B3EE" fill-opacity="0.7"/>
<path d="M327.58 50.4685L320.931 52.4312L322.895 59.0861L329.545 57.1235L327.58 50.4685Z" fill="#69B3EE" fill-opacity="0.7"/>
<path d="M340.879 46.5432L334.229 48.5059L336.194 55.1608L342.843 53.1982L340.879 46.5432Z" fill="#69B3EE" fill-opacity="0.7"/>
<path d="M354.179 42.6179L347.529 44.5806L349.493 51.2355L356.143 49.2729L354.179 42.6179Z" fill="#69B3EE" fill-opacity="0.7"/>
<path d="M367.479 38.6926L360.829 40.6553L362.793 47.3102L369.443 45.3476L367.479 38.6926Z" fill="#69B3EE" fill-opacity="0.7"/>
<path d="M380.778 34.7674L374.128 36.73L376.092 43.385L382.742 41.4223L380.778 34.7674Z" fill="#69B3EE" fill-opacity="0.7"/>
<path d="M394.077 30.8421L387.428 32.8047L389.392 39.4597L396.042 37.497L394.077 30.8421Z" fill="#69B3EE" fill-opacity="0.7"/>
<path d="M407.377 26.9168L400.728 28.8794L402.692 35.5344L409.341 33.5717L407.377 26.9168Z" fill="#69B3EE" fill-opacity="0.7"/>
<path d="M420.676 22.9915L414.026 24.9541L415.991 31.6091L422.64 29.6464L420.676 22.9915Z" fill="#69B3EE" fill-opacity="0.7"/>
<path d="M433.976 19.0662L427.326 21.0288L429.29 27.6838L435.94 25.7212L433.976 19.0662Z" fill="#69B3EE" fill-opacity="0.7"/>
<path d="M229.798 86.5628L223.148 88.5254L225.113 95.1804L231.762 93.2177L229.798 86.5628Z" fill="#69B3EE" fill-opacity="0.7"/>
<path d="M243.097 82.6375L236.447 84.6001L238.411 91.2551L245.061 89.2924L243.097 82.6375Z" fill="#69B3EE" fill-opacity="0.7"/>
<path d="M256.397 78.7122L249.747 80.6748L251.711 87.3298L258.361 85.3671L256.397 78.7122Z" fill="#69B3EE" fill-opacity="0.7"/>
<path d="M269.697 74.7869L263.047 76.7495L265.011 83.4045L271.661 81.4419L269.697 74.7869Z" fill="#69B3EE" fill-opacity="0.7"/>
<path d="M282.995 70.8616L276.346 72.8242L278.31 79.4792L284.96 77.5166L282.995 70.8616Z" fill="#69B3EE" fill-opacity="0.7"/>
<path d="M296.295 66.9363L289.646 68.8989L291.61 75.5539L298.259 73.5913L296.295 66.9363Z" fill="#69B3EE" fill-opacity="0.7"/>
<path d="M309.595 63.011L302.945 64.9736L304.909 71.6286L311.559 69.666L309.595 63.011Z" fill="#69B3EE" fill-opacity="0.7"/>
<path d="M322.895 59.0857L316.245 61.0483L318.209 67.7033L324.859 65.7407L322.895 59.0857Z" fill="#69B3EE" fill-opacity="0.7"/>
<path d="M336.194 55.1604L329.544 57.123L331.508 63.778L338.158 61.8154L336.194 55.1604Z" fill="#69B3EE" fill-opacity="0.7"/>
<path d="M349.494 51.2356L342.844 53.1982L344.808 59.8532L351.458 57.8906L349.494 51.2356Z" fill="#69B3EE" fill-opacity="0.7"/>
<path d="M362.793 47.3103L356.144 49.2729L358.108 55.9279L364.757 53.9653L362.793 47.3103Z" fill="#69B3EE" fill-opacity="0.7"/>
<path d="M376.092 43.385L369.442 45.3477L371.407 52.0026L378.056 50.04L376.092 43.385Z" fill="#69B3EE" fill-opacity="0.7"/>
<path d="M389.392 39.4597L382.742 41.4224L384.706 48.0773L391.356 46.1147L389.392 39.4597Z" fill="#69B3EE" fill-opacity="0.7"/>
<path d="M402.692 35.5344L396.042 37.4971L398.006 44.152L404.656 42.1894L402.692 35.5344Z" fill="#69B3EE" fill-opacity="0.7"/>
<path d="M415.991 31.6091L409.341 33.5718L411.305 40.2267L417.955 38.2641L415.991 31.6091Z" fill="#69B3EE" fill-opacity="0.7"/>
<path d="M429.29 27.6839L422.641 29.6465L424.605 36.3015L431.255 34.3388L429.29 27.6839Z" fill="#69B3EE" fill-opacity="0.7"/>
<path d="M251.711 87.3299L245.062 89.2925L247.026 95.9475L253.675 93.9848L251.711 87.3299Z" fill="#69B3EE" fill-opacity="0.7"/>
<path d="M265.011 83.4046L258.361 85.3672L260.325 92.0222L266.975 90.0595L265.011 83.4046Z" fill="#69B3EE" fill-opacity="0.7"/>
<path d="M278.31 79.4793L271.66 81.4419L273.624 88.0969L280.274 86.1342L278.31 79.4793Z" fill="#69B3EE" fill-opacity="0.7"/>
<path d="M291.61 75.554L284.96 77.5166L286.924 84.1716L293.574 82.2089L291.61 75.554Z" fill="#69B3EE" fill-opacity="0.7"/>
<path d="M304.91 71.6287L298.26 73.5913L300.224 80.2463L306.874 78.2837L304.91 71.6287Z" fill="#69B3EE" fill-opacity="0.7"/>
<path d="M318.208 67.7034L311.559 69.666L313.523 76.321L320.173 74.3584L318.208 67.7034Z" fill="#69B3EE" fill-opacity="0.7"/>
<path d="M331.508 63.7781L324.858 65.7407L326.823 72.3957L333.472 70.4331L331.508 63.7781Z" fill="#69B3EE" fill-opacity="0.7"/>
<path d="M344.808 59.8528L338.158 61.8154L340.122 68.4704L346.772 66.5078L344.808 59.8528Z" fill="#69B3EE" fill-opacity="0.7"/>
<path d="M358.108 55.9275L351.458 57.8901L353.422 64.5451L360.072 62.5825L358.108 55.9275Z" fill="#69B3EE" fill-opacity="0.7"/>
<path d="M371.407 52.0022L364.757 53.9648L366.721 60.6198L373.371 58.6572L371.407 52.0022Z" fill="#69B3EE" fill-opacity="0.7"/>
<path d="M384.706 48.0774L378.057 50.04L380.021 56.695L386.671 54.7324L384.706 48.0774Z" fill="#69B3EE" fill-opacity="0.7"/>
<path d="M398.006 44.1521L391.356 46.1147L393.321 52.7697L399.97 50.8071L398.006 44.1521Z" fill="#69B3EE" fill-opacity="0.7"/>
<path d="M411.305 40.2268L404.655 42.1895L406.619 48.8444L413.269 46.8818L411.305 40.2268Z" fill="#69B3EE" fill-opacity="0.7"/>
<path d="M424.605 36.3015L417.955 38.2642L419.919 44.9191L426.569 42.9565L424.605 36.3015Z" fill="#69B3EE" fill-opacity="0.7"/>
<path d="M260.326 92.0222L253.676 93.9849L255.64 100.64L262.29 98.6772L260.326 92.0222Z" fill="#69B3EE" fill-opacity="0.7"/>
<path d="M273.624 88.0969L266.975 90.0596L268.939 96.7145L275.589 94.7519L273.624 88.0969Z" fill="#69B3EE" fill-opacity="0.7"/>
<path d="M286.924 84.1716L280.274 86.1343L282.239 92.7892L288.888 90.8266L286.924 84.1716Z" fill="#69B3EE" fill-opacity="0.7"/>
<path d="M300.224 80.2464L293.574 82.209L295.538 88.864L302.188 86.9013L300.224 80.2464Z" fill="#69B3EE" fill-opacity="0.7"/>
<path d="M313.523 76.3211L306.873 78.2837L308.837 84.9387L315.487 82.976L313.523 76.3211Z" fill="#69B3EE" fill-opacity="0.7"/>
<path d="M326.823 72.3958L320.173 74.3584L322.137 81.0134L328.787 79.0507L326.823 72.3958Z" fill="#69B3EE" fill-opacity="0.7"/>
<path d="M340.122 68.4705L333.473 70.4331L335.437 77.0881L342.087 75.1254L340.122 68.4705Z" fill="#69B3EE" fill-opacity="0.7"/>
<path d="M353.422 64.5452L346.772 66.5078L348.737 73.1628L355.386 71.2002L353.422 64.5452Z" fill="#69B3EE" fill-opacity="0.7"/>
<path d="M366.721 60.6199L360.071 62.5825L362.035 69.2375L368.685 67.2749L366.721 60.6199Z" fill="#69B3EE" fill-opacity="0.7"/>
<path d="M380.021 56.6946L373.371 58.6572L375.335 65.3122L381.985 63.3496L380.021 56.6946Z" fill="#69B3EE" fill-opacity="0.7"/>
<path d="M393.321 52.7693L386.671 54.7319L388.635 61.3869L395.285 59.4243L393.321 52.7693Z" fill="#69B3EE" fill-opacity="0.7"/>
<path d="M406.619 48.8445L399.97 50.8071L401.934 57.4621L408.584 55.4995L406.619 48.8445Z" fill="#69B3EE" fill-opacity="0.7"/>
<path d="M419.919 44.9192L413.27 46.8818L415.234 53.5368L421.883 51.5742L419.919 44.9192Z" fill="#69B3EE" fill-opacity="0.7"/>
<path d="M433.219 40.9939L426.569 42.9565L428.534 49.6115L435.183 47.6489L433.219 40.9939Z" fill="#69B3EE" fill-opacity="0.7"/>
<path d="M282.239 92.7893L275.589 94.752L277.553 101.407L284.203 99.4443L282.239 92.7893Z" fill="#69B3EE" fill-opacity="0.7"/>
<path d="M295.538 88.864L288.889 90.8267L290.853 97.4816L297.503 95.519L295.538 88.864Z" fill="#69B3EE" fill-opacity="0.7"/>
<path d="M308.837 84.9387L302.188 86.9014L304.152 93.5563L310.801 91.5937L308.837 84.9387Z" fill="#69B3EE" fill-opacity="0.7"/>
<path d="M322.137 81.0134L315.487 82.9761L317.451 89.631L324.101 87.6684L322.137 81.0134Z" fill="#69B3EE" fill-opacity="0.7"/>
<path d="M335.437 77.0882L328.787 79.0508L330.751 85.7058L337.401 83.7431L335.437 77.0882Z" fill="#69B3EE" fill-opacity="0.7"/>
<path d="M348.736 73.1629L342.086 75.1255L344.05 81.7805L350.7 79.8178L348.736 73.1629Z" fill="#69B3EE" fill-opacity="0.7"/>
<path d="M362.035 69.2376L355.386 71.2002L357.35 77.8552L364 75.8925L362.035 69.2376Z" fill="#69B3EE" fill-opacity="0.7"/>
<path d="M375.335 65.3123L368.686 67.2749L370.65 73.9299L377.299 71.9672L375.335 65.3123Z" fill="#69B3EE" fill-opacity="0.7"/>
<path d="M388.635 61.387L381.985 63.3496L383.95 70.0046L390.599 68.042L388.635 61.387Z" fill="#69B3EE" fill-opacity="0.7"/>
<path d="M401.934 57.4617L395.284 59.4243L397.248 66.0793L403.898 64.1167L401.934 57.4617Z" fill="#69B3EE" fill-opacity="0.7"/>
<path d="M415.234 53.5364L408.584 55.499L410.548 62.154L417.198 60.1914L415.234 53.5364Z" fill="#69B3EE" fill-opacity="0.7"/>
<path d="M428.534 49.6116L421.884 51.5742L423.848 58.2292L430.498 56.2666L428.534 49.6116Z" fill="#69B3EE" fill-opacity="0.7"/>
<path d="M290.853 97.4817L284.203 99.4443L286.167 106.099L292.817 104.137L290.853 97.4817Z" fill="#69B3EE" fill-opacity="0.7"/>
<path d="M304.152 93.5564L297.502 95.519L299.466 102.174L306.116 100.211L304.152 93.5564Z" fill="#69B3EE" fill-opacity="0.7"/>
<path d="M317.452 89.6311L310.802 91.5938L312.766 98.2487L319.416 96.2861L317.452 89.6311Z" fill="#69B3EE" fill-opacity="0.7"/>
<path d="M330.751 85.7058L324.102 87.6685L326.066 94.3234L332.715 92.3608L330.751 85.7058Z" fill="#69B3EE" fill-opacity="0.7"/>
<path d="M344.05 81.7805L337.4 83.7432L339.365 90.3981L346.014 88.4355L344.05 81.7805Z" fill="#69B3EE" fill-opacity="0.7"/>
<path d="M357.35 77.8552L350.7 79.8179L352.664 86.4728L359.314 84.5102L357.35 77.8552Z" fill="#69B3EE" fill-opacity="0.7"/>
<path d="M370.65 73.9299L364 75.8926L365.964 82.5475L372.614 80.5849L370.65 73.9299Z" fill="#69B3EE" fill-opacity="0.7"/>
<path d="M383.95 70.0047L377.3 71.9673L379.264 78.6223L385.914 76.6596L383.95 70.0047Z" fill="#69B3EE" fill-opacity="0.7"/>
<path d="M397.248 66.0794L390.599 68.042L392.563 74.697L399.213 72.7343L397.248 66.0794Z" fill="#69B3EE" fill-opacity="0.7"/>
<path d="M410.548 62.1541L403.898 64.1167L405.863 70.7717L412.512 68.809L410.548 62.1541Z" fill="#69B3EE" fill-opacity="0.7"/>
<path d="M423.848 58.2288L417.198 60.1914L419.162 66.8464L425.812 64.8837L423.848 58.2288Z" fill="#69B3EE" fill-opacity="0.7"/>
<path d="M299.466 102.174L292.816 104.137L294.781 110.792L301.43 108.829L299.466 102.174Z" fill="#69B3EE" fill-opacity="0.7"/>
<path d="M312.766 98.2488L306.116 100.211L308.08 106.866L314.73 104.904L312.766 98.2488Z" fill="#69B3EE" fill-opacity="0.7"/>
<path d="M326.066 94.3235L319.416 96.2861L321.38 102.941L328.03 100.978L326.066 94.3235Z" fill="#69B3EE" fill-opacity="0.7"/>
<path d="M339.365 90.3982L332.715 92.3608L334.679 99.0158L341.329 97.0532L339.365 90.3982Z" fill="#69B3EE" fill-opacity="0.7"/>
<path d="M352.664 86.4729L346.015 88.4355L347.979 95.0905L354.629 93.1279L352.664 86.4729Z" fill="#69B3EE" fill-opacity="0.7"/>
<path d="M365.964 82.5476L359.314 84.5103L361.279 91.1652L367.928 89.2026L365.964 82.5476Z" fill="#69B3EE" fill-opacity="0.7"/>
<path d="M379.264 78.6223L372.614 80.585L374.578 87.2399L381.228 85.2773L379.264 78.6223Z" fill="#69B3EE" fill-opacity="0.7"/>
<path d="M392.563 74.697L385.913 76.6597L387.877 83.3146L394.527 81.352L392.563 74.697Z" fill="#69B3EE" fill-opacity="0.7"/>
<path d="M405.863 70.7717L399.213 72.7344L401.177 79.3893L407.827 77.4267L405.863 70.7717Z" fill="#69B3EE" fill-opacity="0.7"/>
<path d="M419.162 66.8465L412.513 68.8091L414.477 75.4641L421.127 73.5014L419.162 66.8465Z" fill="#69B3EE" fill-opacity="0.7"/>
<path d="M432.461 62.9212L425.812 64.8838L427.776 71.5388L434.425 69.5761L432.461 62.9212Z" fill="#69B3EE" fill-opacity="0.7"/>
<path d="M294.781 110.791L288.131 112.754L290.095 119.409L296.745 117.446L294.781 110.791Z" fill="#69B3EE" fill-opacity="0.7"/>
<path d="M308.08 106.866L301.431 108.829L303.395 115.484L310.045 113.521L308.08 106.866Z" fill="#69B3EE" fill-opacity="0.7"/>
<path d="M321.38 102.941L314.73 104.904L316.695 111.559L323.344 109.596L321.38 102.941Z" fill="#69B3EE" fill-opacity="0.7"/>
<path d="M334.679 99.0159L328.029 100.979L329.993 107.633L336.643 105.671L334.679 99.0159Z" fill="#69B3EE" fill-opacity="0.7"/>
<path d="M347.979 95.0906L341.329 97.0532L343.293 103.708L349.943 101.746L347.979 95.0906Z" fill="#69B3EE" fill-opacity="0.7"/>
<path d="M361.279 91.1653L354.629 93.1279L356.593 99.7829L363.243 97.8203L361.279 91.1653Z" fill="#69B3EE" fill-opacity="0.7"/>
<path d="M374.577 87.24L367.928 89.2026L369.892 95.8576L376.542 93.895L374.577 87.24Z" fill="#69B3EE" fill-opacity="0.7"/>
<path d="M387.877 83.3147L381.228 85.2773L383.192 91.9323L389.841 89.9697L387.877 83.3147Z" fill="#69B3EE" fill-opacity="0.7"/>
<path d="M401.177 79.3894L394.527 81.3521L396.492 88.007L403.141 86.0444L401.177 79.3894Z" fill="#69B3EE" fill-opacity="0.7"/>
<path d="M414.477 75.4641L407.827 77.4268L409.791 84.0817L416.441 82.1191L414.477 75.4641Z" fill="#69B3EE" fill-opacity="0.7"/>
<path d="M427.776 71.5388L421.126 73.5015L423.09 80.1564L429.74 78.1938L427.776 71.5388Z" fill="#69B3EE" fill-opacity="0.7"/>
<path d="M303.395 115.484L296.745 117.446L298.709 124.101L305.359 122.139L303.395 115.484Z" fill="#69B3EE" fill-opacity="0.7"/>
<path d="M316.695 111.558L310.045 113.521L312.009 120.176L318.659 118.213L316.695 111.558Z" fill="#69B3EE" fill-opacity="0.7"/>
<path d="M329.994 107.633L323.344 109.596L325.308 116.251L331.958 114.288L329.994 107.633Z" fill="#69B3EE" fill-opacity="0.7"/>
<path d="M343.293 103.708L336.644 105.671L338.608 112.326L345.257 110.363L343.293 103.708Z" fill="#69B3EE" fill-opacity="0.7"/>
<path d="M356.593 99.783L349.943 101.746L351.908 108.401L358.557 106.438L356.593 99.783Z" fill="#69B3EE" fill-opacity="0.7"/>
<path d="M369.892 95.8577L363.242 97.8203L365.206 104.475L371.856 102.513L369.892 95.8577Z" fill="#69B3EE" fill-opacity="0.7"/>
<path d="M383.192 91.9324L376.542 93.895L378.506 100.55L385.156 98.5874L383.192 91.9324Z" fill="#69B3EE" fill-opacity="0.7"/>
<path d="M396.492 88.0071L389.842 89.9697L391.806 96.6247L398.456 94.6621L396.492 88.0071Z" fill="#69B3EE" fill-opacity="0.7"/>
<path d="M409.791 84.0818L403.142 86.0444L405.106 92.6994L411.756 90.7368L409.791 84.0818Z" fill="#69B3EE" fill-opacity="0.7"/>
<path d="M423.09 80.1565L416.44 82.1191L418.405 88.7741L425.054 86.8115L423.09 80.1565Z" fill="#69B3EE" fill-opacity="0.7"/>
<path d="M436.39 76.2312L429.74 78.1938L431.704 84.8488L438.354 82.8862L436.39 76.2312Z" fill="#69B3EE" fill-opacity="0.7"/>
<path d="M298.709 124.101L292.06 126.064L294.024 132.719L300.673 130.756L298.709 124.101Z" fill="#69B3EE" fill-opacity="0.7"/>
<path d="M312.009 120.176L305.359 122.139L307.324 128.794L313.973 126.831L312.009 120.176Z" fill="#69B3EE" fill-opacity="0.7"/>
<path d="M325.308 116.251L318.658 118.213L320.622 124.868L327.272 122.906L325.308 116.251Z" fill="#69B3EE" fill-opacity="0.7"/>
<path d="M338.608 112.325L331.958 114.288L333.922 120.943L340.572 118.98L338.608 112.325Z" fill="#69B3EE" fill-opacity="0.7"/>
<path d="M351.908 108.4L345.258 110.363L347.222 117.018L353.872 115.055L351.908 108.4Z" fill="#69B3EE" fill-opacity="0.7"/>
<path d="M365.206 104.475L358.557 106.438L360.521 113.093L367.171 111.13L365.206 104.475Z" fill="#69B3EE" fill-opacity="0.7"/>
<path d="M378.506 100.55L371.856 102.513L373.821 109.168L380.47 107.205L378.506 100.55Z" fill="#69B3EE" fill-opacity="0.7"/>
<path d="M391.806 96.6248L385.156 98.5874L387.12 105.242L393.77 103.28L391.806 96.6248Z" fill="#69B3EE" fill-opacity="0.7"/>
<path d="M405.105 92.6995L398.455 94.6621L400.419 101.317L407.069 99.3545L405.105 92.6995Z" fill="#69B3EE" fill-opacity="0.7"/>
<path d="M418.405 88.7742L411.755 90.7368L413.719 97.3918L420.369 95.4292L418.405 88.7742Z" fill="#69B3EE" fill-opacity="0.7"/>
<path d="M431.704 84.8489L425.055 86.8115L427.019 93.4665L433.669 91.5039L431.704 84.8489Z" fill="#69B3EE" fill-opacity="0.7"/>
<path d="M307.324 128.794L300.674 130.756L302.638 137.411L309.288 135.449L307.324 128.794Z" fill="#69B3EE" fill-opacity="0.7"/>
<path d="M320.622 124.868L313.973 126.831L315.937 133.486L322.587 131.523L320.622 124.868Z" fill="#69B3EE" fill-opacity="0.7"/>
<path d="M333.922 120.943L327.272 122.906L329.237 129.561L335.886 127.598L333.922 120.943Z" fill="#69B3EE" fill-opacity="0.7"/>
<path d="M347.222 117.018L340.572 118.98L342.536 125.635L349.186 123.673L347.222 117.018Z" fill="#69B3EE" fill-opacity="0.7"/>
<path d="M360.521 113.093L353.871 115.055L355.835 121.71L362.485 119.748L360.521 113.093Z" fill="#69B3EE" fill-opacity="0.7"/>
<path d="M373.821 109.167L367.171 111.13L369.135 117.785L375.785 115.822L373.821 109.167Z" fill="#69B3EE" fill-opacity="0.7"/>
<path d="M387.12 105.242L380.471 107.205L382.435 113.86L389.085 111.897L387.12 105.242Z" fill="#69B3EE" fill-opacity="0.7"/>
<path d="M400.419 101.317L393.77 103.28L395.734 109.935L402.383 107.972L400.419 101.317Z" fill="#69B3EE" fill-opacity="0.7"/>
<path d="M413.719 97.3919L407.069 99.3545L409.034 106.009L415.683 104.047L413.719 97.3919Z" fill="#69B3EE" fill-opacity="0.7"/>
<path d="M427.019 93.4666L420.369 95.4292L422.333 102.084L428.983 100.122L427.019 93.4666Z" fill="#69B3EE" fill-opacity="0.7"/>
<path d="M315.937 133.486L309.287 135.449L311.251 142.104L317.901 140.141L315.937 133.486Z" fill="#69B3EE" fill-opacity="0.7"/>
<path d="M329.237 129.561L322.587 131.523L324.551 138.178L331.201 136.216L329.237 129.561Z" fill="#69B3EE" fill-opacity="0.7"/>
<path d="M342.536 125.636L335.887 127.598L337.851 134.253L344.501 132.29L342.536 125.636Z" fill="#69B3EE" fill-opacity="0.7"/>
<path d="M355.835 121.71L349.186 123.673L351.15 130.328L357.799 128.365L355.835 121.71Z" fill="#69B3EE" fill-opacity="0.7"/>
<path d="M369.135 117.785L362.485 119.748L364.45 126.403L371.099 124.44L369.135 117.785Z" fill="#69B3EE" fill-opacity="0.7"/>
<path d="M382.435 113.86L375.785 115.822L377.749 122.477L384.399 120.515L382.435 113.86Z" fill="#69B3EE" fill-opacity="0.7"/>
<path d="M395.734 109.934L389.084 111.897L391.048 118.552L397.698 116.589L395.734 109.934Z" fill="#69B3EE" fill-opacity="0.7"/>
<path d="M409.034 106.01L402.384 107.972L404.348 114.627L410.998 112.665L409.034 106.01Z" fill="#69B3EE" fill-opacity="0.7"/>
<path d="M422.333 102.084L415.684 104.047L417.648 110.702L424.298 108.739L422.333 102.084Z" fill="#69B3EE" fill-opacity="0.7"/>
<path d="M435.632 98.159L428.982 100.122L430.947 106.777L437.596 104.814L435.632 98.159Z" fill="#69B3EE" fill-opacity="0.7"/>
<path d="M324.551 138.178L317.901 140.141L319.866 146.796L326.515 144.833L324.551 138.178Z" fill="#69B3EE" fill-opacity="0.7"/>
<path d="M337.851 134.253L331.201 136.216L333.165 142.871L339.815 140.908L337.851 134.253Z" fill="#69B3EE" fill-opacity="0.7"/>
<path d="M351.15 130.328L344.5 132.291L346.464 138.945L353.114 136.983L351.15 130.328Z" fill="#69B3EE" fill-opacity="0.7"/>
<path d="M364.45 126.403L357.8 128.365L359.764 135.02L366.414 133.058L364.45 126.403Z" fill="#69B3EE" fill-opacity="0.7"/>
<path d="M377.749 122.477L371.1 124.44L373.064 131.095L379.714 129.132L377.749 122.477Z" fill="#69B3EE" fill-opacity="0.7"/>
<path d="M391.048 118.552L384.398 120.515L386.363 127.17L393.012 125.207L391.048 118.552Z" fill="#69B3EE" fill-opacity="0.7"/>
<path d="M404.348 114.627L397.698 116.589L399.662 123.244L406.312 121.282L404.348 114.627Z" fill="#69B3EE" fill-opacity="0.7"/>
<path d="M417.648 110.701L410.998 112.664L412.962 119.319L419.612 117.356L417.648 110.701Z" fill="#69B3EE" fill-opacity="0.7"/>
<path d="M430.947 106.777L424.297 108.739L426.261 115.394L432.911 113.432L430.947 106.777Z" fill="#69B3EE" fill-opacity="0.7"/>
<path d="M319.866 146.796L313.216 148.759L315.18 155.414L321.83 153.451L319.866 146.796Z" fill="#69B3EE" fill-opacity="0.7"/>
<path d="M333.165 142.871L326.516 144.833L328.48 151.488L335.13 149.526L333.165 142.871Z" fill="#69B3EE" fill-opacity="0.7"/>
<path d="M346.464 138.946L339.814 140.908L341.779 147.563L348.428 145.601L346.464 138.946Z" fill="#69B3EE" fill-opacity="0.7"/>
<path d="M359.764 135.02L353.114 136.983L355.078 143.638L361.728 141.675L359.764 135.02Z" fill="#69B3EE" fill-opacity="0.7"/>
<path d="M373.064 131.095L366.414 133.058L368.378 139.713L375.028 137.75L373.064 131.095Z" fill="#69B3EE" fill-opacity="0.7"/>
<path d="M386.363 127.17L379.713 129.132L381.677 135.787L388.327 133.825L386.363 127.17Z" fill="#69B3EE" fill-opacity="0.7"/>
<path d="M399.662 123.244L393.013 125.207L394.977 131.862L401.627 129.899L399.662 123.244Z" fill="#69B3EE" fill-opacity="0.7"/>
<path d="M412.962 119.319L406.312 121.282L408.277 127.937L414.926 125.974L412.962 119.319Z" fill="#69B3EE" fill-opacity="0.7"/>
<path d="M426.261 115.394L419.611 117.356L421.575 124.011L428.225 122.049L426.261 115.394Z" fill="#69B3EE" fill-opacity="0.7"/>
<path d="M328.48 151.489L321.83 153.451L323.794 160.106L330.444 158.144L328.48 151.489Z" fill="#69B3EE" fill-opacity="0.7"/>
<path d="M341.779 147.563L335.129 149.526L337.093 156.181L343.743 154.218L341.779 147.563Z" fill="#69B3EE" fill-opacity="0.7"/>
<path d="M355.078 143.638L348.429 145.601L350.393 152.256L357.043 150.293L355.078 143.638Z" fill="#69B3EE" fill-opacity="0.7"/>
<path d="M368.378 139.713L361.729 141.675L363.693 148.33L370.342 146.368L368.378 139.713Z" fill="#69B3EE" fill-opacity="0.7"/>
<path d="M381.677 135.787L375.027 137.75L376.992 144.405L383.641 142.442L381.677 135.787Z" fill="#69B3EE" fill-opacity="0.7"/>
<path d="M394.977 131.862L388.327 133.825L390.291 140.48L396.941 138.517L394.977 131.862Z" fill="#69B3EE" fill-opacity="0.7"/>
<path d="M408.277 127.937L401.627 129.899L403.591 136.554L410.241 134.592L408.277 127.937Z" fill="#69B3EE" fill-opacity="0.7"/>
<path d="M421.576 124.011L414.926 125.974L416.89 132.629L423.54 130.666L421.576 124.011Z" fill="#69B3EE" fill-opacity="0.7"/>
<path d="M434.875 120.086L428.226 122.049L430.19 128.704L436.84 126.741L434.875 120.086Z" fill="#69B3EE" fill-opacity="0.7"/>
<path d="M323.793 160.106L317.144 162.069L319.108 168.724L325.757 166.761L323.793 160.106Z" fill="#69B3EE" fill-opacity="0.7"/>
<path d="M337.093 156.181L330.443 158.144L332.408 164.799L339.057 162.836L337.093 156.181Z" fill="#69B3EE" fill-opacity="0.7"/>
<path d="M350.393 152.256L343.743 154.218L345.707 160.873L352.357 158.911L350.393 152.256Z" fill="#69B3EE" fill-opacity="0.7"/>
<path d="M363.693 148.33L357.043 150.293L359.007 156.948L365.657 154.985L363.693 148.33Z" fill="#69B3EE" fill-opacity="0.7"/>
<path d="M376.992 144.405L370.342 146.368L372.306 153.023L378.956 151.06L376.992 144.405Z" fill="#69B3EE" fill-opacity="0.7"/>
<path d="M390.291 140.48L383.642 142.442L385.606 149.097L392.256 147.135L390.291 140.48Z" fill="#69B3EE" fill-opacity="0.7"/>
<path d="M403.591 136.554L396.941 138.517L398.906 145.172L405.555 143.209L403.591 136.554Z" fill="#69B3EE" fill-opacity="0.7"/>
<path d="M416.89 132.629L410.24 134.592L412.204 141.247L418.854 139.284L416.89 132.629Z" fill="#69B3EE" fill-opacity="0.7"/>
<path d="M430.19 128.704L423.54 130.667L425.504 137.321L432.154 135.359L430.19 128.704Z" fill="#69B3EE" fill-opacity="0.7"/>
<path d="M332.408 164.798L325.758 166.761L327.722 173.416L334.372 171.453L332.408 164.798Z" fill="#69B3EE" fill-opacity="0.7"/>
<path d="M345.707 160.873L339.058 162.836L341.022 169.491L347.672 167.528L345.707 160.873Z" fill="#69B3EE" fill-opacity="0.7"/>
<path d="M359.007 156.948L352.357 158.911L354.322 165.566L360.971 163.603L359.007 156.948Z" fill="#69B3EE" fill-opacity="0.7"/>
<path d="M372.306 153.023L365.656 154.985L367.62 161.64L374.27 159.678L372.306 153.023Z" fill="#69B3EE" fill-opacity="0.7"/>
<path d="M385.606 149.097L378.956 151.06L380.92 157.715L387.57 155.752L385.606 149.097Z" fill="#69B3EE" fill-opacity="0.7"/>
<path d="M398.906 145.172L392.256 147.135L394.22 153.79L400.87 151.827L398.906 145.172Z" fill="#69B3EE" fill-opacity="0.7"/>
<path d="M412.204 141.247L405.555 143.209L407.519 149.864L414.169 147.902L412.204 141.247Z" fill="#69B3EE" fill-opacity="0.7"/>
<path d="M425.504 137.322L418.854 139.284L420.819 145.939L427.468 143.977L425.504 137.322Z" fill="#69B3EE" fill-opacity="0.7"/>
<path d="M327.722 173.416L321.072 175.378L323.036 182.033L329.686 180.071L327.722 173.416Z" fill="#69B3EE" fill-opacity="0.7"/>
<path d="M341.022 169.49L334.372 171.453L336.336 178.108L342.986 176.145L341.022 169.49Z" fill="#69B3EE" fill-opacity="0.7"/>
<path d="M354.321 165.565L347.671 167.528L349.635 174.183L356.285 172.22L354.321 165.565Z" fill="#69B3EE" fill-opacity="0.7"/>
<path d="M367.62 161.64L360.971 163.603L362.935 170.258L369.585 168.295L367.62 161.64Z" fill="#69B3EE" fill-opacity="0.7"/>
<path d="M380.92 157.715L374.271 159.678L376.235 166.333L382.884 164.37L380.92 157.715Z" fill="#69B3EE" fill-opacity="0.7"/>
<path d="M394.22 153.79L387.57 155.752L389.534 162.407L396.184 160.445L394.22 153.79Z" fill="#69B3EE" fill-opacity="0.7"/>
<path d="M407.519 149.865L400.869 151.827L402.833 158.482L409.483 156.519L407.519 149.865Z" fill="#69B3EE" fill-opacity="0.7"/>
<path d="M420.819 145.939L414.169 147.902L416.133 154.557L422.783 152.594L420.819 145.939Z" fill="#69B3EE" fill-opacity="0.7"/>
<path d="M434.119 142.014L427.469 143.977L429.433 150.632L436.083 148.669L434.119 142.014Z" fill="#69B3EE" fill-opacity="0.7"/>
<path d="M336.336 178.108L329.687 180.071L331.651 186.726L338.3 184.763L336.336 178.108Z" fill="#69B3EE" fill-opacity="0.7"/>
<path d="M349.635 174.183L342.985 176.146L344.95 182.8L351.599 180.838L349.635 174.183Z" fill="#69B3EE" fill-opacity="0.7"/>
<path d="M362.935 170.258L356.285 172.22L358.249 178.875L364.899 176.913L362.935 170.258Z" fill="#69B3EE" fill-opacity="0.7"/>
<path d="M376.235 166.332L369.585 168.295L371.549 174.95L378.199 172.987L376.235 166.332Z" fill="#69B3EE" fill-opacity="0.7"/>
<path d="M389.535 162.407L382.885 164.37L384.849 171.025L391.499 169.062L389.535 162.407Z" fill="#69B3EE" fill-opacity="0.7"/>
<path d="M402.833 158.482L396.184 160.445L398.148 167.1L404.798 165.137L402.833 158.482Z" fill="#69B3EE" fill-opacity="0.7"/>
<path d="M416.133 154.557L409.483 156.52L411.448 163.175L418.097 161.212L416.133 154.557Z" fill="#69B3EE" fill-opacity="0.7"/>
<path d="M429.433 150.632L422.783 152.594L424.747 159.249L431.397 157.287L429.433 150.632Z" fill="#69B3EE" fill-opacity="0.7"/>
<path d="M331.651 186.726L325.001 188.688L326.965 195.343L333.615 193.381L331.651 186.726Z" fill="#69B3EE" fill-opacity="0.7"/>
<path d="M344.95 182.801L338.3 184.763L340.264 191.418L346.914 189.456L344.95 182.801Z" fill="#69B3EE" fill-opacity="0.7"/>
<path d="M358.249 178.875L351.6 180.838L353.564 187.493L360.214 185.53L358.249 178.875Z" fill="#69B3EE" fill-opacity="0.7"/>
<path d="M371.549 174.95L364.899 176.913L366.864 183.568L373.513 181.605L371.549 174.95Z" fill="#69B3EE" fill-opacity="0.7"/>
<path d="M384.848 171.025L378.198 172.987L380.162 179.642L386.812 177.68L384.848 171.025Z" fill="#69B3EE" fill-opacity="0.7"/>
<path d="M398.148 167.099L391.498 169.062L393.462 175.717L400.112 173.754L398.148 167.099Z" fill="#69B3EE" fill-opacity="0.7"/>
<path d="M411.448 163.175L404.798 165.137L406.762 171.792L413.412 169.83L411.448 163.175Z" fill="#69B3EE" fill-opacity="0.7"/>
<path d="M424.747 159.249L418.098 161.212L420.062 167.867L426.712 165.904L424.747 159.249Z" fill="#69B3EE" fill-opacity="0.7"/>
<path d="M326.965 195.344L320.315 197.306L322.28 203.961L328.929 201.998L326.965 195.344Z" fill="#69B3EE" fill-opacity="0.7"/>
<path d="M340.264 191.418L333.614 193.381L335.578 200.036L342.228 198.073L340.264 191.418Z" fill="#69B3EE" fill-opacity="0.7"/>
<path d="M353.564 187.493L346.914 189.456L348.878 196.111L355.528 194.148L353.564 187.493Z" fill="#69B3EE" fill-opacity="0.7"/>
<path d="M366.864 183.568L360.214 185.53L362.178 192.185L368.828 190.223L366.864 183.568Z" fill="#69B3EE" fill-opacity="0.7"/>
<path d="M380.162 179.642L373.513 181.605L375.477 188.26L382.127 186.297L380.162 179.642Z" fill="#69B3EE" fill-opacity="0.7"/>
<path d="M393.462 175.717L386.812 177.68L388.777 184.335L395.426 182.372L393.462 175.717Z" fill="#69B3EE" fill-opacity="0.7"/>
<path d="M406.762 171.792L400.112 173.754L402.076 180.409L408.726 178.447L406.762 171.792Z" fill="#69B3EE" fill-opacity="0.7"/>
<path d="M420.062 167.866L413.412 169.829L415.376 176.484L422.026 174.521L420.062 167.866Z" fill="#69B3EE" fill-opacity="0.7"/>
<path d="M433.361 163.942L426.711 165.904L428.675 172.559L435.325 170.597L433.361 163.942Z" fill="#69B3EE" fill-opacity="0.7"/>
<path d="M335.578 200.036L328.929 201.999L330.893 208.654L337.543 206.691L335.578 200.036Z" fill="#69B3EE" fill-opacity="0.7"/>
<path d="M348.878 196.111L342.229 198.073L344.193 204.728L350.842 202.766L348.878 196.111Z" fill="#69B3EE" fill-opacity="0.7"/>
<path d="M362.178 192.185L355.528 194.148L357.492 200.803L364.142 198.84L362.178 192.185Z" fill="#69B3EE" fill-opacity="0.7"/>
<path d="M375.477 188.26L368.827 190.223L370.791 196.878L377.441 194.915L375.477 188.26Z" fill="#69B3EE" fill-opacity="0.7"/>
<path d="M388.777 184.335L382.127 186.297L384.091 192.952L390.741 190.99L388.777 184.335Z" fill="#69B3EE" fill-opacity="0.7"/>
<path d="M402.077 180.409L395.427 182.372L397.391 189.027L404.041 187.064L402.077 180.409Z" fill="#69B3EE" fill-opacity="0.7"/>
<path d="M415.375 176.484L408.726 178.447L410.69 185.102L417.34 183.139L415.375 176.484Z" fill="#69B3EE" fill-opacity="0.7"/>
<path d="M428.675 172.559L422.025 174.521L423.99 181.176L430.639 179.214L428.675 172.559Z" fill="#69B3EE" fill-opacity="0.7"/>
<path d="M330.893 208.654L324.243 210.616L326.207 217.271L332.857 215.309L330.893 208.654Z" fill="#69B3EE" fill-opacity="0.7"/>
<path d="M344.193 204.728L337.543 206.691L339.507 213.346L346.157 211.383L344.193 204.728Z" fill="#69B3EE" fill-opacity="0.7"/>
<path d="M357.493 200.803L350.843 202.766L352.807 209.421L359.457 207.458L357.493 200.803Z" fill="#69B3EE" fill-opacity="0.7"/>
<path d="M370.791 196.878L364.142 198.84L366.106 205.495L372.756 203.533L370.791 196.878Z" fill="#69B3EE" fill-opacity="0.7"/>
<path d="M384.091 192.952L377.441 194.915L379.406 201.57L386.055 199.607L384.091 192.952Z" fill="#69B3EE" fill-opacity="0.7"/>
<path d="M397.391 189.027L390.741 190.99L392.705 197.645L399.355 195.682L397.391 189.027Z" fill="#69B3EE" fill-opacity="0.7"/>
<path d="M410.69 185.102L404.04 187.064L406.004 193.719L412.654 191.757L410.69 185.102Z" fill="#69B3EE" fill-opacity="0.7"/>
<path d="M423.99 181.177L417.34 183.139L419.304 189.794L425.954 187.832L423.99 181.177Z" fill="#69B3EE" fill-opacity="0.7"/>
<path d="M339.507 213.346L332.857 215.309L334.822 221.964L341.471 220.001L339.507 213.346Z" fill="#69B3EE" fill-opacity="0.7"/>
<path d="M352.807 209.421L346.157 211.383L348.121 218.038L354.771 216.076L352.807 209.421Z" fill="#69B3EE" fill-opacity="0.7"/>
<path d="M366.106 205.495L359.456 207.458L361.42 214.113L368.07 212.15L366.106 205.495Z" fill="#69B3EE" fill-opacity="0.7"/>
<path d="M379.406 201.57L372.756 203.533L374.72 210.188L381.37 208.225L379.406 201.57Z" fill="#69B3EE" fill-opacity="0.7"/>
<path d="M392.705 197.645L386.056 199.607L388.02 206.262L394.67 204.3L392.705 197.645Z" fill="#69B3EE" fill-opacity="0.7"/>
<path d="M406.004 193.719L399.354 195.682L401.319 202.337L407.968 200.374L406.004 193.719Z" fill="#69B3EE" fill-opacity="0.7"/>
<path d="M419.304 189.794L412.654 191.757L414.618 198.412L421.268 196.449L419.304 189.794Z" fill="#69B3EE" fill-opacity="0.7"/>
<path d="M432.604 185.869L425.954 187.832L427.918 194.487L434.568 192.524L432.604 185.869Z" fill="#69B3EE" fill-opacity="0.7"/>
<path d="M334.822 221.963L328.172 223.926L330.136 230.581L336.786 228.618L334.822 221.963Z" fill="#69B3EE" fill-opacity="0.7"/>
<path d="M348.121 218.038L341.472 220.001L343.436 226.656L350.086 224.693L348.121 218.038Z" fill="#69B3EE" fill-opacity="0.7"/>
<path d="M361.42 214.113L354.771 216.076L356.735 222.731L363.384 220.768L361.42 214.113Z" fill="#69B3EE" fill-opacity="0.7"/>
<path d="M374.72 210.188L368.07 212.15L370.034 218.805L376.684 216.843L374.72 210.188Z" fill="#69B3EE" fill-opacity="0.7"/>
<path d="M388.02 206.262L381.37 208.225L383.334 214.88L389.984 212.917L388.02 206.262Z" fill="#69B3EE" fill-opacity="0.7"/>
<path d="M401.319 202.337L394.669 204.3L396.633 210.955L403.283 208.992L401.319 202.337Z" fill="#69B3EE" fill-opacity="0.7"/>
<path d="M414.619 198.412L407.969 200.375L409.933 207.029L416.583 205.067L414.619 198.412Z" fill="#69B3EE" fill-opacity="0.7"/>
<path d="M427.918 194.487L421.269 196.449L423.233 203.104L429.882 201.142L427.918 194.487Z" fill="#69B3EE" fill-opacity="0.7"/>
<path d="M330.136 230.581L323.486 232.543L325.45 239.198L332.1 237.236L330.136 230.581Z" fill="#69B3EE" fill-opacity="0.7"/>
<path d="M343.436 226.656L336.786 228.618L338.75 235.273L345.4 233.311L343.436 226.656Z" fill="#69B3EE" fill-opacity="0.7"/>
<path d="M356.735 222.73L350.085 224.693L352.049 231.348L358.699 229.385L356.735 222.73Z" fill="#69B3EE" fill-opacity="0.7"/>
<path d="M370.035 218.805L363.385 220.768L365.349 227.423L371.999 225.46L370.035 218.805Z" fill="#69B3EE" fill-opacity="0.7"/>
<path d="M383.334 214.88L376.685 216.843L378.649 223.498L385.298 221.535L383.334 214.88Z" fill="#69B3EE" fill-opacity="0.7"/>
<path d="M396.633 210.955L389.983 212.917L391.948 219.572L398.597 217.61L396.633 210.955Z" fill="#69B3EE" fill-opacity="0.7"/>
<path d="M409.933 207.03L403.283 208.992L405.247 215.647L411.897 213.685L409.933 207.03Z" fill="#69B3EE" fill-opacity="0.7"/>
<path d="M423.233 203.104L416.583 205.067L418.547 211.722L425.197 209.759L423.233 203.104Z" fill="#69B3EE" fill-opacity="0.7"/>
<path d="M436.532 199.179L429.882 201.142L431.846 207.797L438.496 205.834L436.532 199.179Z" fill="#69B3EE" fill-opacity="0.7"/>
<path d="M325.451 239.199L318.801 241.161L320.765 247.816L327.415 245.853L325.451 239.199Z" fill="#69B3EE" fill-opacity="0.7"/>
<path d="M338.75 235.273L332.101 237.236L334.065 243.891L340.715 241.928L338.75 235.273Z" fill="#69B3EE" fill-opacity="0.7"/>
<path d="M352.049 231.348L345.399 233.311L347.364 239.966L354.013 238.003L352.049 231.348Z" fill="#69B3EE" fill-opacity="0.7"/>
<path d="M365.349 227.423L358.699 229.385L360.663 236.04L367.313 234.078L365.349 227.423Z" fill="#69B3EE" fill-opacity="0.7"/>
<path d="M378.649 223.497L371.999 225.46L373.963 232.115L380.613 230.152L378.649 223.497Z" fill="#69B3EE" fill-opacity="0.7"/>
<path d="M391.948 219.573L385.298 221.535L387.262 228.19L393.912 226.227L391.948 219.573Z" fill="#69B3EE" fill-opacity="0.7"/>
<path d="M405.247 215.647L398.598 217.61L400.562 224.265L407.212 222.302L405.247 215.647Z" fill="#69B3EE" fill-opacity="0.7"/>
<path d="M418.547 211.722L411.897 213.685L413.862 220.34L420.511 218.377L418.547 211.722Z" fill="#69B3EE" fill-opacity="0.7"/>
<path d="M431.846 207.797L425.196 209.759L427.16 216.414L433.81 214.452L431.846 207.797Z" fill="#69B3EE" fill-opacity="0.7"/>
<path d="M334.065 243.891L327.415 245.854L329.379 252.508L336.029 250.546L334.065 243.891Z" fill="#69B3EE" fill-opacity="0.7"/>
<path d="M347.364 239.966L340.714 241.928L342.678 248.583L349.328 246.621L347.364 239.966Z" fill="#69B3EE" fill-opacity="0.7"/>
<path d="M360.663 236.04L354.014 238.003L355.978 244.658L362.628 242.695L360.663 236.04Z" fill="#69B3EE" fill-opacity="0.7"/>
<path d="M373.963 232.115L367.313 234.078L369.278 240.733L375.927 238.77L373.963 232.115Z" fill="#69B3EE" fill-opacity="0.7"/>
<path d="M387.262 228.19L380.612 230.152L382.576 236.807L389.226 234.845L387.262 228.19Z" fill="#69B3EE" fill-opacity="0.7"/>
<path d="M400.562 224.264L393.912 226.227L395.876 232.882L402.526 230.919L400.562 224.264Z" fill="#69B3EE" fill-opacity="0.7"/>
<path d="M413.862 220.34L407.212 222.302L409.176 228.957L415.826 226.995L413.862 220.34Z" fill="#69B3EE" fill-opacity="0.7"/>
<path d="M427.16 216.414L420.511 218.377L422.475 225.032L429.125 223.069L427.16 216.414Z" fill="#69B3EE" fill-opacity="0.7"/>
<path d="M355.978 244.658L349.328 246.621L351.292 253.276L357.942 251.313L355.978 244.658Z" fill="#69B3EE" fill-opacity="0.7"/>
<path d="M369.278 240.733L362.628 242.695L364.592 249.35L371.242 247.388L369.278 240.733Z" fill="#69B3EE" fill-opacity="0.7"/>
<path d="M382.577 236.807L375.927 238.77L377.891 245.425L384.541 243.462L382.577 236.807Z" fill="#69B3EE" fill-opacity="0.7"/>
<path d="M395.876 232.882L389.227 234.845L391.191 241.5L397.84 239.537L395.876 232.882Z" fill="#69B3EE" fill-opacity="0.7"/>
<path d="M409.176 228.957L402.526 230.919L404.491 237.574L411.14 235.612L409.176 228.957Z" fill="#69B3EE" fill-opacity="0.7"/>
<path d="M422.475 225.032L415.825 226.994L417.789 233.649L424.439 231.686L422.475 225.032Z" fill="#69B3EE" fill-opacity="0.7"/>
<path d="M435.775 221.106L429.125 223.069L431.089 229.724L437.739 227.761L435.775 221.106Z" fill="#69B3EE" fill-opacity="0.7"/>
<path d="M364.592 249.35L357.942 251.313L359.907 257.968L366.556 256.005L364.592 249.35Z" fill="#69B3EE" fill-opacity="0.7"/>
<path d="M377.891 245.425L371.241 247.388L373.205 254.043L379.855 252.08L377.891 245.425Z" fill="#69B3EE" fill-opacity="0.7"/>
<path d="M391.191 241.5L384.541 243.462L386.505 250.117L393.155 248.155L391.191 241.5Z" fill="#69B3EE" fill-opacity="0.7"/>
<path d="M404.491 237.574L397.841 239.537L399.805 246.192L406.455 244.229L404.491 237.574Z" fill="#69B3EE" fill-opacity="0.7"/>
<path d="M417.789 233.649L411.14 235.612L413.104 242.267L419.754 240.304L417.789 233.649Z" fill="#69B3EE" fill-opacity="0.7"/>
<path d="M431.089 229.724L424.439 231.687L426.404 238.341L433.053 236.379L431.089 229.724Z" fill="#69B3EE" fill-opacity="0.7"/>
<path d="M413.104 242.267L406.454 244.229L408.418 250.884L415.068 248.922L413.104 242.267Z" fill="#69B3EE" fill-opacity="0.7"/>
<path d="M426.404 238.342L419.754 240.304L421.718 246.959L428.368 244.997L426.404 238.342Z" fill="#69B3EE" fill-opacity="0.7"/>
<path d="M421.718 246.959L415.068 248.922L417.033 255.577L423.682 253.614L421.718 246.959Z" fill="#69B3EE" fill-opacity="0.7"/>
<path d="M435.018 243.034L428.368 244.997L430.332 251.652L436.982 249.689L435.018 243.034Z" fill="#69B3EE" fill-opacity="0.7"/>
</g>
</g>
<defs>
<linearGradient id="paint0_linear_4233_49047" x1="430" y1="250" x2="-14.2016" y2="28.4774" gradientUnits="userSpaceOnUse">
<stop stop-color="#2C78B4"/>
<stop offset="1" stop-color="#4299DE"/>
</linearGradient>
<clipPath id="clip0_4233_49047">
<rect width="430" height="250" fill="white"/>
</clipPath>
<clipPath id="clip1_4233_49047">
<rect width="312" height="340" fill="white" transform="translate(-221 107.621) rotate(-17.2693)"/>
</clipPath>
<clipPath id="clip2_4233_49047">
<rect width="312" height="340" fill="white" transform="translate(189 -2.68164) rotate(-16.4436)"/>
</clipPath>
</defs>
</svg>
