<svg width="380" height="271" viewBox="0 0 380 271" fill="none" xmlns="http://www.w3.org/2000/svg">
<path d="M364.763 167.897C366.433 166.984 367.724 165.508 368.405 163.731C369.087 161.954 369.115 159.993 368.485 158.197C368.356 157.834 367.787 158.017 367.916 158.38C368.506 160.051 368.479 161.879 367.841 163.532C367.203 165.185 365.995 166.556 364.435 167.396C364.096 167.579 364.427 168.079 364.763 167.897Z" fill="white"/>
<path d="M354.867 153.548C354.294 154.036 353.61 154.373 352.875 154.531C352.14 154.689 351.377 154.661 350.655 154.451C350.285 154.342 350.166 154.929 350.533 155.037C351.332 155.266 352.175 155.295 352.987 155.123C353.8 154.95 354.558 154.581 355.195 154.048C355.259 154.003 355.304 153.935 355.32 153.858C355.336 153.781 355.322 153.701 355.281 153.634C355.237 153.568 355.169 153.522 355.092 153.506C355.014 153.489 354.933 153.505 354.867 153.548H354.867Z" fill="white"/>
<path d="M326.219 179.539C326.055 180.274 325.712 180.956 325.22 181.525C324.728 182.093 324.102 182.531 323.399 182.798C323.039 182.934 323.297 183.474 323.655 183.339C324.43 183.04 325.12 182.556 325.666 181.929C326.211 181.302 326.594 180.551 326.782 179.741C326.806 179.667 326.801 179.585 326.767 179.514C326.734 179.443 326.674 179.388 326.601 179.359C326.527 179.332 326.445 179.337 326.373 179.37C326.301 179.404 326.246 179.465 326.219 179.539V179.539Z" fill="white"/>
<path d="M24.9075 103.293C28.7875 103.551 32.6221 102.336 35.6467 99.8903C35.9461 99.6478 36.3065 100.126 36.0074 100.368C32.8553 102.907 28.8622 104.163 24.8252 103.886C24.4404 103.859 24.5249 103.266 24.9075 103.293Z" fill="white"/>
<path d="M32.4188 119.549C35.3616 122.092 39.1543 123.432 43.0406 123.302C43.4257 123.288 43.4259 123.887 43.0414 123.9C38.9969 124.028 35.0528 122.626 31.9962 119.972C31.7051 119.719 32.1292 119.297 32.4188 119.549Z" fill="white"/>
<path d="M64.445 112.427C64.3524 113.174 64.4465 113.932 64.719 114.633C64.9914 115.334 65.4336 115.956 66.0059 116.444C66.3001 116.694 65.8757 117.116 65.5834 116.868C64.9536 116.326 64.4661 115.638 64.1633 114.864C63.8606 114.09 63.7519 113.254 63.8467 112.428C63.8492 112.349 63.8814 112.275 63.9369 112.219C63.9924 112.163 64.067 112.131 64.1455 112.128C64.2247 112.129 64.3006 112.16 64.3566 112.216C64.4127 112.272 64.4444 112.348 64.4449 112.427H64.445Z" fill="white"/>
<path d="M47.025 112.042C46.8693 110.145 47.3926 108.254 48.5014 106.708C49.6102 105.161 51.2324 104.059 53.0781 103.599C53.4519 103.507 53.6121 104.084 53.2378 104.176C51.5183 104.601 50.0074 105.628 48.9778 107.07C47.9482 108.512 47.4677 110.275 47.6232 112.041C47.6565 112.425 47.0581 112.423 47.025 112.042Z" fill="white"/>
<path d="M46.194 78.3134C46.5693 78.9652 47.1005 79.5136 47.7399 79.9093C48.3793 80.305 49.107 80.5356 49.8575 80.5804C50.2424 80.6021 50.1575 81.1949 49.7751 81.1732C48.9462 81.1199 48.1429 80.8643 47.4355 80.4287C46.728 79.9931 46.138 79.3908 45.7169 78.6744C45.6715 78.6102 45.6523 78.5311 45.6631 78.4532C45.6739 78.3753 45.714 78.3045 45.7751 78.2551C45.8385 78.2076 45.9181 78.1871 45.9965 78.1981C46.075 78.209 46.146 78.2504 46.1941 78.3134L46.194 78.3134Z" fill="white"/>
<path d="M32.0535 88.4996C30.7878 87.0788 30.068 85.254 30.0228 83.3512C29.9775 81.4484 30.6097 79.5915 31.8065 78.112C32.0497 77.8135 32.5247 78.1776 32.2812 78.4765C31.1642 79.8521 30.5755 81.5819 30.6213 83.3537C30.667 85.1255 31.3442 86.8226 32.5307 88.1386C32.7882 88.425 32.3095 88.7843 32.0535 88.4996Z" fill="white"/>
<path d="M256.539 70.4315H255.103V31.0861C255.103 25.0466 252.706 19.2544 248.437 14.9838C244.169 10.7132 238.381 8.31398 232.345 8.31396H149.034C146.046 8.31396 143.086 8.90297 140.325 10.0474C137.564 11.1918 135.055 12.8691 132.941 14.9837C130.828 17.0983 129.152 19.6087 128.008 22.3715C126.864 25.1343 126.275 28.0955 126.275 31.086V246.939C126.275 252.978 128.673 258.77 132.941 263.041C137.209 267.311 142.998 269.711 149.034 269.711H232.344C238.38 269.711 244.169 267.311 248.437 263.041C252.705 258.77 255.103 252.978 255.103 246.939V98.4384H256.539V70.4315Z" fill="#3F3D56"/>
<path d="M250.258 31.244V246.78C250.258 249.013 249.819 251.224 248.965 253.287C248.112 255.35 246.86 257.224 245.282 258.803C243.705 260.382 241.832 261.635 239.77 262.49C237.709 263.345 235.499 263.785 233.268 263.785H149.55C145.043 263.785 140.721 261.994 137.534 258.805C134.347 255.617 132.556 251.292 132.556 246.782V31.244C132.556 29.011 132.995 26.7999 133.849 24.7369C134.703 22.6738 135.954 20.7993 137.532 19.2202C139.11 17.6412 140.984 16.3886 143.045 15.534C145.107 14.6793 147.317 14.2394 149.549 14.2393H159.71C159.21 15.4659 159.019 16.7969 159.153 18.1149C159.288 19.4329 159.745 20.6975 160.484 21.7972C161.222 22.8969 162.22 23.798 163.388 24.4211C164.557 25.0442 165.86 25.3701 167.185 25.3702H214.914C216.238 25.3693 217.541 25.0428 218.709 24.4194C219.877 23.7961 220.874 22.8951 221.613 21.7956C222.351 20.6962 222.808 19.432 222.943 18.1143C223.078 16.7967 222.888 15.466 222.389 14.2393H233.263C235.495 14.2392 237.705 14.6789 239.766 15.5333C241.828 16.3877 243.702 17.6401 245.28 19.219C246.858 20.7978 248.11 22.6723 248.964 24.7352C249.818 26.7982 250.258 29.0092 250.258 31.2422L250.258 31.244Z" fill="#F2F2F2"/>
<path d="M243.914 243.592H217.944V244.755H243.914V243.592Z" fill="white"/>
<path d="M204.392 243.592H178.422V244.755H204.392V243.592Z" fill="white"/>
<path d="M164.869 243.592H138.899V244.755H164.869V243.592Z" fill="white"/>
<path d="M232.119 204.322H147.464C146.888 204.322 146.336 204.093 145.928 203.686C145.521 203.278 145.292 202.725 145.292 202.149C145.292 201.573 145.521 201.02 145.928 200.612C146.336 200.205 146.888 199.976 147.464 199.976H232.119C232.695 199.976 233.248 200.205 233.655 200.612C234.062 201.02 234.291 201.573 234.291 202.149C234.291 202.725 234.062 203.278 233.655 203.686C233.248 204.093 232.695 204.322 232.119 204.322Z" fill="#CCCCCC"/>
<path d="M232.119 189.202H147.464C146.888 189.202 146.336 188.973 145.928 188.565C145.521 188.158 145.292 187.605 145.292 187.029C145.292 186.452 145.521 185.899 145.928 185.492C146.336 185.084 146.888 184.855 147.464 184.855H232.119C232.695 184.855 233.248 185.084 233.655 185.492C234.062 185.899 234.291 186.452 234.291 187.029C234.291 187.605 234.062 188.158 233.655 188.565C233.248 188.973 232.695 189.202 232.119 189.202Z" fill="#CCCCCC"/>
<path d="M232.119 174.081H147.464C147.179 174.081 146.896 174.025 146.633 173.916C146.369 173.807 146.13 173.647 145.928 173.445C145.726 173.243 145.566 173.004 145.457 172.74C145.348 172.476 145.292 172.194 145.292 171.908C145.292 171.623 145.348 171.34 145.457 171.077C145.566 170.813 145.726 170.573 145.928 170.371C146.13 170.17 146.369 170.01 146.633 169.9C146.896 169.791 147.179 169.735 147.464 169.735H232.119C232.404 169.735 232.687 169.791 232.95 169.9C233.214 170.01 233.453 170.17 233.655 170.371C233.857 170.573 234.017 170.813 234.126 171.077C234.235 171.34 234.291 171.623 234.291 171.908C234.291 172.194 234.235 172.476 234.126 172.74C234.017 173.004 233.857 173.243 233.655 173.445C233.453 173.647 233.214 173.807 232.95 173.916C232.687 174.025 232.404 174.081 232.119 174.081Z" fill="#CCCCCC"/>
<path d="M128.51 95.1582H123.86V109.697H128.51V95.1582Z" fill="#3F3D56"/>
<path d="M191.406 144.309C213.147 144.309 230.771 126.675 230.771 104.921C230.771 83.1677 213.147 65.5331 191.406 65.5331C169.665 65.5331 152.041 83.1677 152.041 104.921C152.041 126.675 169.665 144.309 191.406 144.309Z" fill="#D1D3D4"/>
<path d="M191.407 142.601C211.241 142.601 227.32 126.512 227.32 106.667C227.32 86.821 211.241 70.7329 191.407 70.7329C171.573 70.7329 155.494 86.821 155.494 106.667C155.494 126.512 171.573 142.601 191.407 142.601Z" fill="url(#paint0_linear_1632_28533)"/>
<path d="M188.272 120.751C188.194 120.751 188.116 120.749 188.037 120.745C187.348 120.711 186.675 120.529 186.063 120.211C185.451 119.893 184.915 119.446 184.492 118.901L178.832 111.621C178.054 110.617 177.705 109.346 177.862 108.086C178.019 106.826 178.67 105.68 179.671 104.899L179.874 104.741C180.877 103.962 182.147 103.613 183.407 103.77C184.667 103.927 185.812 104.578 186.593 105.579C186.847 105.906 187.169 106.175 187.537 106.366C187.904 106.557 188.308 106.666 188.722 106.686C189.136 106.71 189.55 106.643 189.935 106.488C190.32 106.334 190.666 106.096 190.948 105.792L202.441 93.6539C203.315 92.7331 204.518 92.1968 205.787 92.1624C207.055 92.128 208.286 92.5985 209.208 93.4707L209.395 93.6474C210.316 94.5217 210.852 95.7258 210.887 96.9954C210.921 98.2651 210.451 99.4966 209.579 100.42L191.745 119.255C191.299 119.727 190.76 120.104 190.163 120.361C189.565 120.618 188.922 120.751 188.272 120.751Z" fill="white"/>
<path opacity="0.16" d="M191.407 137.623C182.321 137.621 173.574 134.174 166.928 127.975C160.281 121.776 156.231 113.287 155.593 104.218C155.534 105.055 155.494 105.896 155.494 106.748C155.494 116.278 159.278 125.418 166.013 132.157C172.748 138.896 181.882 142.681 191.407 142.681C200.932 142.681 210.066 138.896 216.801 132.157C223.536 125.418 227.32 116.278 227.32 106.748C227.32 105.896 227.28 105.055 227.222 104.218C226.583 113.287 222.533 121.776 215.887 127.975C209.24 134.174 200.493 137.621 191.407 137.623Z" fill="#231F20"/>
<path d="M128.51 77.7115H123.86V92.2505H128.51V77.7115Z" fill="#3F3D56"/>
<path d="M128.51 49.7969H123.86V74.8038H128.51V49.7969Z" fill="#3F3D56"/>
<path d="M243.914 34.8138H217.944V35.9763H243.914V34.8138Z" fill="white"/>
<path d="M204.392 34.8138H178.422V35.9763H204.392V34.8138Z" fill="white"/>
<path d="M164.869 34.8138H138.899V35.9763H164.869V34.8138Z" fill="white"/>
<path d="M168.614 20.1374C169.898 20.1374 170.939 19.0959 170.939 17.8112C170.939 16.5265 169.898 15.485 168.614 15.485C167.33 15.485 166.289 16.5265 166.289 17.8112C166.289 19.0959 167.33 20.1374 168.614 20.1374Z" fill="white"/>
<defs>
<linearGradient id="paint0_linear_1632_28533" x1="227.32" y1="142.601" x2="141.846" y2="117.833" gradientUnits="userSpaceOnUse">
<stop stop-color="#2C78B4"/>
<stop offset="1" stop-color="#4299DE"/>
</linearGradient>
</defs>
</svg>
