<svg width="182" height="155" viewBox="0 0 182 155" fill="none" xmlns="http://www.w3.org/2000/svg">
<g clip-path="url(#clip0_1829_28447)">
<g clip-path="url(#clip1_1829_28447)">
<path d="M65.1233 86.4563C71.3995 75.3532 83.3714 66.8278 96.0446 67.6491C86.6964 77.8725 81.2453 91.0917 80.6557 104.968C80.4476 110.32 80.7704 116.295 77.2366 120.303C75.0379 122.797 71.6771 124.004 68.3727 124.258C65.0682 124.511 61.7644 123.911 58.504 123.313L57.7131 123.557C57.412 110.789 58.8472 97.5594 65.1233 86.4563Z" fill="#F0F0F0"/>
<path d="M96.0635 67.9164C86.6918 72.4535 78.7007 80.0311 73.7952 89.2725C72.7347 91.2704 71.8317 93.39 71.4379 95.6311C71.0438 97.8732 71.319 100.008 72.0805 102.137C72.7767 104.084 73.7129 105.994 73.9264 108.077C74.1514 110.273 73.3481 112.326 71.9021 113.955C70.1328 115.949 67.7568 117.184 65.3915 118.311C62.7652 119.562 60.0177 120.82 58.1576 123.155C57.9322 123.438 57.5089 123.07 57.7339 122.787C60.9702 118.725 66.5098 117.961 70.3513 114.688C72.1438 113.161 73.4896 111.081 73.4046 108.645C73.3304 106.514 72.3666 104.543 71.6447 102.578C70.8868 100.515 70.5089 98.44 70.7807 96.2402C71.0587 93.9898 71.8812 91.8303 72.8863 89.8138C75.153 85.2662 78.2552 81.0911 81.8089 77.482C85.8931 73.3335 90.6529 69.9181 95.8823 67.3837C96.206 67.227 96.3851 67.7607 96.0635 67.9164Z" fill="white"/>
<path d="M75.2318 86.184C73.7951 85.1275 72.7786 83.5918 72.3638 81.8512C71.9491 80.1105 72.163 78.2783 72.9675 76.6817C73.1314 76.3592 73.6374 76.6002 73.4733 76.9231C72.7215 78.4085 72.5223 80.1152 72.9118 81.7353C73.3014 83.3554 74.2539 84.7821 75.5975 85.7579C75.8893 85.9703 75.5219 86.3951 75.2318 86.184Z" fill="white"/>
<path d="M71.5981 101.197C75.1982 100.668 78.4677 98.7934 80.7548 95.9477C80.9811 95.6656 81.4046 96.0338 81.1785 96.3156C78.793 99.2723 75.3866 101.216 71.6391 101.758C71.2819 101.809 71.2428 101.248 71.5981 101.197Z" fill="white"/>
<path d="M86.169 74.0261C86.6402 74.5513 87.2338 74.9507 87.8964 75.1883C88.559 75.4258 89.2698 75.4942 89.9652 75.3871C90.3216 75.3312 90.3603 75.8929 90.0062 75.9485C89.2374 76.0632 88.4524 75.9867 87.7197 75.7259C86.9871 75.465 86.3291 75.0277 85.8033 74.4522C85.7492 74.4021 85.7161 74.3332 85.7107 74.2595C85.7054 74.1857 85.7281 74.1127 85.7743 74.0552C85.823 73.999 85.8918 73.9645 85.9657 73.959C86.0396 73.9536 86.1127 73.9777 86.169 74.0261Z" fill="white"/>
<path d="M121.26 102.675C121.038 102.717 120.817 102.758 120.593 102.804C117.617 103.374 114.693 104.187 111.848 105.235C111.627 105.312 111.404 105.394 111.185 105.478C104.358 108.074 98.0693 111.923 92.6391 116.828C90.4801 118.782 88.472 120.898 86.6323 123.158C84.0917 126.28 81.584 129.868 78.2641 131.903C77.9201 132.12 77.5631 132.314 77.1952 132.486L58.0701 124.508C58.0357 124.468 57.9992 124.432 57.9646 124.392L57.1865 124.109C57.2733 123.986 57.366 123.86 57.4528 123.736C57.5028 123.665 57.5571 123.595 57.6072 123.523C57.6419 123.476 57.6768 123.429 57.7055 123.384C57.7169 123.368 57.7287 123.353 57.7384 123.341C57.767 123.297 57.7983 123.258 57.8251 123.218C58.3411 122.513 58.8628 121.81 59.3904 121.109C59.3922 121.105 59.3922 121.105 59.3983 121.102C63.4319 115.774 67.9431 110.739 73.0709 106.551C73.2253 106.425 73.3812 106.295 73.5442 106.173C75.866 104.298 78.3363 102.618 80.9304 101.148C82.3533 100.348 83.8157 99.6207 85.3118 98.9693C89.1807 97.2934 93.2877 96.24 97.4822 95.8477C105.844 95.0668 114.361 96.9841 120.774 102.267C120.938 102.402 121.098 102.536 121.26 102.675Z" fill="#F0F0F0"/>
<path d="M121.117 102.901C110.918 100.85 100.001 102.061 90.5517 106.47C88.5088 107.423 86.5189 108.569 84.8627 110.12C83.2058 111.671 82.1478 113.542 81.4809 115.703C80.8713 117.679 80.4752 119.771 79.3985 121.564C78.2637 123.453 76.3932 124.606 74.2632 125.031C71.657 125.552 69.0203 125.1 66.4571 124.567C63.6112 123.976 60.6645 123.317 57.7813 124.055C57.432 124.144 57.3144 123.594 57.6632 123.505C62.6794 122.22 67.5598 124.965 72.5863 124.678C74.9317 124.544 77.2512 123.698 78.6423 121.701C79.8586 119.955 80.2689 117.798 80.869 115.792C81.4991 113.685 82.4394 111.8 83.9734 110.208C85.5426 108.58 87.4921 107.353 89.5019 106.352C94.0343 104.093 99.0107 102.638 104.009 101.908C109.753 101.069 115.598 101.224 121.291 102.366C121.643 102.437 121.467 102.972 121.117 102.901Z" fill="white"/>
<path d="M93.5481 104.874C93.0334 103.161 93.1412 101.319 93.8521 99.678C94.563 98.0371 95.8307 96.7037 97.4289 95.916C97.7528 95.7577 98.0126 96.2565 97.6883 96.415C96.1987 97.1457 95.0179 98.3879 94.359 99.9173C93.7001 101.447 93.6066 103.163 94.0952 104.755C94.201 105.101 93.6533 105.218 93.5481 104.874Z" fill="white"/>
<path d="M81.6583 114.661C84.8494 116.418 88.582 116.901 92.1117 116.014C92.4613 115.926 92.579 116.476 92.2298 116.564C88.555 117.481 84.6717 116.97 81.3549 115.134C81.0389 114.958 81.344 114.486 81.6583 114.661Z" fill="white"/>
<path d="M109.56 101.789C109.621 102.494 109.856 103.172 110.243 103.763C110.63 104.354 111.157 104.839 111.776 105.174C112.094 105.345 111.788 105.817 111.472 105.647C110.79 105.273 110.209 104.737 109.78 104.085C109.351 103.433 109.088 102.686 109.013 101.908C108.999 101.835 109.014 101.76 109.054 101.698C109.094 101.636 109.156 101.591 109.227 101.573C109.3 101.558 109.375 101.572 109.437 101.612C109.5 101.653 109.544 101.716 109.56 101.789Z" fill="white"/>
<path d="M84.8283 115.837C82.1498 102.813 78.8018 98.4707 78.8018 98.4707L77.5228 97.4733L75.9846 96.2717L75.9921 96.1172L75.6273 95.9925L75.5416 95.9256L75.4011 95.8171L75.3785 95.8415L75.3308 95.8912L68.3706 93.5119L59.5403 90.4954L55.4513 85.1504C54.7854 84.2799 53.928 83.5763 52.9464 83.0948C51.9649 82.6133 50.8857 82.3669 49.7936 82.3751L36.7348 82.4722C34.969 82.4854 33.2721 83.1623 31.9775 84.37L23.3941 92.3769L10.0195 98.8008L9.99695 98.7781L9.8565 98.8789L7.79001 99.8727L7.87529 100.319L6.59625 101.247C6.59625 101.247 3.24823 105.288 0.569794 117.406C-0.111569 120.49 -0.446961 127.105 -0.568019 135.256C-0.5741 135.668 -0.49861 136.078 -0.345941 136.46C-0.193272 136.843 0.033531 137.191 0.321281 137.485C0.609031 137.779 0.951986 138.012 1.33021 138.172C1.70843 138.331 2.11436 138.413 2.52442 138.413H73.9607L82.8769 138.413C83.2866 138.413 83.6923 138.331 84.0703 138.172C84.4482 138.013 84.791 137.78 85.0787 137.486C85.3664 137.193 85.5933 136.845 85.7462 136.463C85.8991 136.08 85.9749 135.671 85.9693 135.259C85.8511 126.389 85.5158 119.181 84.8283 115.837Z" fill="#3F3D56"/>
<path d="M93.994 27.3729C91.2147 27.3729 88.5492 28.4833 86.584 30.4597C84.6187 32.4361 83.5146 35.1167 83.5146 37.9117C83.5146 40.7068 84.6187 43.3874 86.584 45.3638C88.5492 47.3402 91.2147 48.4506 93.994 48.4506H172.09C174.869 48.4506 177.535 47.3402 179.5 45.3638C181.465 43.3874 182.569 40.7068 182.569 37.9117C182.569 35.1167 181.465 32.4361 179.5 30.4597C177.535 28.4833 174.869 27.3729 172.09 27.3729H93.994Z" fill="#E5E5E5"/>
<path d="M93.9943 29.5057C91.7774 29.5057 89.6514 30.3914 88.0839 31.9678C86.5164 33.5442 85.6357 35.6823 85.6357 37.9117C85.6357 40.1411 86.5164 42.2792 88.0839 43.8556C89.6514 45.432 91.7774 46.3177 93.9943 46.3177H172.09C174.307 46.3177 176.433 45.432 178.001 43.8556C179.568 42.2792 180.449 40.1411 180.449 37.9117C180.449 35.6823 179.568 33.5442 178.001 31.9678C176.433 30.3914 174.307 29.5057 172.09 29.5057H93.9943Z" fill="white"/>
<path d="M45.3154 77.4413C54.7641 77.4413 62.4238 69.7381 62.4238 60.2358C62.4238 50.7334 54.7641 43.0303 45.3154 43.0303C35.8667 43.0303 28.207 50.7334 28.207 60.2358C28.207 69.7381 35.8667 77.4413 45.3154 77.4413Z" fill="#9E616A"/>
<path d="M40.9384 76.5989C40.8653 76.437 40.7924 76.2746 40.7197 76.1117C40.7477 76.1126 40.7755 76.1166 40.8035 76.1174L40.9384 76.5989Z" fill="#2F2E41"/>
<path d="M27.7306 43.8127C28.5959 43.1185 29.6072 42.4798 30.7136 42.5157C31.8198 42.5516 32.9417 43.5564 32.7125 44.6455C34.7446 41.0271 37.979 38.2442 41.848 36.7852C45.7171 35.3261 49.9735 35.2842 53.8702 36.6669C56.6198 37.6424 59.3162 39.5942 59.9479 42.4569C60.11 43.1917 60.1448 43.9975 60.6011 44.5942C61.1763 45.3465 62.2769 45.5167 63.1832 45.2521C63.1922 45.2494 63.2013 45.2467 63.2103 45.244C63.3634 45.1914 63.5287 45.1863 63.6847 45.2292C63.8408 45.2721 63.9804 45.3611 64.0856 45.4847C64.1908 45.6083 64.2567 45.7608 64.2748 45.9225C64.2929 46.0842 64.2623 46.2476 64.187 46.3916L63.409 47.8508C64.3898 48.0707 65.4088 48.0489 66.3793 47.7873C66.5406 47.7447 66.7109 47.7534 66.8671 47.8121C67.0232 47.8708 67.1574 47.9767 67.2514 48.1151C67.3453 48.2536 67.3944 48.4179 67.3918 48.5855C67.3892 48.7531 67.3351 48.9158 67.237 49.0513C64.6716 52.5933 60.3857 54.8806 56.0121 54.8538C52.9036 54.8347 49.7631 53.7573 46.7378 54.4762C45.5674 54.7543 44.4738 55.2924 43.5372 56.051C42.6006 56.8096 41.8447 57.7695 41.3251 58.8602C40.8055 59.9508 40.5353 61.1447 40.5343 62.3541C40.5333 63.5635 40.8015 64.7578 41.3194 65.8494C40.39 64.8271 38.5934 65.0691 37.6427 66.0715C36.692 67.0738 36.4459 68.5699 36.5417 69.9518C36.6882 72.0653 37.5116 74.0568 38.3796 75.995C31.1019 75.7646 24.2184 70.6304 21.9014 63.6863C19.5747 56.7131 22.0131 48.3996 27.7306 43.8127Z" fill="#2F2E41"/>
<path opacity="0.2" d="M16.2705 111.905L21.069 138.161L23.9483 138.413L16.2705 111.905Z" fill="black"/>
<path opacity="0.2" d="M69.127 109.925L64.3284 138.142L61.4492 138.413L69.127 109.925Z" fill="black"/>
<path d="M31.8235 34.9763C30.9035 35.3626 29.9435 34.9392 29.5408 33.9695C29.1321 32.985 29.5139 31.9856 30.4486 31.5931C31.3835 31.2005 32.3265 31.6249 32.7418 32.6253C33.151 33.6107 32.7733 34.5774 31.8235 34.9763ZM30.0611 29.6552L29.3296 29.9624C29.1468 30.0383 28.9424 30.0424 28.7568 29.9739C28.5712 29.9054 28.4179 29.7694 28.3273 29.5927L28.2911 29.5216C27.504 28.0939 27.4138 26.3589 28.0246 24.3672C28.5905 22.5807 28.8255 21.3242 28.3528 20.1858C27.8064 18.8697 26.6395 18.4575 25.1514 19.0547C24.5743 19.297 24.3907 19.2932 23.9365 19.7463C23.8377 19.8461 23.7199 19.9248 23.5902 19.9778C23.4605 20.0308 23.3215 20.057 23.1815 20.0548C23.0462 20.0532 22.9126 20.0242 22.7887 19.9696C22.6647 19.9149 22.553 19.8357 22.4601 19.7367C22.2812 19.5459 22.181 19.2939 22.1797 19.0317C22.1784 18.7694 22.2761 18.5164 22.453 18.3238C23.2164 17.5201 24.1372 16.8843 25.1572 16.4565C28.3544 15.1139 29.9639 17.0961 30.7004 18.8699C31.4208 20.605 31.0155 22.2148 30.3644 24.2997C29.8188 26.0321 29.8506 27.3158 30.4704 28.5922C30.5151 28.6886 30.54 28.7932 30.5436 28.8997C30.5471 29.0061 30.5292 29.1121 30.491 29.2114C30.4528 29.3107 30.395 29.4012 30.3211 29.4775C30.2473 29.5537 30.1588 29.6142 30.0611 29.6552Z" fill="#2C78B4"/>
<path d="M111.244 42.938H95.7059C95.6566 42.9383 95.6076 42.9288 95.5619 42.91C95.5162 42.8913 95.4746 42.8636 95.4396 42.8286C95.4046 42.7936 95.3768 42.752 95.3578 42.7062C95.3389 42.6604 95.3291 42.6112 95.3291 42.5616C95.3291 42.5119 95.3389 42.4628 95.3578 42.4169C95.3768 42.3711 95.4046 42.3295 95.4396 42.2945C95.4746 42.2595 95.5162 42.2319 95.5619 42.2131C95.6076 42.1943 95.6566 42.1849 95.7059 42.1852H111.244C111.343 42.1859 111.437 42.2258 111.507 42.2963C111.577 42.3668 111.616 42.4622 111.616 42.5616C111.616 42.661 111.577 42.7563 111.507 42.8268C111.437 42.8973 111.343 42.9373 111.244 42.938Z" fill="#2C78B4"/>
<path d="M130.955 43.0635H115.417C115.367 43.0638 115.319 43.0543 115.273 43.0355C115.227 43.0168 115.186 42.9891 115.151 42.9541C115.116 42.9191 115.088 42.8775 115.069 42.8317C115.05 42.7859 115.04 42.7367 115.04 42.6871C115.04 42.6374 115.05 42.5883 115.069 42.5424C115.088 42.4966 115.116 42.455 115.151 42.42C115.186 42.385 115.227 42.3574 115.273 42.3386C115.319 42.3198 115.367 42.3103 115.417 42.3107H130.955C131.004 42.3103 131.053 42.3198 131.099 42.3386C131.145 42.3574 131.186 42.385 131.221 42.42C131.256 42.455 131.284 42.4966 131.303 42.5424C131.322 42.5883 131.332 42.6374 131.332 42.6871C131.332 42.7367 131.322 42.7859 131.303 42.8317C131.284 42.8775 131.256 42.9191 131.221 42.9541C131.186 42.9891 131.145 43.0168 131.099 43.0355C131.053 43.0543 131.004 43.0638 130.955 43.0635Z" fill="#2C78B4"/>
<path d="M150.667 43.1889H135.129C135.03 43.1883 134.935 43.1483 134.866 43.0778C134.796 43.0073 134.757 42.9119 134.757 42.8125C134.757 42.7132 134.796 42.6178 134.866 42.5473C134.935 42.4768 135.03 42.4368 135.129 42.4362H150.667C150.716 42.4358 150.765 42.4453 150.811 42.4641C150.856 42.4828 150.898 42.5105 150.933 42.5455C150.968 42.5805 150.996 42.6221 151.015 42.6679C151.034 42.7138 151.044 42.7629 151.044 42.8125C151.044 42.8622 151.034 42.9114 151.015 42.9572C150.996 43.003 150.968 43.0446 150.933 43.0796C150.898 43.1146 150.856 43.1423 150.811 43.161C150.765 43.1798 150.716 43.1893 150.667 43.1889Z" fill="#2C78B4"/>
<path d="M170.378 43.3144H154.839C154.741 43.3137 154.646 43.2738 154.577 43.2033C154.507 43.1328 154.468 43.0374 154.468 42.938C154.468 42.8386 154.507 42.7433 154.577 42.6728C154.646 42.6023 154.741 42.5623 154.839 42.5616H170.378C170.477 42.5623 170.571 42.6023 170.641 42.6728C170.71 42.7433 170.749 42.8386 170.749 42.938C170.749 43.0374 170.71 43.1328 170.641 43.2033C170.571 43.2738 170.477 43.3137 170.378 43.3144Z" fill="#2C78B4"/>
<path d="M103.441 39.4741C105.036 39.4741 106.329 38.1738 106.329 36.5698C106.329 34.9658 105.036 33.6655 103.441 33.6655C101.846 33.6655 100.553 34.9658 100.553 36.5698C100.553 38.1738 101.846 39.4741 103.441 39.4741Z" fill="#2C78B4"/>
<path d="M123.271 39.4741C124.866 39.4741 126.159 38.1738 126.159 36.5698C126.159 34.9658 124.866 33.6655 123.271 33.6655C121.676 33.6655 120.383 34.9658 120.383 36.5698C120.383 38.1738 121.676 39.4741 123.271 39.4741Z" fill="#2C78B4"/>
<path d="M143.102 39.4741C144.697 39.4741 145.99 38.1738 145.99 36.5698C145.99 34.9658 144.697 33.6655 143.102 33.6655C141.507 33.6655 140.214 34.9658 140.214 36.5698C140.214 38.1738 141.507 39.4741 143.102 39.4741Z" fill="#2C78B4"/>
<path d="M162.932 39.4741C164.527 39.4741 165.82 38.1738 165.82 36.5698C165.82 34.9658 164.527 33.6655 162.932 33.6655C161.337 33.6655 160.044 34.9658 160.044 36.5698C160.044 38.1738 161.337 39.4741 162.932 39.4741Z" fill="#2C78B4"/>
</g>
</g>
<defs>
<clipPath id="clip0_1829_28447">
<rect width="182" height="155" fill="white"/>
</clipPath>
<clipPath id="clip1_1829_28447">
<rect width="183.137" height="122.399" fill="white" transform="translate(-0.568359 16.0148)"/>
</clipPath>
</defs>
</svg>
