<svg width="61" height="60" viewBox="0 0 61 60" fill="none" xmlns="http://www.w3.org/2000/svg">
<rect x="0.5" width="60" height="60" rx="30" fill="#2C78B4"/>
<g clip-path="url(#clip0_6228_13169)">
<path d="M40.5817 23.6577H18.7728C18.3622 23.6577 18.0293 23.9906 18.0293 24.4012V27.6779C18.0293 28.0885 18.3622 28.4214 18.7728 28.4214H40.5817C40.9923 28.4214 41.3251 28.0885 41.3251 27.6779V24.4012C41.3252 23.9906 40.9923 23.6577 40.5817 23.6577Z" fill="white"/>
<path d="M40.7567 42.8079H40.0414V28.9741H19.3131V42.8079H18.5978C18.2838 42.8079 18.0293 43.0624 18.0293 43.3763C18.0293 43.6903 18.2838 43.9449 18.5978 43.9449H40.7566C41.0706 43.9449 41.3251 43.6903 41.3251 43.3763C41.3252 43.0624 41.0707 42.8079 40.7567 42.8079ZM33.7734 41.1082C33.326 41.1082 32.9648 40.7469 32.9648 40.2996C32.9648 39.8522 33.3261 39.4886 33.7734 39.4886C34.2207 39.4886 34.582 39.8522 34.582 40.2996C34.582 40.7469 34.2208 41.1082 33.7734 41.1082ZM25.6288 37.619L26.4545 35.4517C26.5598 35.1751 26.8292 34.9894 27.1249 34.9894H32.2294C32.5252 34.9894 32.7946 35.1751 32.8999 35.4517L33.7255 37.619H25.6288ZM32.2735 40.2985C32.2735 40.4307 32.1665 40.5377 32.0343 40.5377H27.3202C27.188 40.5377 27.0809 40.4307 27.0809 40.2985C27.0809 40.1663 27.188 40.0593 27.3202 40.0593H32.0343C32.1665 40.0593 32.2735 40.1663 32.2735 40.2985ZM26.3897 40.2996C26.3897 40.7469 26.0284 41.1082 25.5811 41.1082C25.1338 41.1082 24.7725 40.7469 24.7725 40.2996C24.7725 39.8522 25.1338 39.4886 25.5811 39.4886C26.0284 39.4886 26.3897 39.8522 26.3897 40.2996ZM26.4136 42.5124V41.8163H32.9409V42.5124C32.9409 42.6442 33.02 42.7562 33.1324 42.8079H26.2221C26.3346 42.7563 26.4136 42.6442 26.4136 42.5124ZM34.692 42.8079C34.8044 42.7562 34.8835 42.6442 34.8835 42.5124V41.8163H35.115C35.4859 41.8163 35.7849 41.5173 35.7849 41.1465C35.7568 40.9622 35.9712 39.7414 34.9667 38.6776L34.4189 38.0987L34.4077 38.0694C34.4926 38.0863 34.5817 38.0976 34.676 38.0976C35.1471 38.0976 35.5288 37.8695 35.5288 37.5875C35.5288 37.307 35.1471 37.0789 34.676 37.0789C34.4466 37.0789 34.239 37.1336 34.0852 37.2215L33.347 35.2805C33.17 34.8164 32.725 34.5101 32.2298 34.5101H27.1246C26.6294 34.5101 26.1845 34.8164 26.0074 35.2805L25.2694 37.221C25.1162 37.1335 24.9095 37.079 24.6805 37.079C24.2094 37.079 23.8256 37.307 23.8256 37.5875C23.8256 37.8696 24.2094 38.0976 24.6805 38.0976C24.7741 38.0976 24.8624 38.0864 24.9466 38.0698L24.9356 38.0987L24.3878 38.6777C23.3832 39.7464 23.598 40.9626 23.5696 41.1466C23.5696 41.5173 23.8686 41.8164 24.2395 41.8164H24.471V42.5124C24.471 42.6442 24.55 42.7563 24.6625 42.8079H21.0492V32.7566H38.3053V42.8079L34.692 42.8079Z" fill="white"/>
<path d="M23.3046 21.3811L21.6016 21.7565C21.3532 21.8089 21.2732 22.1208 21.4609 22.2892C21.8997 22.6894 22.4821 22.9323 23.1224 22.9323C23.8621 22.9323 24.5246 22.6066 24.9745 22.0932C25.3084 21.7123 25.8052 21.5135 26.3131 21.5135H26.4814V23.1061H27.58V21.5136H31.7753V23.1062H32.8738V21.5136H33.0449C33.55 21.5136 34.0469 21.7124 34.3808 22.0933C34.8335 22.6067 35.4931 22.9324 36.2328 22.9324C36.8732 22.9324 37.4556 22.6895 37.8916 22.2893C38.0793 22.1181 37.9993 21.809 37.7509 21.7566L36.0479 21.3812C35.8464 21.3371 35.7001 21.1577 35.7001 20.9506V19.9845C35.7001 19.7748 35.8464 19.5981 36.0479 19.5512L37.7536 19.1786C38.002 19.1234 38.0821 18.8143 37.8944 18.6431C37.4555 18.2429 36.8731 18 36.2328 18C35.4931 18 34.8307 18.3257 34.3808 18.8391C34.0469 19.2199 33.55 19.4187 33.0422 19.4187H26.3131C25.8053 19.4187 25.3085 19.2199 24.9745 18.8391C24.5246 18.3257 23.8621 18 23.1224 18C22.4821 18 21.8997 18.2456 21.4636 18.6431C21.2759 18.8142 21.356 19.1234 21.6044 19.1786L23.3046 19.5512C23.5061 19.5981 23.6524 19.7748 23.6524 19.9845V20.9478C23.6524 21.1576 23.5061 21.337 23.3046 21.3811ZM27.5634 19.9845H31.7919C32.0596 19.9845 32.275 20.1998 32.275 20.4676C32.275 20.7325 32.0597 20.9506 31.7919 20.9506H27.5634C27.2957 20.9506 27.0804 20.7325 27.0804 20.4676C27.0805 20.1998 27.2957 19.9845 27.5634 19.9845Z" fill="white"/>
</g>
<defs>
<clipPath id="clip0_6228_13169">
<rect width="28" height="28" fill="white" transform="translate(16.5 16)"/>
</clipPath>
</defs>
</svg>
