<svg width="64" height="75" viewBox="0 0 64 75" fill="none" xmlns="http://www.w3.org/2000/svg">
<g filter="url(#filter0_d_4333_25521)">
<path fill-rule="evenodd" clip-rule="evenodd" d="M32 4C46.9117 4 59 16.2226 59 31.3C59 42.8605 51.8933 52.7427 41.8563 56.7238L33.5375 68.2208C33.3641 68.4615 33.1339 68.658 32.8662 68.7936C32.5985 68.9292 32.3013 69 31.9997 69C31.6981 69 31.4009 68.9292 31.1332 68.7936C30.8656 68.658 30.6353 68.4615 30.4619 68.2208L22.1429 56.7235C12.1063 52.7421 5 42.8602 5 31.3C5 16.2226 17.0883 4 32 4Z" fill="#FF981F"/>
</g>
<rect x="12.3955" y="10.3754" width="40.1455" height="40.3772" rx="20" fill="#F6F9FF"/>
<g clip-path="url(#clip0_4333_25521)">
<path d="M41.371 23.8068H22.9389C22.5919 23.8068 22.3105 24.0881 22.3105 24.4352V27.2045C22.3105 27.5516 22.5919 27.8329 22.9389 27.8329H41.3709C41.7179 27.8329 41.9993 27.5516 41.9993 27.2045V24.4352C41.9993 24.0881 41.718 23.8068 41.371 23.8068Z" fill="#FF981F"/>
<path d="M41.5188 39.9918H40.9143V28.3H23.3955V39.9918H22.791C22.5257 39.9918 22.3105 40.2069 22.3105 40.4722C22.3105 40.7376 22.5257 40.9527 22.791 40.9527H41.5188C41.7841 40.9527 41.9993 40.7376 41.9993 40.4722C41.9993 40.2069 41.7842 39.9918 41.5188 39.9918ZM35.6169 38.5553C35.2387 38.5553 34.9335 38.25 34.9335 37.8719C34.9335 37.4938 35.2388 37.1865 35.6169 37.1865C35.9949 37.1865 36.3002 37.4938 36.3002 37.8719C36.3002 38.25 35.995 38.5553 35.6169 38.5553ZM28.7334 35.6064L29.4312 33.7746C29.5202 33.5408 29.7479 33.3839 29.9978 33.3839H34.312C34.5619 33.3839 34.7896 33.5408 34.8786 33.7746L35.5764 35.6064H28.7334ZM34.3492 37.871C34.3492 37.9827 34.2588 38.0732 34.147 38.0732H30.1628C30.0511 38.0732 29.9606 37.9827 29.9606 37.871C29.9606 37.7592 30.0511 37.6688 30.1628 37.6688H34.147C34.2588 37.6688 34.3492 37.7592 34.3492 37.871ZM29.3764 37.8719C29.3764 38.25 29.0711 38.5553 28.693 38.5553C28.315 38.5553 28.0097 38.25 28.0097 37.8719C28.0097 37.4938 28.315 37.1865 28.693 37.1865C29.0711 37.1865 29.3764 37.4938 29.3764 37.8719ZM29.3966 39.7421V39.1538H34.9133V39.7421C34.9133 39.8534 34.9801 39.9482 35.0751 39.9918H29.2348C29.3298 39.9482 29.3966 39.8535 29.3966 39.7421ZM36.3932 39.9918C36.4882 39.9482 36.555 39.8534 36.555 39.7421V39.1538H36.7507C37.0641 39.1538 37.3169 38.9011 37.3169 38.5877C37.2931 38.4319 37.4744 37.4001 36.6254 36.5011L36.1624 36.0117L36.1529 35.987C36.2247 36.0013 36.3 36.0108 36.3797 36.0108C36.7779 36.0108 37.1005 35.8181 37.1005 35.5797C37.1005 35.3426 36.7779 35.1499 36.3797 35.1499C36.1858 35.1499 36.0103 35.1961 35.8804 35.2704L35.2565 33.63C35.1069 33.2377 34.7308 32.9789 34.3123 32.9789H29.9976C29.579 32.9789 29.203 33.2377 29.0533 33.63L28.4296 35.27C28.3002 35.196 28.1254 35.1499 27.9319 35.1499C27.5337 35.1499 27.2094 35.3427 27.2094 35.5798C27.2094 35.8182 27.5337 36.0109 27.9319 36.0109C28.011 36.0109 28.0856 36.0014 28.1568 35.9874L28.1475 36.0118L27.6845 36.5011C26.8355 37.4044 27.017 38.4322 26.993 38.5877C26.993 38.9011 27.2457 39.1538 27.5591 39.1538H27.7548V39.7421C27.7548 39.8535 27.8216 39.9482 27.9166 39.9918H24.8628V31.4968H39.447V39.9918L36.3932 39.9918Z" fill="#FF981F"/>
<path d="M26.7687 21.8828L25.3294 22.2C25.1195 22.2443 25.0518 22.5079 25.2105 22.6502C25.5814 22.9885 26.0736 23.1937 26.6148 23.1937C27.2399 23.1937 27.7998 22.9185 28.18 22.4846C28.4623 22.1627 28.8821 21.9947 29.3114 21.9947H29.4537V23.3407H30.3821V21.9948H33.9278V23.3408H34.8562V21.9948H35.0009C35.4278 21.9948 35.8477 22.1627 36.1299 22.4847C36.5125 22.9186 37.07 23.1938 37.6951 23.1938C38.2363 23.1938 38.7286 22.9886 39.0971 22.6503C39.2557 22.5057 39.1881 22.2444 38.9782 22.2001L37.5389 21.8829C37.3686 21.8456 37.2449 21.6939 37.2449 21.519V20.7024C37.2449 20.5251 37.3686 20.3758 37.5389 20.3362L38.9805 20.0213C39.1904 19.9746 39.2581 19.7134 39.0994 19.5687C38.7285 19.2305 38.2363 19.0252 37.6951 19.0252C37.07 19.0252 36.5101 19.3005 36.1299 19.7343C35.8477 20.0562 35.4278 20.2242 34.9985 20.2242H29.3114C28.8822 20.2242 28.4623 20.0562 28.1801 19.7343C27.7998 19.3005 27.2399 19.0252 26.6148 19.0252C26.0736 19.0252 25.5814 19.2328 25.2128 19.5687C25.0542 19.7133 25.1218 19.9746 25.3318 20.0213L26.7687 20.3362C26.939 20.3758 27.0626 20.5251 27.0626 20.7024V21.5165C27.0626 21.6938 26.939 21.8455 26.7687 21.8828ZM30.3681 20.7024H33.9419C34.1681 20.7024 34.3501 20.8844 34.3501 21.1107C34.3501 21.3346 34.1682 21.5189 33.9419 21.5189H30.3681C30.1419 21.5189 29.9599 21.3346 29.9599 21.1107C29.9599 20.8844 30.1419 20.7024 30.3681 20.7024Z" fill="#FF981F"/>
</g>
<defs>
<filter id="filter0_d_4333_25521" x="0" y="0" width="64" height="75" filterUnits="userSpaceOnUse" color-interpolation-filters="sRGB">
<feFlood flood-opacity="0" result="BackgroundImageFix"/>
<feColorMatrix in="SourceAlpha" type="matrix" values="0 0 0 0 0 0 0 0 0 0 0 0 0 0 0 0 0 0 127 0" result="hardAlpha"/>
<feOffset dy="1"/>
<feGaussianBlur stdDeviation="2.5"/>
<feComposite in2="hardAlpha" operator="out"/>
<feColorMatrix type="matrix" values="0 0 0 0 0 0 0 0 0 0 0 0 0 0 0 0 0 0 0.1 0"/>
<feBlend mode="normal" in2="BackgroundImageFix" result="effect1_dropShadow_4333_25521"/>
<feBlend mode="normal" in="SourceGraphic" in2="effect1_dropShadow_4333_25521" result="shape"/>
</filter>
<clipPath id="clip0_4333_25521">
<rect width="24" height="24" fill="white" transform="translate(21 17)"/>
</clipPath>
</defs>
</svg>
