<svg width="18" height="18" viewBox="0 0 18 18" fill="none" xmlns="http://www.w3.org/2000/svg">
<g clip-path="url(#clip0_4507_43258)">
<path d="M15.2787 5.10511H1.45466C1.1944 5.10511 0.983398 5.31611 0.983398 5.57637V7.65341C0.983398 7.91368 1.1944 8.12468 1.45466 8.12468H15.2787C15.5389 8.12468 15.7499 7.91368 15.7499 7.65341V5.57637C15.75 5.31611 15.539 5.10511 15.2787 5.10511Z" fill="white"/>
<path d="M15.3896 17.2438H14.9362V8.47503H1.79715V17.2438H1.34375C1.14474 17.2438 0.983398 17.4052 0.983398 17.6042C0.983398 17.8032 1.14474 17.9645 1.34375 17.9645H15.3896C15.5886 17.9645 15.7499 17.8032 15.7499 17.6042C15.75 17.4052 15.5886 17.2438 15.3896 17.2438ZM10.9631 16.1665C10.6795 16.1665 10.4506 15.9375 10.4506 15.6539C10.4506 15.3703 10.6796 15.1398 10.9631 15.1398C11.2467 15.1398 11.4757 15.3703 11.4757 15.6539C11.4757 15.9375 11.2467 16.1665 10.9631 16.1665ZM5.80052 13.9548L6.32386 12.581C6.39063 12.4056 6.56139 12.2879 6.74885 12.2879H9.98445C10.1719 12.2879 10.3427 12.4056 10.4094 12.581L10.9328 13.9548H5.80052ZM10.0124 15.6532C10.0124 15.737 9.94457 15.8049 9.86077 15.8049H6.8726C6.7888 15.8049 6.72096 15.737 6.72096 15.6532C6.72096 15.5694 6.7888 15.5016 6.8726 15.5016H9.86077C9.94457 15.5016 10.0124 15.5694 10.0124 15.6532ZM6.28281 15.6539C6.28281 15.9375 6.05382 16.1665 5.77028 16.1665C5.48673 16.1665 5.25774 15.9375 5.25774 15.6539C5.25774 15.3703 5.48673 15.1398 5.77028 15.1398C6.05382 15.1398 6.28281 15.3703 6.28281 15.6539ZM6.29793 17.0565V16.6153H10.4354V17.0565C10.4354 17.1401 10.4855 17.2111 10.5568 17.2438H6.1766C6.24786 17.2111 6.29793 17.1401 6.29793 17.0565ZM11.5454 17.2438C11.6167 17.2111 11.6668 17.1401 11.6668 17.0565V16.6153H11.8135C12.0486 16.6153 12.2381 16.4258 12.2381 16.1907C12.2203 16.0739 12.3563 15.3001 11.7195 14.6258L11.3723 14.2588L11.3652 14.2403C11.419 14.251 11.4755 14.2581 11.5352 14.2581C11.8339 14.2581 12.0758 14.1136 12.0758 13.9348C12.0758 13.757 11.8339 13.6124 11.5352 13.6124C11.3899 13.6124 11.2582 13.6471 11.1608 13.7028L10.6929 12.4725C10.5807 12.1783 10.2986 11.9841 9.98468 11.9841H6.74866C6.43477 11.9841 6.15271 12.1783 6.04047 12.4725L5.57269 13.7025C5.47561 13.647 5.34454 13.6125 5.19941 13.6125C4.90078 13.6125 4.65753 13.757 4.65753 13.9348C4.65753 14.1136 4.90078 14.2582 5.19941 14.2582C5.25871 14.2582 5.31471 14.2511 5.36808 14.2405L5.36111 14.2588L5.01385 14.6258C4.37708 15.3033 4.51321 16.0742 4.49522 16.1908C4.49522 16.4258 4.68478 16.6154 4.91983 16.6154H5.0666V17.0566C5.0666 17.1401 5.11671 17.2111 5.18797 17.2439H2.89761V10.8726H13.8358V17.2439L11.5454 17.2438Z" fill="white"/>
<path d="M4.32703 3.66209L3.24756 3.90001C3.09012 3.93325 3.03937 4.13094 3.15834 4.23766C3.43654 4.49135 3.80569 4.64531 4.21157 4.64531C4.68044 4.64531 5.10035 4.43886 5.3855 4.11343C5.59718 3.87199 5.9121 3.74602 6.23401 3.74602H6.34074V4.75552H7.03706V3.74608H9.69634V4.75558H10.3927V3.74608H10.5011C10.8213 3.74608 11.1362 3.87206 11.3479 4.11349C11.6348 4.43892 12.053 4.64538 12.5218 4.64538C12.9277 4.64538 13.2969 4.49142 13.5733 4.23773C13.6923 4.12926 13.6415 3.93332 13.4841 3.90008L12.4046 3.66215C12.2769 3.63417 12.1842 3.52045 12.1842 3.38922V2.77682C12.1842 2.64385 12.2769 2.53187 12.4046 2.50214L13.4858 2.26596C13.6433 2.23098 13.694 2.03504 13.5751 1.92654C13.2969 1.67285 12.9277 1.51889 12.5218 1.51889C12.053 1.51889 11.6331 1.72534 11.3479 2.05074C11.1362 2.29218 10.8213 2.41815 10.4994 2.41815H6.23405C5.91213 2.41815 5.59721 2.29218 5.38554 2.05074C5.10035 1.72534 4.68044 1.51889 4.21157 1.51889C3.80566 1.51889 3.43651 1.67459 3.16009 1.92654C3.04111 2.03501 3.09186 2.23098 3.2493 2.26596L4.32703 2.50214C4.45474 2.53187 4.54747 2.64385 4.54747 2.77682V3.38741C4.54747 3.52038 4.45478 3.6341 4.32703 3.66209ZM7.02658 2.77682H9.70689C9.87658 2.77682 10.0131 2.91328 10.0131 3.083C10.0131 3.25096 9.87662 3.38918 9.70689 3.38918H7.02658C6.85689 3.38918 6.7204 3.25096 6.7204 3.083C6.72043 2.91328 6.85689 2.77682 7.02658 2.77682Z" fill="white"/>
</g>
<defs>
<clipPath id="clip0_4507_43258">
<rect width="18" height="18" fill="white"/>
</clipPath>
</defs>
</svg>
