<svg width="25" height="24" viewBox="0 0 25 24" fill="none" xmlns="http://www.w3.org/2000/svg">
<path fill-rule="evenodd" clip-rule="evenodd" d="M10.125 20.7714V17.7047C10.125 16.9246 10.7609 16.2908 11.5488 16.2856H14.4349C15.2265 16.2856 15.8683 16.9209 15.8683 17.7047V17.7047V20.7809C15.8681 21.4432 16.402 21.9845 17.0708 22H18.9949C20.9129 22 22.4678 20.4607 22.4678 18.5618V18.5618V9.83784C22.4575 9.09083 22.1032 8.38935 21.5057 7.93303L14.9255 2.6853C13.7727 1.77157 12.134 1.77157 10.9812 2.6853L4.4298 7.94256C3.83003 8.39702 3.47516 9.09967 3.46777 9.84736V18.5618C3.46777 20.4607 5.02265 22 6.94068 22H8.86474C9.55013 22 10.1057 21.4499 10.1057 20.7714V20.7714" fill="white"/>
<path d="M10.125 20.7714V17.7047C10.125 16.9246 10.7609 16.2908 11.5488 16.2856H14.4349C15.2265 16.2856 15.8683 16.9209 15.8683 17.7047V17.7047V20.7809C15.8681 21.4432 16.402 21.9845 17.0708 22H18.9949C20.9129 22 22.4678 20.4607 22.4678 18.5618V18.5618V9.83784C22.4575 9.09083 22.1032 8.38935 21.5057 7.93303L14.9255 2.6853C13.7727 1.77157 12.134 1.77157 10.9812 2.6853L4.4298 7.94256C3.83003 8.39702 3.47516 9.09967 3.46777 9.84736V18.5618C3.46777 20.4607 5.02265 22 6.94068 22H8.86474C9.55013 22 10.1057 21.4499 10.1057 20.7714V20.7714" stroke="white" stroke-width="1.5" stroke-linecap="round" stroke-linejoin="round"/>
</svg>
