<svg width="25" height="25" viewBox="0 0 25 25" fill="none" xmlns="http://www.w3.org/2000/svg">
<path d="M10.125 21.2502V18.1834C10.125 17.4034 10.7609 16.7696 11.5488 16.7644H14.4349C15.2265 16.7644 15.8683 17.3997 15.8683 18.1834V18.1834V21.2597C15.8681 21.922 16.402 22.4632 17.0708 22.4788H18.9949C20.9129 22.4788 22.4678 20.9394 22.4678 19.0406V19.0406V10.3166C22.4575 9.56959 22.1032 8.86811 21.5057 8.41179L14.9255 3.16406C13.7727 2.25033 12.134 2.25033 10.9812 3.16406L4.4298 8.42132C3.83003 8.87578 3.47516 9.57843 3.46777 10.3261V19.0406C3.46777 20.9394 5.02265 22.4788 6.94068 22.4788H8.86474C9.55013 22.4788 10.1057 21.9287 10.1057 21.2502V21.2502" stroke="#9E9E9E" stroke-width="1.5" stroke-linecap="round" stroke-linejoin="round"/>
</svg>
