<svg width="25" height="25" viewBox="0 0 25 25" fill="none" xmlns="http://www.w3.org/2000/svg">
<path d="M10.1026 21.252V18.1943C10.1026 17.4138 10.7399 16.781 11.5262 16.781H14.4004C14.778 16.781 15.1401 16.9299 15.4071 17.195C15.674 17.46 15.824 17.8195 15.824 18.1943V21.252C15.8217 21.5765 15.9498 21.8886 16.1801 22.1189C16.4104 22.3492 16.7238 22.4787 17.0507 22.4787H19.0116C19.9274 22.481 20.8065 22.1215 21.4549 21.4795C22.1034 20.8375 22.4678 19.9657 22.4678 19.0565V10.3456C22.4677 9.61116 22.1398 8.91454 21.5724 8.44337L14.9018 3.15457C13.7414 2.22726 12.0789 2.2572 10.9532 3.22568L4.43479 8.44337C3.84051 8.90065 3.48533 9.59933 3.46777 10.3456V19.0476C3.46777 20.9426 5.01515 22.4787 6.92395 22.4787H8.84006C9.519 22.4787 10.0708 21.9349 10.0757 21.2609L10.1026 21.252Z" fill="#2C78B4"/>
</svg>
