<svg width="24" height="24" viewBox="0 0 24 24" fill="none" xmlns="http://www.w3.org/2000/svg">
<path fill-rule="evenodd" clip-rule="evenodd" d="M7.66618 22H16.3328C19.7231 22 22 19.6219 22 16.0833V7.91672C22 4.37811 19.7231 2 16.3338 2H7.66618C4.2769 2 2 4.37811 2 7.91672V16.0833C2 19.6219 4.2769 22 7.66618 22ZM8.49939 11C7.12075 11 6.00053 9.8783 6.00053 8.50003C6.00053 7.12176 7.12075 6.00003 8.49939 6.00003C9.87703 6.00003 10.9983 7.12176 10.9983 8.50003C10.9983 9.8783 9.87703 11 8.49939 11ZM19.821 14.934C20.1558 15.7926 19.9819 16.8246 19.6239 17.6749C19.1995 18.6863 18.387 19.452 17.3634 19.7864C16.9088 19.935 16.4322 20 15.9566 20H7.52882C6.69017 20 5.94806 19.7988 5.33968 19.4242C4.95857 19.1889 4.89119 18.6461 5.17376 18.2941C5.64638 17.7059 6.11297 17.1156 6.58358 16.5201C7.48055 15.3808 8.08491 15.0506 8.75663 15.3406C9.02914 15.4603 9.30266 15.6399 9.58422 15.8297C10.3344 16.3396 11.3772 17.0403 12.7508 16.2797C13.6908 15.7532 14.236 14.8502 14.7108 14.0637L14.7187 14.0506C14.7523 13.9954 14.7857 13.9403 14.8189 13.8852C14.9785 13.6212 15.1359 13.3608 15.314 13.1208C15.5372 12.8205 16.3648 11.8813 17.4368 12.5501C18.1196 12.9711 18.6937 13.5408 19.3081 14.1507C19.5424 14.3839 19.7094 14.6491 19.821 14.934Z" fill="#2C78B4"/>
</svg>
