<svg width="21" height="20" viewBox="0 0 21 20" fill="none" xmlns="http://www.w3.org/2000/svg">
<path fill-rule="evenodd" clip-rule="evenodd" d="M6.88881 18.3334H14.111C16.9362 18.3334 18.8337 16.3517 18.8337 13.4028V6.59735C18.8337 3.64851 16.9362 1.66675 14.1118 1.66675H6.88881C4.06441 1.66675 2.16699 3.64851 2.16699 6.59735V13.4028C2.16699 16.3517 4.06441 18.3334 6.88881 18.3334ZM7.58271 9.16675C6.43384 9.16675 5.50033 8.23197 5.50033 7.08342C5.50033 5.93486 6.43384 5.00008 7.58271 5.00008C8.73074 5.00008 9.66509 5.93486 9.66509 7.08342C9.66509 8.23197 8.73074 9.16675 7.58271 9.16675ZM17.0177 12.445C17.2967 13.1606 17.1517 14.0205 16.8534 14.7292C16.4998 15.572 15.8227 16.2101 14.9696 16.4887C14.5909 16.6126 14.1937 16.6667 13.7973 16.6667H6.7742C6.07532 16.6667 5.45689 16.499 4.94991 16.1869C4.63232 15.9908 4.57617 15.5384 4.81165 15.2452C5.2055 14.755 5.59432 14.2631 5.98649 13.7669C6.73397 12.8174 7.2376 12.5422 7.79737 12.7839C8.02446 12.8836 8.25239 13.0333 8.48703 13.1915C9.11216 13.6164 9.98115 14.2003 11.1258 13.5665C11.9092 13.1277 12.3635 12.3752 12.7591 11.7199L12.7658 11.7089C12.7937 11.663 12.8215 11.6171 12.8491 11.5714L12.8493 11.5711L12.8493 11.5711C12.9823 11.3511 13.1134 11.134 13.2618 10.934C13.4479 10.6838 14.1375 9.90118 15.0308 10.4585C15.5998 10.8093 16.0783 11.2841 16.5903 11.7923C16.7855 11.9867 16.9247 12.2077 17.0177 12.445Z" fill="white"/>
</svg>
