<svg width="160" height="160" viewBox="0 0 160 160" fill="none" xmlns="http://www.w3.org/2000/svg">
<g clip-path="url(#clip0_4277_20423)">
<path fill-rule="evenodd" clip-rule="evenodd" d="M88 128C92.2435 128 96.3131 129.686 99.3137 132.686C102.314 135.687 104 139.757 104 144C104 148.243 102.314 152.313 99.3137 155.314C96.3131 158.314 92.2435 160 88 160C83.7565 160 79.6869 158.314 76.6863 155.314C73.6857 152.313 72 148.243 72 144C72 139.757 73.6857 135.687 76.6863 132.686C79.6869 129.686 83.7565 128 88 128ZM37.928 104C43.2323 104 48.3194 106.107 52.0701 109.858C55.8209 113.609 57.928 118.696 57.928 124C57.928 129.304 55.8209 134.391 52.0701 138.142C48.3194 141.893 43.2323 144 37.928 144C32.6237 144 27.5366 141.893 23.7859 138.142C20.0351 134.391 17.928 129.304 17.928 124C17.928 118.696 20.0351 113.609 23.7859 109.858C27.5366 106.107 32.6237 104 37.928 104ZM130.552 108C134.795 108 138.865 109.686 141.866 112.686C144.866 115.687 146.552 119.757 146.552 124C146.552 128.243 144.866 132.313 141.866 135.314C138.865 138.314 134.795 140 130.552 140C126.309 140 122.239 138.314 119.238 135.314C116.238 132.313 114.552 128.243 114.552 124C114.552 119.757 116.238 115.687 119.238 112.686C122.239 109.686 126.309 108 130.552 108ZM148 74.552C151.183 74.552 154.235 75.8163 156.485 78.0667C158.736 80.3172 160 83.3694 160 86.552C160 89.7346 158.736 92.7868 156.485 95.0373C154.235 97.2877 151.183 98.552 148 98.552C144.817 98.552 141.765 97.2877 139.515 95.0373C137.264 92.7868 136 89.7346 136 86.552C136 83.3694 137.264 80.3172 139.515 78.0667C141.765 75.8163 144.817 74.552 148 74.552ZM20 48C25.3043 48 30.3914 50.1071 34.1421 53.8579C37.8929 57.6086 40 62.6957 40 68C40 73.3043 37.8929 78.3914 34.1421 82.1421C30.3914 85.8929 25.3043 88 20 88C14.6957 88 9.60859 85.8929 5.85786 82.1421C2.10714 78.3914 0 73.3043 0 68C0 62.6957 2.10714 57.6086 5.85786 53.8579C9.60859 50.1071 14.6957 48 20 48ZM142.288 41.656C144.41 41.656 146.445 42.4989 147.945 43.9991C149.445 45.4994 150.288 47.5343 150.288 49.656C150.288 51.7777 149.445 53.8126 147.945 55.3129C146.445 56.8131 144.41 57.656 142.288 57.656C140.166 57.656 138.131 56.8131 136.631 55.3129C135.131 53.8126 134.288 51.7777 134.288 49.656C134.288 47.5343 135.131 45.4994 136.631 43.9991C138.131 42.4989 140.166 41.656 142.288 41.656ZM64 0C70.3652 0 76.4697 2.52856 80.9706 7.02944C85.4714 11.5303 88 17.6348 88 24C88 30.3652 85.4714 36.4697 80.9706 40.9706C76.4697 45.4714 70.3652 48 64 48C57.6348 48 51.5303 45.4714 47.0294 40.9706C42.5286 36.4697 40 30.3652 40 24C40 17.6348 42.5286 11.5303 47.0294 7.02944C51.5303 2.52856 57.6348 0 64 0V0ZM124 24C125.061 24 126.078 24.4214 126.828 25.1716C127.579 25.9217 128 26.9391 128 28C128 29.0609 127.579 30.0783 126.828 30.8284C126.078 31.5786 125.061 32 124 32C122.939 32 121.922 31.5786 121.172 30.8284C120.421 30.0783 120 29.0609 120 28C120 26.9391 120.421 25.9217 121.172 25.1716C121.922 24.4214 122.939 24 124 24Z" fill="url(#paint0_linear_4277_20423)"/>
</g>
<defs>
<linearGradient id="paint0_linear_4277_20423" x1="160" y1="160" x2="-30.3856" y2="104.799" gradientUnits="userSpaceOnUse">
<stop stop-color="#2C78B4"/>
<stop offset="1" stop-color="#4299DE"/>
</linearGradient>
<clipPath id="clip0_4277_20423">
<rect width="160" height="160" fill="white"/>
</clipPath>
</defs>
</svg>
