<svg width="430" height="932" viewBox="0 0 430 932" fill="none" xmlns="http://www.w3.org/2000/svg">
<mask id="mask0_4278_23734" style="mask-type:luminance" maskUnits="userSpaceOnUse" x="-767" y="-55" width="1377" height="1269">
<path d="M610 -54.0317H-767V1213.68H610V-54.0317Z" fill="white"/>
</mask>
<g mask="url(#mask0_4278_23734)">
<g opacity="0.1">
<path d="M-787.01 -37.9145L-785.141 665.486L-787.01 1227.42H292.51L246.778 1200.35L-134.802 1141.04L-179.737 1189.11L-160.938 1146.78L-187.075 1137.78L-216.51 1185.85L-246.741 1180.56L-219.011 1138.38L-274.555 1128.87L-303.11 1173.83L-325.976 1168.54L-290.028 1127.28L-331.885 1117.76L-342.329 1137.85L-603.778 1112.98L-612.765 1090.21L-546.585 1003.45L-348.045 1025.66L-274.5 1003.45L-48.1739 1019.94L167.516 865.449H210.83L144.65 964.911L49.0349 1043.22L194.477 1064.65L344.014 1118.34L557.532 1070.55L563.029 1173.73L493.276 1227.42H594.498L597.246 -37.6868L-787.01 -37.9145ZM-510.335 882.831L-605.619 919.342L-586.628 966.151L-605.619 997.905L-586.628 1001.88L-624.61 1051.09L-776.594 754.271L-766.782 726.97L-761.89 651.316L-709.177 624.066L-623.401 477.313L-701.839 376.763L-646.68 79.2345L-647.916 207.01L-597.457 274.289L-630.739 372.487L-582.946 486.776L-658.937 651.24L-701.839 790.655L-644.124 821.271L-598.776 796.5L-603.778 832.429L-665.066 877.265L-633.213 894.723L-493.047 832.429L-510.335 882.831Z" fill="black"/>
</g>
<path d="M-526.412 994.313L-527.511 993.857C-528.968 993.275 -672.019 935.283 -720.582 918.887C-777.253 899.759 -952.13 851.963 -953.889 851.482L-951.553 844.22C-949.794 844.701 -774.67 892.548 -717.751 911.777C-671.222 927.465 -538.89 980.953 -525.368 986.469C-497.884 982.37 -18.0521 911.221 145.392 903.959C245.733 899.48 542.966 916.762 560.94 917.824L595.927 906.691L598.675 913.852L562.122 925.491H561.298C558.192 925.314 248.344 907.02 145.859 911.575C-21.1301 918.963 -520.173 993.377 -525.203 994.136L-526.412 994.313Z" fill="white" stroke="white" stroke-width="2" stroke-miterlimit="10"/>
<path d="M-814.356 1847.32L-821.831 1844.14C-820.1 1840.65 -645.608 1493.98 -556.012 1349.2C-469.741 1209.81 -297.668 966.43 -208.622 845.84C-147.471 763.076 -44.8483 629.101 45.7094 510.915C106.173 432.048 163.173 357.559 203.656 303.918C269.974 215.993 466.865 -51.3244 468.844 -54.0317L475.659 -49.7557C473.681 -47.0736 276.79 220.294 210.417 308.27C169.934 361.911 112.851 436.425 52.4427 515.292C-38.0875 633.453 -140.683 767.403 -201.806 850.116C-290.852 970.478 -462.706 1213.61 -548.811 1352.82C-638.27 1497.32 -812.652 1843.71 -814.356 1847.32Z" fill="white" stroke="white" stroke-width="2" stroke-miterlimit="10"/>
<path d="M34.0571 531.334L-432.913 88.1665L-389.682 -53.0701L-381.739 -50.9954L-423.679 86.0159L39.966 526.071L34.0571 531.334Z" fill="white" stroke="white" stroke-width="2" stroke-miterlimit="10"/>
<path d="M165.51 908.614L157.842 905.831L292.043 592.211L243.068 396.878L185.408 332.737L191.756 327.904L250.681 393.412L250.9 394.297L300.645 592.793L300.178 593.906L165.51 908.614Z" fill="white"/>
<path d="M207.23 355.003L65.6352 158.633L-207.44 28.4784L-207.687 28.3013L-308.688 -50.0848L-305.143 -53.956L-204.389 24.253L69.4279 154.736L69.8402 155.293L211.792 352.194L207.23 355.003Z" fill="white"/>
<path d="M78.7246 172.801L-123.247 336.27L-119.618 340.071L82.3538 176.601L78.7246 172.801Z" fill="white"/>
<path d="M8.36371 127.196L-96.1748 223.573L-90.3406 228.936L14.1979 132.56L8.36371 127.196Z" fill="white"/>
<path d="M-40.6851 177.553L-44.2607 181.397L15.0829 228.191L18.6585 224.347L-40.6851 177.553Z" fill="white"/>
<path d="M-13.2845 151.914L-16.5107 156.011L49.7985 200.267L53.0247 196.17L-13.2845 151.914Z" fill="white"/>
<path d="M-283.679 544.137L-287.444 537.381L-183.117 488.067L-100.942 397.738L25.0692 285.928L30.7858 291.393L-95.0607 403.077L-177.868 494.114L-283.679 544.137Z" fill="white"/>
<path d="M156.2 281.796L24.6855 436.88L31.1845 441.551L162.699 286.468L156.2 281.796Z" fill="white"/>
<path d="M118.001 253.807L-15.7021 377.114L-9.86696 382.476L123.837 259.169L118.001 253.807Z" fill="white"/>
<path d="M-10.7662 248.579L-14.8369 251.979L52.0182 319.811L56.0889 316.41L-10.7662 248.579Z" fill="white"/>
<path d="M125.357 413.198L78.9098 381.798L23.6133 346.831L26.7188 342.656L82.0979 377.674L128.627 409.124L125.357 413.198Z" fill="white"/>
<path d="M165.208 360.924L120.849 329.726L75.9141 298.453L79.2395 294.404L124.175 325.703L168.533 356.901L165.208 360.924Z" fill="white"/>
<path d="M160.619 671.989L-31.4902 621.207L-29.9786 616.349L158.31 666.119L271.679 511.725L102.189 444.497L104.388 439.841L279.952 509.498L160.619 671.989Z" fill="white"/>
<path d="M106.255 621.991L1.54297 575.739L3.93401 571.185L104.413 615.565L157.539 545.048L57.8564 502.262L60.1925 497.682L165.784 542.998L106.255 621.991Z" fill="white"/>
<path d="M124.81 592.094L122.554 596.708L191.996 625.493L194.252 620.879L124.81 592.094Z" fill="white"/>
<path d="M156.085 612.006L118.425 661.883L122.932 664.768L160.592 614.89L156.085 612.006Z" fill="white"/>
<path d="M212.44 484.691L159.564 542.438L163.767 545.7L216.643 487.953L212.44 484.691Z" fill="white"/>
<path d="M103.118 617.414L79.9863 647.258L84.4607 650.198L107.592 620.354L103.118 617.414Z" fill="white"/>
<path d="M244.833 393.402L169.905 467.634L173.932 471.079L248.859 396.847L244.833 393.402Z" fill="white"/>
<path d="M144.436 388.178L141.338 392.358L207.943 434.203L211.042 430.023L144.436 388.178Z" fill="white"/>
<path d="M28.5087 757.067L27.3818 762.02L209.331 797.106L210.458 792.153L28.5087 757.067Z" fill="white"/>
<path d="M254.419 907.223H248.922V875.671L15.1758 807.456L16.8522 802.623L254.419 871.977V907.223Z" fill="white"/>
<path d="M207.27 605.08L205.786 609.938L281.324 629.497L282.808 624.639L207.27 605.08Z" fill="white"/>
<path d="M160.343 666.697L158.631 671.506L250.846 699.336L252.558 694.528L160.343 666.697Z" fill="white"/>
<path d="M87.7863 184.087L84.1035 180.317L274.481 23.2158L442.624 -15.1929L443.943 -10.2843L277.147 27.8461L87.7863 184.087Z" fill="white"/>
<path d="M69.3505 0.20108L65.2344 3.55489L170.132 112.672L174.249 109.318L69.3505 0.20108Z" fill="white"/>
<path d="M250.353 73.4405L232.076 61.8521L106.175 -50.2111L109.995 -53.8546L235.732 58.0821L253.458 69.2404L250.353 73.4405Z" fill="white"/>
<path d="M170.291 3.18086L114.655 51.2799L118.418 54.9688L174.054 6.86976L170.291 3.18086Z" fill="white"/>
<path d="M183.794 99.921L181.854 104.656L321.569 153.157L323.509 148.422L183.794 99.921Z" fill="white"/>
<path d="M130.369 144.006L128.307 148.697L282.201 206.054L284.263 201.364L130.369 144.006Z" fill="white"/>
<path d="M248.72 46.6855L246.175 51.1709L357.112 104.519L359.657 100.034L248.72 46.6855Z" fill="white"/>
<path d="M417.505 189.097L308.286 171.866L309.221 166.856L413.383 183.303L448.177 51.3013L399.476 48.9988L399.751 43.9384L455.075 46.5698L417.505 189.097Z" fill="white"/>
<path d="M338.102 127.337L337.721 132.385L428.499 138.2L428.88 133.152L338.102 127.337Z" fill="white"/>
<path d="M402.735 135.255L392.844 182.587L398.241 183.543L408.133 136.211L402.735 135.255Z" fill="white"/>
<path d="M364.176 131.035L350.982 175.743L356.287 177.069L369.481 132.362L364.176 131.035Z" fill="white"/>
<path d="M294.353 1244.3L-32.7265 925.567L-167.478 796.323L-163.52 792.832L-28.7415 922.075L298.338 1240.83L294.353 1244.3Z" fill="white"/>
<path d="M270.25 477.187L267.446 472.81L382.327 410.389L263.214 228.897L267.914 226.291L389.912 412.135L270.25 477.187Z" fill="white"/>
<path d="M309.154 294.348L212.692 356.809L215.855 360.948L312.316 298.488L309.154 294.348Z" fill="white"/>
<path d="M230.573 276.816L225.611 278.994L253.56 332.963L258.522 330.786L230.573 276.816Z" fill="white"/>
<path d="M595.734 340.277L550.881 310.497L295.945 276.996L296.742 271.987L552.997 305.664L598.922 336.178L595.734 340.277Z" fill="white"/>
<path d="M455.488 403.02L385.853 408.798L386.346 413.838L455.981 408.06L455.488 403.02Z" fill="white"/>
<path d="M377.543 666.447L372.706 664.069L396.617 622.624L389.746 499.529L432.18 406.24L437.264 408.213L395.325 500.415L402.196 623.763L377.543 666.447Z" fill="white"/>
<path d="M546.643 464.422L271.183 490.585L271.747 495.618L547.207 469.456L546.643 464.422Z" fill="white"/>
<path d="M578.305 496.289L392.96 520.419L393.729 525.429L579.074 501.299L578.305 496.289Z" fill="white"/>
<path d="M396.542 547.065L393.974 551.539L505.744 605.929L508.312 601.455L396.542 547.065Z" fill="white"/>
<path d="M400.067 620.79L398.869 625.728L450.637 636.373L451.835 631.434L400.067 620.79Z" fill="white"/>
<path d="M466.984 531.633L418.371 627.349L423.35 629.492L471.963 533.777L466.984 531.633Z" fill="white"/>
<path d="M294.663 583.064L294.423 588.119L397.36 592.257L397.6 587.201L294.663 583.064Z" fill="white"/>
<path d="M596.175 746.832L412.064 669.458L318.73 667.738L268.573 658.629L269.645 653.67L319.555 662.728L413.301 664.423L598.484 742.227L596.175 746.832Z" fill="white"/>
<path d="M220.669 768.527L219.112 773.38L377.5 816.435L379.057 811.582L220.669 768.527Z" fill="white"/>
<path d="M456.695 685.74L412.775 809.082L417.999 810.658L461.918 687.316L456.695 685.74Z" fill="white"/>
<path d="M402.317 666.101L355.139 807.815L360.394 809.297L407.573 667.584L402.317 666.101Z" fill="white"/>
<path d="M316.666 664.634L277.89 786.873L283.166 788.292L321.942 666.052L316.666 664.634Z" fill="white"/>
<path d="M-11.9766 56.9942L-15.6318 53.4013L6.35487 34.2729L10.1476 37.9417L-11.9766 56.9942ZM31.9968 18.7373L28.2316 15.0432L50.2183 -4.08522L53.9835 -0.416408L31.9968 18.7373Z" fill="white"/>
<path d="M125.052 1389.84L96.3321 1374.96L99.0804 1370.56L127.801 1385.43L125.052 1389.84ZM67.5845 1360.08L38.8369 1345.18L41.5852 1340.78L70.3328 1355.65L67.5845 1360.08ZM30.0147 1314.54L23.9134 1284.68L29.4101 1283.74L35.4289 1313.45L30.0147 1314.54ZM17.8121 1254.85L12.8926 1230.84L23.3088 1227.35L25.2051 1232.1L19.1588 1234.13L23.1988 1253.91L17.8121 1254.85ZM202.748 1252.19L176.749 1242.27L178.837 1237.59L202.171 1246.47L206.183 1243.94L209.234 1248.14L202.748 1252.19ZM236.607 1231.37L233.557 1227.14L261.04 1210.27L264.091 1214.49L236.607 1231.37ZM146.242 1230.69L115.763 1219.1L117.852 1214.42L148.331 1226.03L146.242 1230.69ZM56.1789 1221.73L54.3101 1216.97L85.3113 1206.6L87.1802 1211.33L56.1789 1221.73ZM291.437 1197.62L288.386 1193.42L315.869 1176.54L318.92 1180.74L291.437 1197.62ZM346.403 1163.86L343.353 1159.66L364.707 1146.51L363.636 1144.84L368.39 1142.3L372.045 1148.1L346.403 1163.86ZM347.008 1118.6L344.26 1114.07L370.204 1096.48L373.475 1100.56L351.488 1115.43L351.873 1116.04L347.008 1118.6ZM399.941 1082.57L396.616 1078.47L423.192 1060.48L426.435 1064.55L399.941 1082.57ZM453.066 1046.59L449.796 1042.51L476.317 1024.5L479.588 1028.57L453.066 1046.59ZM499.926 1004.28L494.951 1002.18L508.693 974.577L513.695 976.702L499.926 1004.28ZM527.409 949.123L522.435 946.998L536.176 919.418L541.178 921.543L527.409 949.123ZM554.892 893.939L549.89 891.839L563.632 864.259L568.634 866.359L554.892 893.939ZM582.376 838.78L577.374 836.655L589.164 813.098L594.166 815.198L582.376 838.78Z" fill="white"/>
</g>
</svg>
