<svg width="186" height="180" viewBox="0 0 186 180" fill="none" xmlns="http://www.w3.org/2000/svg">
<circle cx="95.5" cy="90.5" r="70.5" fill="url(#paint0_linear_4856_20911)"/>
<circle cx="178.467" cy="27.5" r="7.5" fill="#4299DE"/>
<circle cx="20.0332" cy="10" r="10" fill="#4299DE"/>
<circle cx="10.0332" cy="133" r="5" fill="#4299DE"/>
<circle cx="165.533" cy="160.5" r="2.5" fill="#4299DE"/>
<path fill-rule="evenodd" clip-rule="evenodd" d="M74.6045 86.3645C74.6045 75.0565 84.054 65.9167 95.4842 65.9167C106.947 65.9167 116.396 75.0565 116.396 86.3645C116.396 92.0627 114.324 97.3529 110.913 101.837C107.15 106.783 102.512 111.092 97.2913 114.475C96.0965 115.256 95.0182 115.315 93.7068 114.475C88.4565 111.092 83.8185 106.783 80.0878 101.837C76.6744 97.3529 74.6045 92.0627 74.6045 86.3645ZM88.6028 87.0012C88.6028 90.7894 91.694 93.7688 95.4842 93.7688C99.2769 93.7688 102.398 90.7894 102.398 87.0012C102.398 83.2425 99.2769 80.1181 95.4842 80.1181C91.694 80.1181 88.6028 83.2425 88.6028 87.0012Z" fill="white"/>
<circle cx="106.533" cy="4.5" r="2.5" fill="#4299DE"/>
<circle cx="62.5332" cy="176.5" r="3.5" fill="#4299DE"/>
<circle cx="122.033" cy="171" r="1" fill="#4299DE"/>
<circle cx="170.533" cy="110.5" r="2.5" fill="#4299DE"/>
<circle cx="1.0332" cy="75" r="1" fill="#4299DE"/>
<defs>
<linearGradient id="paint0_linear_4856_20911" x1="166" y1="161" x2="-1.77734" y2="112.355" gradientUnits="userSpaceOnUse">
<stop stop-color="#2C78B4"/>
<stop offset="1" stop-color="#4299DE"/>
</linearGradient>
</defs>
</svg>
