<svg width="52" height="52" viewBox="0 0 52 52" fill="none" xmlns="http://www.w3.org/2000/svg">
<rect width="52" height="52" rx="26" fill="#2C78B4"/>
<path d="M25.9997 30.6667C28.577 30.6667 30.6663 28.5773 30.6663 26C30.6663 23.4227 28.577 21.3333 25.9997 21.3333C23.4223 21.3333 21.333 23.4227 21.333 26C21.333 28.5773 23.4223 30.6667 25.9997 30.6667Z" fill="white"/>
<path d="M27.1663 16.7472V14.3333H24.833V16.7472C22.78 17.0093 20.8721 17.9455 19.4087 19.409C17.9452 20.8725 17.009 22.7804 16.7468 24.8333H14.333V27.1667H16.7468C17.0086 29.2198 17.9447 31.1279 19.4082 32.5914C20.8718 34.055 22.7799 34.9911 24.833 35.2528V37.6667H27.1663V35.2528C29.2196 34.9913 31.1278 34.0552 32.5913 32.5917C34.0549 31.1281 34.991 29.2199 35.2525 27.1667H37.6663V24.8333H35.2525C34.9908 22.7802 34.0546 20.8721 32.5911 19.4086C31.1276 17.945 29.2195 17.0089 27.1663 16.7472ZM25.9997 33C22.1392 33 18.9997 29.8605 18.9997 26C18.9997 22.1395 22.1392 19 25.9997 19C29.8602 19 32.9997 22.1395 32.9997 26C32.9997 29.8605 29.8602 33 25.9997 33Z" fill="white"/>
</svg>
