<svg width="60" height="60" viewBox="0 0 60 60" fill="none" xmlns="http://www.w3.org/2000/svg">
<rect width="60" height="60" rx="30" fill="#2C78B4"/>
<g clip-path="url(#clip0_6228_11086)">
<g clip-path="url(#clip1_6228_11086)">
<path fill-rule="evenodd" clip-rule="evenodd" d="M35.6116 35.4309H24.3875C24.3539 35.4279 24.3231 35.4498 24.3151 35.4826C24.3008 35.5131 24.3107 35.5494 24.3384 35.5685L26.0153 36.965C26.0297 36.9772 26.0481 36.9837 26.067 36.9832H33.9342C33.953 36.9836 33.9714 36.9774 33.986 36.9656L35.6629 35.569C35.6906 35.5499 35.7004 35.5136 35.6862 35.4831C35.6782 35.4493 35.6461 35.4269 35.6116 35.4309Z" fill="white"/>
<path fill-rule="evenodd" clip-rule="evenodd" d="M16.0348 30.2586H17.5866V29.7414C17.5866 29.4557 17.355 29.2241 17.0693 29.2241H16.0348C15.7492 29.2241 15.5176 29.4557 15.5176 29.7414C15.5176 30.027 15.7492 30.2586 16.0348 30.2586Z" fill="white"/>
<path fill-rule="evenodd" clip-rule="evenodd" d="M16.5518 44.2241C16.5518 44.5098 16.7833 44.7413 17.069 44.7413H20.6897C20.9754 44.7413 21.207 44.5098 21.207 44.2241V42.6724H16.5518V44.2241Z" fill="white"/>
<path fill-rule="evenodd" clip-rule="evenodd" d="M20.0123 35.449C19.9992 35.4377 19.9826 35.4314 19.9653 35.4309H17.5859V36.9826H21.6453C21.6791 36.9859 21.7101 36.9639 21.7182 36.9309C21.7322 36.9013 21.7226 36.866 21.6955 36.8476L20.0123 35.449Z" fill="white"/>
<path d="M41.6828 31.293H18.3179L15.6691 33.9418C15.572 34.0388 15.5175 34.1706 15.5176 34.308V41.1206C15.5176 41.4062 15.7492 41.6378 16.0348 41.6378H43.9659C44.2515 41.6378 44.4831 41.4062 44.4831 41.1206V34.308C44.4832 34.1706 44.4287 34.0389 44.3315 33.9418L41.6828 31.293ZM21.2073 40.6033H17.5866C17.3009 40.6033 17.0693 40.3717 17.0693 40.0861C17.0693 39.8004 17.3009 39.5688 17.5866 39.5688H21.2073C21.4929 39.5688 21.7245 39.8004 21.7245 40.0861C21.7245 40.3717 21.4929 40.6033 21.2073 40.6033ZM22.6918 37.2837C22.5352 37.7261 22.1153 38.0206 21.6459 38.0171H17.5866C17.0152 38.0171 16.5521 37.5539 16.5521 36.9827V35.4309C16.5521 34.8596 17.0153 34.3965 17.5866 34.3965H19.9659C20.226 34.397 20.4778 34.4884 20.6776 34.6551L22.3576 36.0516C22.7205 36.3489 22.8547 36.8437 22.6918 37.2837ZM34.6555 40.6033H25.3452C25.0595 40.6033 24.8279 40.3717 24.8279 40.0861C24.8279 39.8004 25.0595 39.5688 25.3452 39.5688H34.6555C34.9412 39.5688 35.1728 39.8004 35.1728 40.0861C35.1728 40.3717 34.9412 40.6033 34.6555 40.6033ZM36.3231 36.362L34.6462 37.7585C34.4467 37.9255 34.1947 38.0171 33.9345 38.0171H26.0662C25.8058 38.017 25.5538 37.9255 25.354 37.7585L23.6776 36.362C23.3175 36.0627 23.1837 35.5698 23.343 35.1295C23.5023 34.6892 23.9206 34.396 24.3888 34.3965H35.6129C36.0812 34.396 36.4995 34.6892 36.6587 35.1295C36.818 35.5698 36.6842 36.0627 36.3241 36.362H36.3231ZM42.4141 40.6033H38.7934C38.5078 40.6033 38.2762 40.3717 38.2762 40.0861C38.2762 39.8004 38.5078 39.5688 38.7934 39.5688H42.4141C42.6998 39.5688 42.9314 39.8004 42.9314 40.0861C42.9314 40.3717 42.6998 40.6033 42.4141 40.6033ZM43.4486 36.9826C43.4486 37.5539 42.9855 38.0171 42.4142 38.0171H38.3549C37.886 38.0187 37.4666 37.7256 37.3071 37.2848C37.1476 36.8439 37.2823 36.3503 37.6437 36.0516L39.3257 34.655C39.5256 34.4886 39.7774 34.3971 40.0375 34.3964H42.4142C42.9856 34.3964 43.4487 34.8596 43.4487 35.4309V36.9826H43.4486Z" fill="white"/>
<path fill-rule="evenodd" clip-rule="evenodd" d="M44.483 29.7414C44.483 29.4557 44.2515 29.2241 43.9658 29.2241H42.9313C42.6456 29.2241 42.4141 29.4557 42.4141 29.7414V30.2586H43.9658C44.2515 30.2586 44.483 30.027 44.483 29.7414Z" fill="white"/>
<path fill-rule="evenodd" clip-rule="evenodd" d="M38.793 44.2241C38.793 44.5098 39.0246 44.7413 39.3102 44.7413H42.9309C43.2166 44.7413 43.4482 44.5098 43.4482 44.2241V42.6724H38.793V44.2241H38.793Z" fill="white"/>
<path fill-rule="evenodd" clip-rule="evenodd" d="M39.8083 26.147C39.5971 25.5135 39.0041 25.0861 38.3363 25.0862H21.6635C20.9957 25.0862 20.4027 25.5135 20.1915 26.147L18.8213 30.2586H41.1785L39.8083 26.147Z" fill="white"/>
<path fill-rule="evenodd" clip-rule="evenodd" d="M39.9877 35.449L38.3051 36.8486C38.2776 36.8667 38.2676 36.9022 38.2818 36.9319C38.2899 36.9649 38.3209 36.9869 38.3547 36.9836H42.4141V35.4319H40.0373C40.0193 35.4315 40.0016 35.4376 39.9877 35.449Z" fill="white"/>
<path fill-rule="evenodd" clip-rule="evenodd" d="M42.4141 35.4309H42.9313L42.4141 35.4304V35.4309Z" fill="white"/>
<path fill-rule="evenodd" clip-rule="evenodd" d="M21.7243 21.9828C21.4386 21.9828 21.207 21.7512 21.207 21.4655V20.4311C21.207 20.1454 21.4386 19.9138 21.7243 19.9138C22.01 19.9138 22.2415 20.1454 22.2415 20.4311V21.4655C22.2415 21.7512 22.01 21.9828 21.7243 21.9828Z" fill="white"/>
<path fill-rule="evenodd" clip-rule="evenodd" d="M17.5866 21.9828C17.3009 21.9828 17.0693 21.7512 17.0693 21.4655V20.4311C17.0693 20.1454 17.3009 19.9138 17.5866 19.9138C17.8723 19.9138 18.1039 20.1454 18.1039 20.4311V21.4655C18.1039 21.7512 17.8723 21.9828 17.5866 21.9828Z" fill="white"/>
<path fill-rule="evenodd" clip-rule="evenodd" d="M42.4137 21.9828C42.1281 21.9828 41.8965 21.7512 41.8965 21.4655V20.4311C41.8965 20.1454 42.1281 19.9138 42.4137 19.9138C42.6994 19.9138 42.931 20.1454 42.931 20.4311V21.4655C42.931 21.7512 42.6994 21.9828 42.4137 21.9828Z" fill="white"/>
<path fill-rule="evenodd" clip-rule="evenodd" d="M25.862 21.9828C25.5763 21.9828 25.3447 21.7512 25.3447 21.4655V20.4311C25.3447 20.1454 25.5763 19.9138 25.862 19.9138C26.1477 19.9138 26.3792 20.1454 26.3792 20.4311V21.4655C26.3792 21.7512 26.1477 21.9828 25.862 21.9828Z" fill="white"/>
<path fill-rule="evenodd" clip-rule="evenodd" d="M29.9997 21.9828C29.714 21.9828 29.4824 21.7512 29.4824 21.4655V20.4311C29.4824 20.1454 29.714 19.9138 29.9997 19.9138C30.2853 19.9138 30.5169 20.1454 30.5169 20.4311V21.4655C30.5169 21.7512 30.2853 21.9828 29.9997 21.9828Z" fill="white"/>
<path fill-rule="evenodd" clip-rule="evenodd" d="M34.1384 21.9828C33.8527 21.9828 33.6211 21.7512 33.6211 21.4655V20.4311C33.6211 20.1454 33.8527 19.9138 34.1384 19.9138C34.424 19.9138 34.6556 20.1454 34.6556 20.4311V21.4655C34.6556 21.7512 34.424 21.9828 34.1384 21.9828Z" fill="white"/>
<path fill-rule="evenodd" clip-rule="evenodd" d="M38.276 21.9828C37.9904 21.9828 37.7588 21.7512 37.7588 21.4655V20.4311C37.7588 20.1454 37.9904 19.9138 38.276 19.9138C38.5617 19.9138 38.7933 20.1454 38.7933 20.4311V21.4655C38.7933 21.7512 38.5617 21.9828 38.276 21.9828Z" fill="white"/>
<path fill-rule="evenodd" clip-rule="evenodd" d="M23.7926 23.0172C23.507 23.0172 23.2754 22.7856 23.2754 22.5V21.4655C23.2754 21.1798 23.507 20.9482 23.7926 20.9482C24.0783 20.9482 24.3099 21.1798 24.3099 21.4655V22.5C24.3099 22.7857 24.0783 23.0172 23.7926 23.0172Z" fill="white"/>
<path fill-rule="evenodd" clip-rule="evenodd" d="M19.655 23.0172C19.3693 23.0172 19.1377 22.7856 19.1377 22.5V21.4655C19.1377 21.1798 19.3693 20.9482 19.655 20.9482C19.9406 20.9482 20.1722 21.1798 20.1722 21.4655V22.5C20.1722 22.7857 19.9406 23.0172 19.655 23.0172Z" fill="white"/>
<path fill-rule="evenodd" clip-rule="evenodd" d="M27.9313 23.0172C27.6456 23.0172 27.4141 22.7856 27.4141 22.5V21.4655C27.4141 21.1798 27.6456 20.9482 27.9313 20.9482C28.217 20.9482 28.4486 21.1798 28.4486 21.4655V22.5C28.4485 22.7857 28.217 23.0172 27.9313 23.0172Z" fill="white"/>
<path fill-rule="evenodd" clip-rule="evenodd" d="M32.069 23.0172C31.7833 23.0172 31.5518 22.7856 31.5518 22.5V21.4655C31.5518 21.1798 31.7833 20.9482 32.069 20.9482C32.3547 20.9482 32.5863 21.1798 32.5863 21.4655V22.5C32.5863 22.7857 32.3547 23.0172 32.069 23.0172Z" fill="white"/>
<path fill-rule="evenodd" clip-rule="evenodd" d="M36.2067 23.0172C35.921 23.0172 35.6895 22.7856 35.6895 22.5V21.4655C35.6895 21.1798 35.921 20.9482 36.2067 20.9482C36.4924 20.9482 36.724 21.1798 36.724 21.4655V22.5C36.724 22.7857 36.4924 23.0172 36.2067 23.0172Z" fill="white"/>
<path fill-rule="evenodd" clip-rule="evenodd" d="M40.3444 23.0172C40.0587 23.0172 39.8271 22.7856 39.8271 22.5V21.4655C39.8271 21.1798 40.0587 20.9482 40.3444 20.9482C40.6301 20.9482 40.8617 21.1798 40.8617 21.4655V22.5C40.8616 22.7857 40.6301 23.0172 40.3444 23.0172Z" fill="white"/>
<path fill-rule="evenodd" clip-rule="evenodd" d="M44.4827 15.2585H15.5173C15.2316 15.2585 15 15.4901 15 15.7758V16.8103C15 17.6673 15.6947 18.362 16.5517 18.362H19.1379V19.3965C19.1379 19.6821 19.3695 19.9137 19.6552 19.9137C19.9408 19.9137 20.1724 19.6821 20.1724 19.3965V18.362H23.2759V19.3965C23.2759 19.6821 23.5075 19.9137 23.7931 19.9137C24.0788 19.9137 24.3104 19.6821 24.3104 19.3965V18.362H27.4138V19.3965C27.4138 19.6821 27.6454 19.9137 27.9311 19.9137C28.2168 19.9137 28.4483 19.6821 28.4483 19.3965V18.362H31.5518V19.3965C31.5518 19.6821 31.7834 19.9137 32.0691 19.9137C32.3547 19.9137 32.5863 19.6821 32.5863 19.3965V18.362H35.6898V19.3965C35.6898 19.6821 35.9213 19.9137 36.207 19.9137C36.4927 19.9137 36.7243 19.6821 36.7243 19.3965V18.362H39.8277V19.3965C39.8277 19.6821 40.0593 19.9137 40.345 19.9137C40.6306 19.9137 40.8622 19.6821 40.8622 19.3965V18.362H43.4484C44.3054 18.362 45.0001 17.6673 45.0001 16.8103V15.7758C45 15.4901 44.7684 15.2585 44.4827 15.2585Z" fill="white"/>
</g>
</g>
<defs>
<clipPath id="clip0_6228_11086">
<rect width="28" height="28" fill="white" transform="translate(16 16)"/>
</clipPath>
<clipPath id="clip1_6228_11086">
<rect width="30" height="30" fill="white" transform="translate(15 15)"/>
</clipPath>
</defs>
</svg>
