<svg width="63" height="62" viewBox="0 0 63 62" fill="none" xmlns="http://www.w3.org/2000/svg">
<rect x="0.75" width="62" height="62" rx="31" fill="#2C78B4"/>
<g clip-path="url(#clip0_6228_20017)">
<path fill-rule="evenodd" clip-rule="evenodd" d="M20.7572 32.1468C20.4801 32.1468 20.256 31.9232 20.256 31.6469C20.256 31.3706 20.4801 31.1469 20.7572 31.1469H25.2597C25.5369 31.1469 25.761 31.3706 25.761 31.6469C25.761 31.9232 25.5369 32.1468 25.2597 32.1468H20.7572ZM37.7383 31.3457C37.7383 31.0695 37.9594 30.8457 38.2366 30.8457H39.9881V29.0938C39.9881 28.8176 40.2122 28.5938 40.4894 28.5938C40.7665 28.5938 40.9877 28.8176 40.9877 29.0938V30.8457H42.7421C43.0163 30.8457 43.2404 31.0695 43.2404 31.3457C43.2404 31.6219 43.0163 31.8457 42.7421 31.8457H40.9877V33.5976C40.9877 33.8738 40.7665 34.0976 40.4894 34.0976C40.2122 34.0976 39.9881 33.8738 39.9881 33.5976V31.8457H38.2366C37.9594 31.8457 37.7383 31.6219 37.7383 31.3457ZM16.75 26.9363V40.2175H46.7492V26.9363H16.75ZM32.1666 32.7453C32.1666 32.7465 32.1665 32.7479 32.1664 32.7489L32.1663 32.7503C32.167 32.7505 32.1678 32.7506 32.1684 32.7506H35.3239L30.8666 38.2632L31.3296 34.3045L31.3289 34.3037H28.1743L32.3934 28.9005L32.1666 32.7453ZM46.7493 41.2176H16.75V42.9257C16.75 43.3388 17.0862 43.6743 17.4989 43.6743H46.0003C46.4131 43.6743 46.7492 43.3388 46.7492 42.9257L46.7493 41.2176ZM16.75 25.9363H46.7492V24.2401C46.7492 23.8269 46.4131 23.4912 46.0003 23.4912H17.4989C17.0862 23.4912 16.75 23.8269 16.75 24.2401V25.9363ZM20.2824 22.4913H23.8827V21.5163H20.2824V22.4913ZM21.0078 20.5163H23.1573V18.3257H21.0078V20.5163ZM39.6166 21.5163V22.4913H43.2168V21.5163H39.6166ZM40.3419 20.5163H42.4915V18.3257H40.3419V20.5163Z" fill="white"/>
</g>
<defs>
<clipPath id="clip0_6228_20017">
<rect width="30" height="30" fill="white" transform="translate(16.75 16)"/>
</clipPath>
</defs>
</svg>
