<svg width="61" height="60" viewBox="0 0 61 60" fill="none" xmlns="http://www.w3.org/2000/svg">
<rect x="0.25" width="60" height="60" rx="30" fill="#2C78B4"/>
<g clip-path="url(#clip0_6228_13195)">
<g clip-path="url(#clip1_6228_13195)">
<path d="M40.3364 21.7241H31.5433L29.7035 17.6761C29.2489 16.6763 28.2521 16.0344 27.154 16.0344H22.9644C21.4178 16.0344 20.164 17.2882 20.164 18.8348V21.7241C19.307 21.7241 18.6123 22.4187 18.6123 23.2758V43.4482C18.6123 44.3053 19.307 44.9999 20.164 44.9999H40.3364C41.1935 44.9999 41.8882 44.3053 41.8882 43.4482V23.2758C41.8882 22.4187 41.1935 21.7241 40.3364 21.7241ZM22.233 21.7241V19.201C22.233 18.5948 22.7244 18.1034 23.3306 18.1034H26.7433C27.1892 18.1034 27.5911 18.3734 27.7597 18.7867L28.9571 21.7241H22.233Z" fill="white"/>
<path d="M33.6122 30.7313L37.0814 27.2621L36.35 26.5308L32.8808 29.9999H27.6195L24.1503 26.5308L23.4189 27.2621L26.8881 30.7313V35.9927L23.4189 39.4618L24.1503 40.1932L27.6195 36.724H32.8808L36.35 40.1932L37.0814 39.4618L33.6122 35.9927V30.7313Z" fill="#5BB7FF"/>
<path d="M39.302 19.6553H35.1641V21.7242H39.302V19.6553Z" fill="white"/>
<path d="M40.8 16.3133L40.1209 15.1816C40.0143 15.0042 39.7841 14.9468 39.6067 15.0533L37.3438 16.3386L36.2705 19.6552H38.3022L38.8272 17.8619L40.6712 16.8274C40.8486 16.7209 40.906 16.4907 40.8 16.3133Z" fill="white"/>
</g>
</g>
<defs>
<clipPath id="clip0_6228_13195">
<rect width="28" height="28" fill="white" transform="translate(16.25 16)"/>
</clipPath>
<clipPath id="clip1_6228_13195">
<rect width="30" height="30" fill="white" transform="translate(15.25 15)"/>
</clipPath>
</defs>
</svg>
