<svg width="38" height="34" viewBox="0 0 38 34" fill="none" xmlns="http://www.w3.org/2000/svg">
<path fill-rule="evenodd" clip-rule="evenodd" d="M28.9727 6.43316C29.046 6.56135 29.1744 6.65292 29.3393 6.65292C33.7393 6.65292 37.3327 10.2423 37.3327 14.6374V25.5153C37.3327 29.9104 33.7393 33.4998 29.3393 33.4998H8.65935C4.24102 33.4998 0.666016 29.9104 0.666016 25.5153V14.6374C0.666016 10.2423 4.24102 6.65292 8.65935 6.65292C8.80602 6.65292 8.95268 6.57967 9.00768 6.43316L9.11768 6.21341C9.18089 6.08038 9.24576 5.94374 9.31161 5.80503C9.78062 4.81714 10.2995 3.72422 10.621 3.08189C11.4643 1.43372 12.8943 0.518069 14.6727 0.499756H23.3077C25.086 0.518069 26.5343 1.43372 27.3777 3.08189C27.6664 3.65873 28.1063 4.58792 28.5303 5.48349C28.6178 5.66832 28.7047 5.85171 28.7894 6.03028L28.9727 6.43316ZM27.6341 13.4654C27.6341 14.381 28.3674 15.1135 29.2841 15.1135C30.2007 15.1135 30.9524 14.381 30.9524 13.4654C30.9524 12.5497 30.2007 11.7989 29.2841 11.7989C28.3674 11.7989 27.6341 12.5497 27.6341 13.4654ZM15.8278 16.3039C16.6895 15.4432 17.8078 14.9853 18.9995 14.9853C20.1911 14.9853 21.3095 15.4432 22.1528 16.2856C22.9961 17.128 23.4545 18.245 23.4545 19.4354C23.4361 21.8893 21.4561 23.8854 18.9995 23.8854C17.8078 23.8854 16.6895 23.4276 15.8461 22.5852C15.0028 21.7428 14.5445 20.6257 14.5445 19.4354V19.4171C14.5261 18.2634 14.9845 17.1463 15.8278 16.3039ZM24.0774 24.5264C22.7758 25.8266 20.9791 26.6324 18.9991 26.6324C17.0741 26.6324 15.2774 25.8815 13.9024 24.5264C12.5458 23.1529 11.7941 21.3582 11.7941 19.4354C11.7758 17.5308 12.5274 15.7361 13.8841 14.3627C15.2591 12.9892 17.0741 12.2383 18.9991 12.2383C20.9241 12.2383 22.7391 12.9892 24.0958 14.3443C25.4524 15.7178 26.2041 17.5308 26.2041 19.4354C26.1858 21.4315 25.3791 23.2261 24.0774 24.5264Z" fill="white"/>
</svg>
