<svg width="60" height="60" viewBox="0 0 60 60" fill="none" xmlns="http://www.w3.org/2000/svg">
<rect width="60" height="60" rx="30" fill="#2C78B4"/>
<g clip-path="url(#clip0_6228_13699)">
<path d="M39.9541 42.5001C38.8813 42.5748 37.8271 42.1914 37.0528 41.4451C35.7916 40.0976 35.9416 37.8338 36.1003 35.4376C36.1516 34.6626 36.2041 33.8776 36.2041 33.1238C36.2041 26.2489 33.8516 26.2489 33.0791 26.2489C32.7339 26.2489 32.4541 25.969 32.4541 25.6238C32.4541 25.2787 32.7339 24.9988 33.0791 24.9988C37.4541 24.9988 37.4541 31.1138 37.4541 33.1238C37.4541 33.9051 37.4016 34.7164 37.3479 35.5201C37.2079 37.6376 37.0754 39.6388 37.9654 40.5901C38.506 41.08 39.228 41.3196 39.9542 41.2501C40.4643 41.2875 40.9637 41.09 41.3104 40.7138C42.4092 39.4376 41.9017 36.0413 41.5305 33.5614C41.3574 32.5904 41.2484 31.6091 41.2042 30.6239V26.8739C41.2042 26.6772 41.2968 26.4919 41.4542 26.3739C42.6755 25.4664 42.5792 24.7489 42.493 24.1752C42.4708 24.0345 42.4578 23.8925 42.4542 23.7502C40.9769 21.1193 38.4065 19.2812 35.4392 18.7339C35.1027 18.6563 34.8928 18.3205 34.9705 17.9839C35.0482 17.6474 35.3839 17.4375 35.7205 17.5152C41.228 18.7827 43.7042 22.8477 43.7042 23.7502C43.7081 23.834 43.7172 23.9175 43.7317 24.0002C43.9853 25.2204 43.4816 26.4736 42.4542 27.179V30.6252C42.5016 31.5474 42.6059 32.4659 42.7667 33.3752C43.1954 36.2502 43.7304 39.8189 42.2567 41.5277C41.6761 42.1839 40.8293 42.5416 39.9541 42.5001Z" fill="white"/>
<path d="M41.8293 27.5C41.6635 27.5003 41.5043 27.4347 41.3868 27.3175C37.8968 23.8275 38.3206 22 40.1369 20.1838C40.3851 19.9439 40.7808 19.9508 41.0206 20.1991C41.2546 20.4413 41.2546 20.8253 41.0206 21.0675C39.9619 22.1263 38.9631 23.125 42.2706 26.4338C42.515 26.6775 42.5155 27.0733 42.2717 27.3177C42.1542 27.4355 41.9945 27.5016 41.8281 27.5013L41.8293 27.5Z" fill="white"/>
<path d="M30.5791 15H20.5791C18.8532 15 17.4541 16.3991 17.4541 18.125V41.875C17.4541 42.2201 17.7339 42.5 18.0791 42.5H33.0791C33.4243 42.5 33.7041 42.2201 33.7041 41.875V18.125C33.7041 16.3991 32.305 15 30.5791 15Z" fill="white"/>
<path d="M20.5791 17.5H30.5791C30.9243 17.5 31.2042 17.7798 31.2042 18.125V25.625C31.2042 25.9702 30.9243 26.25 30.5791 26.25H20.5791C20.2339 26.25 19.9541 25.9702 19.9541 25.625V18.125C19.9541 17.7798 20.2339 17.5 20.5791 17.5Z" fill="#2C78B4"/>
<path d="M33.0791 41.25H18.0791C17.0436 41.25 16.2041 42.0895 16.2041 43.125V44.375C16.2041 44.7202 16.4839 45 16.8291 45H34.3291C34.6743 45 34.9542 44.7202 34.9542 44.375V43.125C34.9541 42.0895 34.1147 41.25 33.0791 41.25Z" fill="white"/>
</g>
<defs>
<clipPath id="clip0_6228_13699">
<rect width="28" height="28" fill="white" transform="translate(16 16)"/>
</clipPath>
</defs>
</svg>
