<svg width="83" height="80" viewBox="0 0 83 80" fill="none" xmlns="http://www.w3.org/2000/svg">
<circle cx="42.5" cy="40.5" r="31.5" fill="#F6F9FF"/>
<circle cx="79.5" cy="12.5" r="3.5" fill="#F6F9FF"/>
<circle cx="8.5" cy="4.5" r="4.5" fill="#F6F9FF"/>
<circle cx="4" cy="59" r="2" fill="#F6F9FF"/>
<circle cx="73" cy="71" r="1" fill="#F6F9FF"/>
<g clip-path="url(#clip0_4507_43094)">
<path d="M55.5218 43.1234L55.5217 43.1238C55.4703 43.3852 55.4107 43.644 55.3437 43.9002L55.3437 43.9003C55.2114 44.4073 55.0494 44.9021 54.8599 45.3835L54.8594 45.3847C54.834 45.4499 54.8078 45.515 54.7806 45.5802L54.7801 45.5814C54.7128 45.7451 54.6422 45.907 54.5685 46.0668L54.568 46.0678C54.529 46.1531 54.4888 46.2379 54.4474 46.3223L54.4469 46.3234C54.2914 46.6438 54.1228 46.9573 53.942 47.2626L53.9418 47.2629C53.7363 47.611 53.5155 47.949 53.2796 48.275L53.2794 48.2754C52.8571 48.861 52.3878 49.4107 51.8774 49.9183L51.8772 49.9185C49.4841 52.3018 46.1851 53.7737 42.5417 53.7737C38.8815 53.7737 35.5686 52.2879 33.173 49.8858L33.173 49.8858C32.6791 49.3907 32.2242 48.8569 31.8138 48.2889L31.8137 48.2887C31.3403 47.6348 30.9254 46.9357 30.5767 46.1991L30.5764 46.1984C30.519 46.078 30.4637 45.9562 30.4102 45.8335L30.4103 45.8335L30.4077 45.8279C30.4043 45.8203 30.4017 45.8143 30.3977 45.805C30.3957 45.8004 30.3934 45.795 30.3905 45.7882L30.3903 45.7878C30.3085 45.5993 30.2314 45.408 30.1582 45.2142C30.0928 45.0409 30.0308 44.8659 29.9729 44.6895L29.9727 44.6889C29.887 44.4291 29.809 44.1663 29.7397 43.9001L29.7396 43.8995C29.6832 43.6848 29.6322 43.4677 29.5869 43.2491L29.5869 43.2488C29.4219 42.4562 29.328 41.6379 29.3125 40.8001L29.3124 40.7984C29.3104 40.7136 29.3096 40.6279 29.3096 40.5417C29.3096 40.1549 29.3263 39.7721 29.3586 39.3938C29.3701 39.2619 29.3832 39.1308 29.3982 39.0008L29.0907 38.9651L29.3982 39.0008C29.5652 37.5601 29.9638 36.1902 30.5554 34.9288C30.7078 34.6042 30.8728 34.2869 31.05 33.9773L30.7838 33.8249L31.05 33.9773C31.7059 32.8318 32.528 31.7935 33.4838 30.8962L33.4842 30.8958C33.6175 30.7702 33.7533 30.6479 33.892 30.5284L33.8923 30.5281C36.2118 28.5223 39.2346 27.3096 42.5417 27.3096C49.8495 27.3096 55.7737 33.2338 55.7737 40.5417C55.7737 41.4254 55.6871 42.2888 55.5218 43.1234Z" fill="white" stroke="#2E2C2A" stroke-width="0.619178"/>
<g clip-path="url(#clip1_4507_43094)">
<path fill-rule="evenodd" clip-rule="evenodd" d="M38.7537 36.6513C39.1604 34.8599 40.7529 33.5884 42.5898 33.5884C44.427 33.5884 46.0191 34.8599 46.426 36.6513C46.4651 37.4821 46.5835 38.0596 46.7808 38.3837C47.6543 39.4452 47.8647 40.2092 47.4123 40.6754C47.0632 41.243 47.0286 41.7068 47.3085 42.0662C48.4145 42.8595 48.5191 43.6554 47.6223 44.4542C44.668 46.773 40.5116 46.773 37.5575 44.4542C36.6606 43.6554 36.7652 42.8595 37.8713 42.0662C38.1512 41.7068 38.1165 41.243 37.7674 40.6754C37.3149 40.2092 37.5253 39.4453 38.3988 38.3837C38.5961 38.0596 38.7145 37.4821 38.7537 36.6513Z" fill="#2E2C2A"/>
<path fill-rule="evenodd" clip-rule="evenodd" d="M45.1416 47.1044H39.9482V43.8682C40.5418 44.0193 40.8419 43.5552 40.8488 42.4751H44.2411C44.2478 43.5552 44.5481 44.0193 45.1416 43.8682V47.1044Z" fill="#EFCEAF"/>
<path fill-rule="evenodd" clip-rule="evenodd" d="M42.5442 45.9436C41.3559 45.9436 40.305 45.1731 39.9474 44.04C38.4893 44.4034 36.4726 44.6986 35.3856 45.7307C33.989 47.0567 33.8322 48.4354 33.457 50.4437C34.297 51.1891 35.3041 51.8875 36.6134 52.6073L48.8458 52.4037C50.2314 51.5892 50.7914 51.1819 51.6314 50.3928C51.2564 48.3845 51.0995 47.0567 49.703 45.7307C48.6159 44.6986 46.5991 44.4034 45.1409 44.04C44.7833 45.1731 43.7325 45.9436 42.5442 45.9436Z" fill="#E0E0E0"/>
<path fill-rule="evenodd" clip-rule="evenodd" d="M46.6546 44.2198C46.4068 44.1601 46.161 44.1045 45.9218 44.0503V49.6931H46.6546V44.2198ZM39.1694 44.0503C38.9303 44.1045 38.6844 44.1601 38.4365 44.2198V49.6931H39.1694V44.0503Z" fill="#2C78B4"/>
<path fill-rule="evenodd" clip-rule="evenodd" d="M45.8453 38.2738C45.4741 38.5125 45.2197 38.8954 45.1435 39.3303C45.0673 39.765 45.1763 40.2118 45.4441 40.5625C46.8239 40.6348 47.5239 37.65 45.8453 38.2738ZM39.2431 38.2738C39.614 38.5125 39.8686 38.8954 39.9446 39.3303C40.0209 39.765 39.912 40.2118 39.6442 40.5625C38.2645 40.6348 37.5644 37.65 39.2431 38.2738Z" fill="#EFCEAF"/>
<path fill-rule="evenodd" clip-rule="evenodd" d="M38.7543 36.6513C41.2497 35.8144 43.9302 35.9735 46.4266 36.6513C46.7081 35.114 46.0445 33.5571 44.7406 32.6955C43.4367 31.8339 41.7443 31.8339 40.4405 32.6955C39.1365 33.5571 38.4729 35.1139 38.7543 36.6513Z" fill="#2C78B4"/>
<path fill-rule="evenodd" clip-rule="evenodd" d="M50.7635 51.1711V47.5871C51.3865 47.3147 51.7895 46.6993 51.7895 46.0191C51.7895 45.3391 51.3865 44.7234 50.7635 44.4512L50.7121 45.907L50.0787 46.3521L49.394 45.907V44.4512C48.7708 44.7235 48.3682 45.3391 48.3682 46.0191C48.3682 46.6993 48.7708 47.3145 49.394 47.5871V52.0985C49.9264 51.8186 50.3846 51.4622 50.7635 51.1711Z" fill="#9E9E9E"/>
<path fill-rule="evenodd" clip-rule="evenodd" d="M48.5192 48.3106C48.5027 48.109 48.3258 47.9592 48.1242 47.9759C47.9227 47.9924 47.7727 48.1693 47.7894 48.3709L47.8726 49.362L48.5953 49.2146L48.5192 48.3106ZM36.5712 48.3106C36.5878 48.109 36.7646 47.9592 36.9661 47.9759C37.1677 47.9924 37.3178 48.1693 37.3009 48.3709L37.2177 49.362L36.4951 49.2146L36.5712 48.3106Z" fill="#BDBDBD"/>
<path fill-rule="evenodd" clip-rule="evenodd" d="M36.2412 52.2328C36.8079 53.271 39.4563 54.0238 42.5427 54.0238C45.6293 54.0238 48.2776 53.271 48.8444 52.2328L48.595 49.2144H36.4949L36.2412 52.2328Z" fill="#2C78B4"/>
<path fill-rule="evenodd" clip-rule="evenodd" d="M46.0317 53.6707V51.3446C46.0309 51.0932 45.8275 50.89 45.5762 50.8892H39.5119C39.2606 50.8899 39.0571 51.0933 39.0566 51.3446V53.6707C40.0667 53.8951 41.2679 54.024 42.5441 54.024C43.8204 54.024 45.0214 53.8951 46.0317 53.6707Z" fill="#5BB7FF"/>
<path fill-rule="evenodd" clip-rule="evenodd" d="M39.2441 38.2736C39.7963 36.9374 41.0993 36.0659 42.5451 36.0659C43.9909 36.0659 45.294 36.9374 45.8463 38.2736C45.56 44.7867 39.5304 44.7867 39.2441 38.2736Z" fill="#EFCEAF"/>
<path fill-rule="evenodd" clip-rule="evenodd" d="M38.7539 36.6519C39.745 35.6208 41.1132 35.0381 42.5434 35.0381C43.9736 35.0381 45.3418 35.6208 46.3329 36.6519C46.134 37.4613 45.4731 38.0448 44.3496 38.4022C43.842 38.5636 43.2398 37.9939 42.5434 38.0631C41.847 37.9939 41.245 38.5636 40.7374 38.4022C39.6139 38.0448 38.9528 37.4613 38.7539 36.6519Z" fill="#4299DE"/>
</g>
</g>
<circle cx="47" cy="2" r="1" fill="#F6F9FF"/>
<circle cx="27.5" cy="78.5" r="1.5" fill="#F6F9FF"/>
<circle cx="54.5" cy="76.5" r="0.5" fill="#F6F9FF"/>
<circle cx="76" cy="49" r="1" fill="#F6F9FF"/>
<circle cx="0.5" cy="33.5" r="0.5" fill="#F6F9FF"/>
<defs>
<clipPath id="clip0_4507_43094">
<rect width="27.0833" height="27.0833" fill="white" transform="translate(29 27)"/>
</clipPath>
<clipPath id="clip1_4507_43094">
<rect width="22.5016" height="22.5016" fill="white" transform="translate(31.292 31.7861)"/>
</clipPath>
</defs>
</svg>
