<svg width="240" height="218" viewBox="0 0 240 218" fill="none" xmlns="http://www.w3.org/2000/svg">
<g clip-path="url(#clip0_4528_27101)">
<path d="M121.623 54.4961H34.1026C28.4077 54.4961 23.791 59.1192 23.791 64.822V151.348C23.791 157.051 28.4077 161.674 34.1026 161.674H121.623C127.318 161.674 131.935 157.051 131.935 151.348V64.822C131.935 59.1192 127.318 54.4961 121.623 54.4961Z" fill="#F2F2F2"/>
<path d="M52.4811 56.6191C45.4343 56.6191 38.6761 59.4224 33.6933 64.4121C28.7105 69.4018 25.9111 76.1694 25.9111 83.2259V151.347C25.9111 152.425 26.123 153.491 26.5346 154.486C26.9463 155.482 27.5496 156.386 28.3102 157.147C29.0708 157.909 29.9738 158.513 30.9676 158.925C31.9614 159.338 33.0265 159.55 34.1021 159.55H89.96C100.53 159.55 110.667 155.345 118.141 147.861C125.615 140.376 129.814 130.225 129.814 119.641V64.8215C129.814 62.6461 128.951 60.5598 127.415 59.0216C125.879 57.4833 123.795 56.6191 121.623 56.6191H52.4811Z" fill="white"/>
<path d="M227.094 19.1218H8.58185C8.4796 19.1218 8.38152 19.0811 8.30921 19.0087C8.2369 18.9363 8.19629 18.8381 8.19629 18.7357C8.19629 18.6333 8.2369 18.5351 8.30921 18.4627C8.38152 18.3903 8.4796 18.3496 8.58185 18.3496H227.094C227.196 18.3496 227.294 18.3903 227.366 18.4627C227.439 18.5351 227.479 18.6333 227.479 18.7357C227.479 18.8381 227.439 18.9363 227.366 19.0087C227.294 19.0811 227.196 19.1218 227.094 19.1218Z" fill="#E6E6E6"/>
<path d="M19.5145 7.53119C21.3153 7.53119 22.7751 6.03678 22.7751 4.19333C22.7751 2.34988 21.3153 0.855469 19.5145 0.855469C17.7137 0.855469 16.2539 2.34988 16.2539 4.19333C16.2539 6.03678 17.7137 7.53119 19.5145 7.53119Z" fill="#E6E6E6"/>
<path d="M30.7782 7.53119C32.5789 7.53119 34.0387 6.03678 34.0387 4.19333C34.0387 2.34988 32.5789 0.855469 30.7782 0.855469C28.9774 0.855469 27.5176 2.34988 27.5176 4.19333C27.5176 6.03678 28.9774 7.53119 30.7782 7.53119Z" fill="#E6E6E6"/>
<path d="M42.0418 7.53119C43.8426 7.53119 45.3024 6.03678 45.3024 4.19333C45.3024 2.34988 43.8426 0.855469 42.0418 0.855469C40.2411 0.855469 38.7812 2.34988 38.7812 4.19333C38.7812 6.03678 40.2411 7.53119 42.0418 7.53119Z" fill="#E6E6E6"/>
<path d="M54.8855 6.8307C54.8341 6.83077 54.7833 6.82053 54.7359 6.80058C54.6886 6.78063 54.6457 6.75139 54.6099 6.71457L52.4098 4.46245C52.3393 4.39033 52.2998 4.29342 52.2998 4.19249C52.2998 4.09156 52.3393 3.99464 52.4098 3.92252L54.6099 1.67058C54.6451 1.63376 54.6873 1.60431 54.734 1.58392C54.7807 1.56353 54.831 1.55262 54.882 1.55181C54.9329 1.55099 54.9835 1.5603 55.0308 1.57919C55.0782 1.59808 55.1213 1.62617 55.1577 1.66185C55.1941 1.69752 55.2231 1.74007 55.243 1.78704C55.2629 1.83401 55.2734 1.88445 55.2737 1.93547C55.274 1.98649 55.2642 2.03707 55.2449 2.08428C55.2256 2.13149 55.1971 2.17439 55.1611 2.21051L53.2248 4.19248L55.1611 6.17464C55.2142 6.22897 55.25 6.29777 55.2642 6.37243C55.2784 6.44709 55.2703 6.52428 55.2408 6.59433C55.2114 6.66438 55.162 6.72417 55.0988 6.76622C55.0356 6.80827 54.9614 6.8307 54.8855 6.8307Z" fill="#E6E6E6"/>
<path d="M58.5825 6.8307C58.5066 6.8307 58.4324 6.80827 58.3692 6.76622C58.306 6.72417 58.2566 6.66437 58.2271 6.59432C58.1977 6.52427 58.1896 6.44708 58.2038 6.37242C58.218 6.29777 58.2538 6.22897 58.3069 6.17464L60.243 4.19248L58.3069 2.21051C58.2709 2.17439 58.2425 2.13148 58.2231 2.08427C58.2038 2.03706 58.194 1.98649 58.1943 1.93547C58.1947 1.88445 58.2051 1.834 58.225 1.78703C58.2449 1.74007 58.2739 1.69752 58.3103 1.66184C58.3467 1.62617 58.3898 1.59807 58.4372 1.57918C58.4845 1.5603 58.5351 1.55099 58.586 1.55181C58.637 1.55262 58.6873 1.56353 58.734 1.58392C58.7807 1.60431 58.8229 1.63376 58.8581 1.67058L61.058 3.92251C61.1285 3.99464 61.168 4.09155 61.168 4.19248C61.168 4.29341 61.1285 4.39033 61.058 4.46245L58.8581 6.71457C58.8223 6.75139 58.7794 6.78063 58.7321 6.80058C58.6847 6.82053 58.6339 6.83077 58.5825 6.8307Z" fill="#E6E6E6"/>
<path d="M207.607 1.24121H203.516C203.405 1.24118 203.296 1.26303 203.193 1.30551C203.091 1.34799 202.998 1.41027 202.919 1.4888C202.841 1.56732 202.779 1.66055 202.736 1.76315C202.694 1.86575 202.672 1.97572 202.672 2.08677V6.18715C202.672 6.2982 202.694 6.40817 202.736 6.51077C202.779 6.61337 202.841 6.7066 202.919 6.78513C202.998 6.86365 203.091 6.92593 203.193 6.96842C203.296 7.0109 203.405 7.03274 203.516 7.03271H207.607C207.832 7.03292 208.047 6.94403 208.206 6.78552C208.365 6.62701 208.455 6.41183 208.455 6.18715V2.08677C208.455 1.86209 208.365 1.64691 208.206 1.4884C208.047 1.32989 207.832 1.241 207.607 1.24121Z" fill="#E6E6E6"/>
<path d="M197.583 1.24121H193.492C193.381 1.24118 193.271 1.26303 193.169 1.30551C193.066 1.34799 192.973 1.41027 192.895 1.4888C192.816 1.56732 192.754 1.66055 192.712 1.76315C192.669 1.86575 192.647 1.97572 192.647 2.08677V6.18715C192.647 6.2982 192.669 6.40817 192.712 6.51077C192.754 6.61337 192.816 6.7066 192.895 6.78513C192.973 6.86365 193.066 6.92593 193.169 6.96842C193.271 7.0109 193.381 7.03274 193.492 7.03271H197.583C197.807 7.03292 198.022 6.94403 198.181 6.78552C198.34 6.62701 198.43 6.41183 198.431 6.18715V2.08677C198.43 1.86209 198.34 1.64691 198.181 1.4884C198.022 1.32989 197.807 1.241 197.583 1.24121Z" fill="#E6E6E6"/>
<path d="M217.054 1.43457H212.964C212.853 1.43454 212.743 1.45639 212.64 1.49887C212.538 1.54135 212.445 1.60363 212.366 1.68216C212.288 1.76068 212.226 1.85391 212.183 1.95651C212.141 2.05911 212.119 2.16908 212.119 2.28013V6.38051C212.119 6.49156 212.141 6.60153 212.183 6.70413C212.226 6.80673 212.288 6.89996 212.366 6.97849C212.445 7.05701 212.538 7.11929 212.64 7.16178C212.743 7.20426 212.853 7.2261 212.964 7.22607H217.054C217.279 7.22628 217.494 7.13739 217.653 6.97888C217.812 6.82037 217.902 6.60519 217.903 6.38051V2.28013C217.902 2.05545 217.812 1.84027 217.653 1.68176C217.494 1.52325 217.279 1.43435 217.054 1.43457Z" fill="#E6E6E6"/>
<path d="M135.015 7.4498H108.411C107.49 7.4498 106.608 7.08369 105.957 6.43202C105.306 5.78036 104.94 4.8965 104.94 3.9749C104.94 3.0533 105.306 2.16945 105.957 1.51778C106.608 0.866108 107.49 0.5 108.411 0.5H135.015C135.935 0.5 136.818 0.866108 137.468 1.51778C138.119 2.16945 138.485 3.0533 138.485 3.9749C138.485 4.8965 138.119 5.78036 137.468 6.43202C136.818 7.08369 135.935 7.4498 135.015 7.4498Z" fill="#E6E6E6"/>
<path d="M91.2114 123.048H31.8371C31.4975 123.048 31.1718 122.913 30.9317 122.672C30.6915 122.432 30.5566 122.106 30.5566 121.766C30.5566 121.426 30.6915 121.099 30.9317 120.859C31.1718 120.618 31.4975 120.483 31.8371 120.483H91.2114C91.551 120.483 91.8766 120.618 92.1168 120.859C92.3569 121.099 92.4918 121.426 92.4918 121.766C92.4918 122.106 92.3569 122.432 92.1168 122.672C91.8766 122.913 91.551 123.048 91.2114 123.048Z" fill="#F2F2F2"/>
<path d="M91.2113 86.4755H1.78068C1.61235 86.4758 1.44561 86.4428 1.29001 86.3785C1.1344 86.3142 0.992991 86.2198 0.873858 86.1007C0.754726 85.9817 0.660218 85.8402 0.595733 85.6845C0.531247 85.5288 0.498047 85.3619 0.498047 85.1933C0.498047 85.0248 0.531247 84.8578 0.595733 84.7021C0.660218 84.5464 0.754726 84.405 0.873858 84.2859C0.992991 84.1668 1.1344 84.0724 1.29001 84.0081C1.44561 83.9438 1.61235 83.9108 1.78068 83.9111H91.2113C91.5505 83.9117 91.8756 84.0471 92.1153 84.2875C92.3549 84.5279 92.4895 84.8536 92.4895 85.1933C92.4895 85.533 92.3549 85.8588 92.1153 86.0992C91.8756 86.3396 91.5505 86.4749 91.2113 86.4755Z" fill="#F2F2F2"/>
<path d="M91.2126 95.6318H1.7782C1.43873 95.6324 1.11338 95.7679 0.873552 96.0085C0.633723 96.249 0.499023 96.5751 0.499023 96.915C0.499023 97.2549 0.633723 97.581 0.873552 97.8216C1.11338 98.0621 1.43873 98.1976 1.7782 98.1982H91.2126C91.5521 98.1976 91.8774 98.0621 92.1172 97.8216C92.3571 97.581 92.4918 97.2549 92.4918 96.915C92.4918 96.5751 92.3571 96.249 92.1172 96.0085C91.8774 95.7679 91.5521 95.6324 91.2126 95.6318Z" fill="#F2F2F2"/>
<path d="M91.2111 109.92H1.78041C1.44082 109.92 1.11515 109.785 0.875023 109.544C0.6349 109.304 0.5 108.978 0.5 108.638C0.5 108.298 0.6349 107.971 0.875023 107.731C1.11515 107.491 1.44082 107.355 1.78041 107.355H91.2111C91.5507 107.355 91.8763 107.491 92.1165 107.731C92.3566 107.971 92.4915 108.298 92.4915 108.638C92.4915 108.978 92.3566 109.304 92.1165 109.544C91.8763 109.785 91.5507 109.92 91.2111 109.92Z" fill="#F2F2F2"/>
<path d="M166.518 212.359L162.412 212.358L160.459 196.5L166.519 196.5L166.518 212.359Z" fill="#A0616A"/>
<path d="M166.662 216.648L154.036 216.647V216.487C154.036 215.182 154.554 213.931 155.476 213.008C156.397 212.085 157.647 211.567 158.95 211.566L161.257 209.814L165.56 211.567L166.662 211.567L166.662 216.648Z" fill="#2F2E41"/>
<path d="M207.828 212.359L203.723 212.358L201.77 196.5L207.829 196.5L207.828 212.359Z" fill="#A0616A"/>
<path d="M207.973 216.648L195.348 216.647V216.487C195.348 215.182 195.866 213.931 196.787 213.008C197.709 212.085 198.959 211.567 200.262 211.566L202.568 209.814L206.871 211.567L207.973 211.567L207.973 216.648Z" fill="#2F2E41"/>
<path d="M169.867 121.252C169.867 121.252 167.171 124.118 167.057 125.977C166.943 127.836 168.348 124.459 166.943 127.836C165.538 131.213 165.538 128.962 165.538 131.213C165.538 133.465 162.56 135.663 162.56 135.663L157.65 155.892L160.479 203.256H166.662C172.407 185.717 175.081 172.174 172.001 166.109L180.587 146.999C180.587 146.999 196.811 197.836 197.474 198.435C198.137 199.035 198.137 198.19 198.137 199.034C198.137 199.879 197.294 199.035 198.137 199.879L202.071 203.819L207.973 203.256C207.973 203.256 208.763 166.449 202.185 160.088C202.185 160.088 203.704 140.389 202.185 140.445C200.666 140.5 200.666 143.033 200.666 140.5C200.666 137.967 202.466 137.291 202.466 137.291L197.408 119.501L169.867 121.252Z" fill="#2F2E41"/>
<path d="M201.724 82.0382L196.01 105.996L197.359 114.907L198.979 125.583L193.38 125.22L184.717 124.656L168.631 123.613L167.224 76.3355L174.603 68.6135L175.922 64.8645L186.591 64.7988L189.143 69.3008L195.705 71.1695C196.549 71.7055 197.341 72.3181 198.073 72.9996C199.692 74.5015 201.126 76.4089 201.797 78.3625C202 78.9319 202.128 79.5249 202.179 80.127L201.724 82.0382Z" fill="#E6E6E6"/>
<path d="M152.064 142.825C152.494 142.587 152.867 142.259 153.158 141.862C153.448 141.466 153.649 141.011 153.747 140.529C153.845 140.047 153.837 139.549 153.724 139.07C153.611 138.592 153.395 138.143 153.092 137.757L161.23 122.92L157.685 119.657L148.148 137.349C147.536 137.909 147.149 138.674 147.063 139.5C146.976 140.325 147.194 141.154 147.677 141.829C148.16 142.504 148.873 142.978 149.682 143.162C150.49 143.346 151.338 143.226 152.064 142.825Z" fill="#E6E6E6"/>
<path d="M171.912 73.4453L170.015 107.474L160.876 128.859L154.928 136.758L155.604 133.179L151.504 131.124L151.119 130.933L158.991 100.343L159.716 88.4561C159.841 86.4104 160.388 84.4131 161.324 82.5903C162.259 80.7675 163.563 79.1589 165.151 77.8664L169.703 74.1629L171.912 73.4453Z" fill="#E6E6E6"/>
<path d="M152.064 142.825C152.494 142.587 152.867 142.259 153.158 141.862C153.448 141.466 153.649 141.011 153.747 140.529C153.845 140.047 153.837 139.549 153.724 139.07C153.611 138.592 153.395 138.143 153.092 137.757L161.23 122.92L157.685 119.657L148.148 137.349C147.536 137.909 147.149 138.674 147.063 139.5C146.976 140.325 147.194 141.154 147.677 141.829C148.16 142.504 148.873 142.978 149.682 143.162C150.49 143.346 151.338 143.226 152.064 142.825Z" fill="#A0616A"/>
<path d="M171.912 73.4453L170.015 107.474L160.876 128.859L154.928 136.758L155.604 133.179L151.504 131.124L151.119 130.933L158.991 100.343L159.716 88.4561C159.841 86.4104 160.388 84.4131 161.324 82.5903C162.259 80.7675 163.563 79.1589 165.151 77.8664L169.703 74.1629L171.912 73.4453Z" fill="#E6E6E6"/>
<path d="M180.721 74.6182H93.2003C87.5053 74.6182 82.8887 79.2412 82.8887 84.9441V130.157C82.8887 135.86 87.5053 140.483 93.2003 140.483H180.721C186.416 140.483 191.033 135.86 191.033 130.157V84.9441C191.033 79.2412 186.416 74.6182 180.721 74.6182Z" fill="white"/>
<path d="M180.721 140.87H93.2001C90.364 140.866 87.645 139.737 85.6396 137.729C83.6342 135.72 82.5061 132.998 82.5029 130.158V84.9444C82.5061 82.1044 83.6342 79.3816 85.6396 77.3735C87.645 75.3653 90.364 74.2356 93.2001 74.2324H180.721C183.557 74.2357 186.276 75.3653 188.281 77.3735C190.287 79.3817 191.415 82.1044 191.418 84.9444V130.158C191.415 132.998 190.287 135.72 188.281 137.729C186.276 139.737 183.557 140.866 180.721 140.87ZM93.2001 75.0046C90.5676 75.0046 88.0428 76.0519 86.1813 77.9159C84.3198 79.78 83.2741 82.3082 83.2741 84.9444V101.844C83.2741 111.989 87.2988 121.719 94.4628 128.893C101.627 136.067 111.343 140.098 121.475 140.098H180.721C183.353 140.098 185.878 139.05 187.74 137.186C189.601 135.322 190.647 132.794 190.647 130.158V84.9444C190.647 83.6391 190.39 82.3466 189.891 81.1406C189.392 79.9347 188.661 78.8389 187.74 77.9159C186.818 76.9929 185.724 76.2608 184.519 75.7613C183.315 75.2617 182.024 75.0046 180.721 75.0046L93.2001 75.0046Z" fill="#3F3D56"/>
<path d="M116.332 122.609H95.8973C95.152 122.609 94.5479 123.214 94.5479 123.961C94.5479 124.707 95.152 125.312 95.8973 125.312H116.332C117.078 125.312 117.682 124.707 117.682 123.961C117.682 123.214 117.078 122.609 116.332 122.609Z" fill="#2C78B4"/>
<path d="M178.024 118.941H163.758C163.012 118.941 162.408 119.546 162.408 120.293V127.629C162.408 128.375 163.012 128.98 163.758 128.98H178.024C178.769 128.98 179.373 128.375 179.373 127.629V120.293C179.373 119.546 178.769 118.941 178.024 118.941Z" fill="#2C78B4"/>
<path d="M101.488 100.022C105.321 100.022 108.428 96.9101 108.428 93.0719C108.428 89.2336 105.321 86.1221 101.488 86.1221C97.6551 86.1221 94.5479 89.2336 94.5479 93.0719C94.5479 96.9101 97.6551 100.022 101.488 100.022Z" fill="#2C78B4"/>
<path d="M180.867 62.8094C185.68 62.8094 189.581 58.9025 189.581 54.0829C189.581 49.2634 185.68 45.3564 180.867 45.3564C176.054 45.3564 172.152 49.2634 172.152 54.0829C172.152 58.9025 176.054 62.8094 180.867 62.8094Z" fill="#A0616A"/>
<path d="M188.015 58.5932C188.083 59.1145 187.141 59.1696 186.929 58.6888C186.717 58.2079 186.992 57.663 187.26 57.2107L187.882 56.1611C187.999 55.9634 188.067 55.7405 188.081 55.5111C188.094 55.2817 188.053 55.0523 187.96 54.8421C187.867 54.6319 187.726 54.447 187.547 54.3027C187.368 54.1585 187.158 54.0591 186.933 54.0128C187.502 52.7317 186.884 51.1327 185.751 50.3096C184.618 49.4864 182.931 51.0266 181.557 51.2907C180.182 51.5548 179.081 50.501 177.827 51.1257L178.58 49.3874L174.412 51.1857L175.381 49.2303C174.329 49.2876 173.881 50.5706 173.671 51.6044C173.448 52.706 172.862 54.083 171.666 53.8548C171.382 53.7915 171.122 53.6492 170.916 53.4444C170.71 53.2397 170.565 52.9807 170.499 52.6973C169.575 49.1293 172.258 45.2287 175.814 44.6029C176.195 43.5514 176.901 42.6495 177.831 42.0292C178.76 41.409 179.863 41.1031 180.979 41.1563C182.094 41.2095 183.164 41.619 184.03 42.3248C184.896 43.0307 185.514 43.9957 185.793 45.0787L186.959 43.6491L187.186 45.6746C188.024 45.5855 188.816 46.1779 189.223 46.9166C189.63 47.6554 189.438 48.6092 189.829 49.3567C191.581 52.7069 191.001 56.4785 188.296 59.048" fill="#2F2E41"/>
<path d="M218.579 210.808C218.759 210.816 218.936 210.769 219.088 210.673C219.239 210.577 219.358 210.436 219.427 210.27C219.496 210.105 219.513 209.922 219.475 209.746C219.436 209.57 219.345 209.411 219.214 209.289L219.154 209.05C219.162 209.031 219.169 209.012 219.177 208.993C219.358 208.566 219.661 208.202 220.047 207.946C220.434 207.691 220.887 207.556 221.35 207.557C221.813 207.559 222.265 207.698 222.65 207.956C223.035 208.214 223.334 208.581 223.512 209.009C224.221 210.719 225.123 212.431 225.345 214.239C225.443 215.038 225.402 215.848 225.223 216.633C226.888 212.996 227.753 209.043 227.759 205.042C227.759 204.038 227.703 203.035 227.592 202.037C227.5 201.219 227.372 200.407 227.208 199.601C226.316 195.226 224.4 191.125 221.617 187.636C220.271 186.9 219.182 185.768 218.497 184.394C218.249 183.9 218.074 183.372 217.977 182.828C218.128 182.848 218.549 180.531 218.435 180.389C218.646 180.067 219.025 179.907 219.257 179.593C220.406 178.032 221.991 178.305 222.818 180.426C224.584 181.319 224.602 182.8 223.518 184.224C222.828 185.13 222.733 186.356 222.128 187.326C222.19 187.406 222.255 187.484 222.317 187.563C223.455 189.029 224.447 190.602 225.279 192.262C225.077 190.403 225.318 188.523 225.983 186.775C226.657 185.147 227.92 183.776 229.033 182.368C229.327 181.99 229.727 181.708 230.181 181.557C230.636 181.406 231.125 181.394 231.586 181.521C232.048 181.648 232.461 181.91 232.774 182.273C233.087 182.635 233.286 183.083 233.345 183.558C233.347 183.579 233.35 183.6 233.352 183.621C233.187 183.714 233.025 183.813 232.866 183.918C232.668 184.051 232.514 184.241 232.424 184.463C232.335 184.686 232.315 184.93 232.367 185.163C232.419 185.397 232.54 185.61 232.714 185.774C232.889 185.937 233.109 186.044 233.345 186.081L233.369 186.085C233.31 186.681 233.206 187.272 233.058 187.853C234.485 193.38 231.404 195.393 227.004 195.484C226.907 195.533 226.812 195.583 226.715 195.631C227.551 198.002 228.075 200.471 228.274 202.977C228.387 204.456 228.38 205.941 228.254 207.419L228.262 207.366C228.58 205.723 229.456 204.241 230.739 203.169C232.646 201.601 235.34 201.023 237.397 199.762C237.616 199.622 237.87 199.547 238.13 199.546C238.39 199.545 238.645 199.619 238.864 199.759C239.083 199.898 239.258 200.098 239.368 200.333C239.478 200.569 239.518 200.831 239.484 201.089L239.475 201.144C239.169 201.27 238.87 201.414 238.581 201.576C238.416 201.669 238.254 201.768 238.096 201.873C237.897 202.006 237.743 202.196 237.654 202.418C237.565 202.641 237.545 202.885 237.597 203.118C237.648 203.352 237.77 203.565 237.944 203.729C238.119 203.892 238.338 203.999 238.575 204.036L238.599 204.04C238.616 204.042 238.631 204.045 238.649 204.047C238.125 205.3 237.389 206.453 236.475 207.456C235.582 212.281 231.749 212.739 227.649 211.334H227.646C227.197 213.292 226.545 215.197 225.702 217.02H218.754C218.729 216.942 218.706 216.863 218.684 216.785C219.327 216.826 219.973 216.787 220.606 216.671C220.091 216.037 219.575 215.399 219.06 214.765C219.048 214.754 219.038 214.741 219.027 214.728C218.766 214.404 218.502 214.082 218.241 213.758L218.24 213.758C218.226 212.764 218.341 211.772 218.579 210.808Z" fill="#F2F2F2"/>
<path d="M111.18 217.041C111.18 217.101 111.191 217.161 111.214 217.217C111.237 217.272 111.271 217.323 111.314 217.366C111.356 217.409 111.407 217.442 111.463 217.465C111.518 217.488 111.578 217.5 111.639 217.5H238.987C239.109 217.5 239.225 217.452 239.311 217.365C239.398 217.279 239.446 217.162 239.446 217.041C239.446 216.919 239.398 216.802 239.311 216.716C239.225 216.629 239.109 216.581 238.987 216.581H111.639C111.578 216.581 111.518 216.593 111.463 216.616C111.407 216.639 111.356 216.673 111.314 216.715C111.271 216.758 111.237 216.809 111.214 216.864C111.191 216.92 111.18 216.98 111.18 217.041Z" fill="#CCCCCC"/>
<path d="M184.578 140.76C184.999 140.507 185.36 140.165 185.636 139.758C185.913 139.352 186.098 138.89 186.178 138.405C186.259 137.919 186.233 137.422 186.103 136.948C185.973 136.474 185.741 136.033 185.425 135.658L193.031 120.541L189.373 117.406L180.47 135.426C179.878 136.007 179.519 136.786 179.461 137.614C179.404 138.442 179.652 139.263 180.158 139.92C180.664 140.578 181.394 141.026 182.209 141.181C183.023 141.336 183.866 141.186 184.578 140.76Z" fill="#A0616A"/>
<path d="M201.797 78.3629L202.179 80.1274L201.265 104.791L197.359 114.907L193.38 125.22L192.891 126.49L187.227 134.594L187.774 130.992L183.602 129.085L183.213 128.911L184.717 124.656L188.175 114.88L189.671 110.649L189.995 98.0579L190.296 86.1544C190.348 84.1058 190.824 82.0903 191.694 80.2355C192.564 78.3806 193.809 76.7267 195.35 75.3784L198.073 73C199.692 74.5019 201.126 76.4093 201.797 78.3629Z" fill="#E6E6E6"/>
<path d="M110.8 139.978L92.7251 139.592C90.4767 139.588 88.3215 138.692 86.7319 137.1C85.1423 135.508 84.2483 133.349 84.2457 131.097L83.4746 112.174C85.694 127.602 94.2226 137.388 110.8 139.978Z" fill="#2C78B4"/>
</g>
<defs>
<clipPath id="clip0_4528_27101">
<rect width="239" height="217" fill="white" transform="translate(0.5 0.5)"/>
</clipPath>
</defs>
</svg>
