<svg width="64" height="63" viewBox="0 0 64 63" fill="none" xmlns="http://www.w3.org/2000/svg">
<rect x="0.75" width="63" height="63" rx="31.5" fill="#2C78B4"/>
<g clip-path="url(#clip0_6228_4006)">
<path d="M43.2901 43.6776C45.7737 40.9617 47.289 37.3455 47.289 33.3755C47.289 29.1829 45.5986 25.3849 42.863 22.6254C43.0418 22.4355 43.1524 22.1799 43.1524 21.8978C43.1524 21.3104 42.6768 20.8348 42.09 20.8348C41.7582 20.8348 41.462 20.9872 41.2672 21.225C38.7005 19.2685 35.4961 18.106 32.0194 18.106C23.5866 18.106 16.75 24.9425 16.75 33.3755C16.75 37.3456 18.2652 40.9617 20.7489 43.6777C20.1117 43.9296 19.6601 44.5514 19.6601 45.2784C19.6601 45.754 19.853 46.1841 20.1645 46.4963C20.4761 46.8071 20.9062 47.0001 21.3818 47.0001H42.6572C43.6077 47.0001 44.3789 46.2296 44.3789 45.2784C44.3789 44.9146 44.2658 44.5779 44.0735 44.3001C43.8812 44.0224 43.6084 43.8036 43.2901 43.6776ZM32.0195 42.4733C26.995 42.4733 22.9217 38.4 22.9217 33.3755C22.9217 28.351 26.995 24.2777 32.0195 24.2777C37.044 24.2777 41.1173 28.351 41.1173 33.3755C41.1173 38.4 37.044 42.4733 32.0195 42.4733Z" fill="white"/>
<path d="M32.0198 22.6223C26.081 22.6223 21.2666 27.4366 21.2666 33.3755C21.2666 39.3144 26.0809 44.1287 32.0198 44.1287C37.9586 44.1287 42.773 39.3144 42.773 33.3755C42.773 27.4366 37.9586 22.6223 32.0198 22.6223ZM28.0546 37.8353C27.1557 38.3545 26.006 38.0466 25.4868 37.1471C24.9675 36.2481 25.276 35.0984 26.175 34.5792C27.074 34.06 28.2236 34.3685 28.7429 35.2674C29.2621 36.1664 28.9542 37.3161 28.0546 37.8353ZM28.7429 31.4835C28.2236 32.3825 27.074 32.691 26.175 32.1717C25.2761 31.6525 24.9676 30.5028 25.4868 29.6039C26.006 28.7042 27.1557 28.3964 28.0546 28.9157C28.9542 29.4349 29.2621 30.5845 28.7429 31.4835ZM32.0198 40.9187C30.9813 40.9187 30.1401 40.0775 30.1401 39.039C30.1401 38.0006 30.9813 37.1593 32.0198 37.1593C33.0582 37.1593 33.8995 38.0005 33.8995 39.039C33.8995 40.0775 33.0582 40.9187 32.0198 40.9187ZM32.0198 29.5916C30.9813 29.5916 30.1401 28.7504 30.1401 27.7119C30.1401 26.6734 30.9813 25.8322 32.0198 25.8322C33.0582 25.8322 33.8995 26.6734 33.8995 27.7119C33.8995 28.7504 33.0582 29.5916 32.0198 29.5916ZM38.5528 37.1471C38.0335 38.0467 36.8839 38.3545 35.9849 37.8353C35.0853 37.316 34.7775 36.1663 35.2968 35.2674C35.816 34.3685 36.9657 34.06 37.8646 34.5792C38.7636 35.0984 39.072 36.2481 38.5528 37.1471ZM37.8646 32.1717C36.9657 32.691 35.816 32.3825 35.2968 31.4835C34.7775 30.5846 35.0854 29.4349 35.9849 28.9157C36.8839 28.3964 38.0335 28.7043 38.5528 29.6039C39.072 30.5029 38.7636 31.6525 37.8646 32.1717Z" fill="white"/>
<path d="M32.0197 44.5894C25.8363 44.5894 20.8057 39.5588 20.8057 33.3754C20.8057 27.192 25.8363 22.1614 32.0197 22.1614C38.2031 22.1614 43.2337 27.192 43.2337 33.3754C43.2337 39.5588 38.2031 44.5894 32.0197 44.5894ZM32.0197 23.083C26.3445 23.083 21.7274 27.7001 21.7274 33.3753C21.7274 39.0505 26.3445 43.6676 32.0197 43.6676C37.6949 43.6676 42.312 39.0505 42.312 33.3753C42.312 27.7001 37.6949 23.083 32.0197 23.083Z" fill="white"/>
<path d="M32.0197 24.2776C26.9952 24.2776 22.9219 28.3509 22.9219 33.3754C22.9219 38.3998 26.9952 42.4731 32.0197 42.4731C37.0443 42.4731 41.1175 38.3998 41.1175 33.3754C41.1175 28.3509 37.0443 24.2776 32.0197 24.2776ZM35.9849 28.9156C36.8838 28.3963 38.0335 28.7042 38.5527 29.6038C39.072 30.5027 38.7635 31.6524 37.8645 32.1716C36.9655 32.6909 35.8159 32.3824 35.2966 31.4835C34.7774 30.5845 35.0853 29.4348 35.9849 28.9156ZM28.0546 37.8352C27.1556 38.3544 26.006 38.0466 25.4867 37.147C24.9675 36.2481 25.2759 35.0983 26.1749 34.5792C27.0739 34.0599 28.2235 34.3684 28.7428 35.2673C29.262 36.1663 28.9542 37.316 28.0546 37.8352ZM28.7428 31.4835C28.2235 32.3824 27.0739 32.6909 26.1749 32.1716C25.276 31.6524 24.9675 30.5027 25.4867 29.6038C26.006 28.7042 27.1556 28.3963 28.0546 28.9156C28.9542 29.4348 29.262 30.5845 28.7428 31.4835ZM32.0197 40.9186C30.9813 40.9186 30.14 40.0774 30.14 39.0389C30.14 38.0005 30.9813 37.1592 32.0197 37.1592C33.0581 37.1592 33.8994 38.0004 33.8994 39.0389C33.8994 40.0774 33.0581 40.9186 32.0197 40.9186ZM32.0197 29.5915C30.9813 29.5915 30.14 28.7503 30.14 27.7118C30.14 26.6734 30.9813 25.8321 32.0197 25.8321C33.0581 25.8321 33.8994 26.6733 33.8994 27.7118C33.8994 28.7503 33.0581 29.5915 32.0197 29.5915ZM38.5527 37.147C38.0335 38.0466 36.8838 38.3544 35.9849 37.8352C35.0853 37.3159 34.7774 36.1663 35.2967 35.2673C35.8159 34.3684 36.9656 34.0599 37.8645 34.5792C38.7635 35.0983 39.072 36.248 38.5527 37.147Z" fill="#5BB7FF"/>
<path d="M32.0197 35.0113C32.9232 35.0113 33.6556 34.2789 33.6556 33.3754C33.6556 32.4719 32.9232 31.7395 32.0197 31.7395C31.1162 31.7395 30.3838 32.4719 30.3838 33.3754C30.3838 34.2789 31.1162 35.0113 32.0197 35.0113Z" fill="white"/>
<path d="M32.0197 34.1861C32.4675 34.1861 32.8304 33.8232 32.8304 33.3754C32.8304 32.9277 32.4675 32.5647 32.0197 32.5647C31.572 32.5647 31.209 32.9277 31.209 33.3754C31.209 33.8232 31.572 34.1861 32.0197 34.1861Z" fill="white"/>
<path d="M43.8095 20.4005C43.6916 20.4005 43.5736 20.3555 43.4836 20.2656C43.3036 20.0856 43.3036 19.7938 43.4836 19.6138L46.9622 16.1352C47.1422 15.9552 47.434 15.9552 47.614 16.1352C47.7939 16.3152 47.7939 16.607 47.614 16.787L44.1354 20.2656C44.0454 20.3555 43.9274 20.4005 43.8095 20.4005Z" fill="#ECBE6B"/>
<path d="M41.7625 19.3341C41.7048 19.3341 41.646 19.3232 41.5891 19.3001C41.3533 19.2043 41.2399 18.9354 41.3358 18.6996L42.3166 16.2874C42.4125 16.0516 42.6813 15.9382 42.9171 16.0341C43.1529 16.1299 43.2663 16.3988 43.1704 16.6346L42.1896 19.0468C42.1169 19.2257 41.9445 19.3341 41.7625 19.3341Z" fill="#ECBE6B"/>
<path d="M45.1142 22.1131C44.9221 22.1131 44.7427 21.992 44.6777 21.7998C44.5962 21.5587 44.7255 21.2971 44.9666 21.2156L47.1413 20.48C47.3826 20.3984 47.644 20.5278 47.7256 20.7689C47.8071 21.01 47.6778 21.2715 47.4367 21.3531L45.262 22.0887C45.213 22.1053 45.1632 22.1131 45.1142 22.1131Z" fill="#ECBE6B"/>
<path d="M24.1906 47.0001H21.3818C20.9062 47.0001 20.4761 46.8071 20.1646 46.4962C19.8531 46.184 19.6601 45.7539 19.6601 45.2783C19.6601 44.5514 20.1117 43.9296 20.749 43.6776C18.2652 40.9617 16.75 37.3456 16.75 33.3755C16.75 24.9425 23.5866 18.106 32.0195 18.106C23.5018 18.106 18.1417 27.4551 18.1417 33.3755C18.1417 39.2958 23.6185 44.1292 23.6185 44.1292C22.3103 44.6196 22.2286 47.0001 24.1906 47.0001Z" fill="white"/>
</g>
<defs>
<clipPath id="clip0_6228_4006">
<rect width="31" height="31" fill="white" transform="translate(16.75 16)"/>
</clipPath>
</defs>
</svg>
