<svg width="28" height="28" viewBox="0 0 28 28" fill="none" xmlns="http://www.w3.org/2000/svg">
<mask id="mask0_6230_10232" style="mask-type:luminance" maskUnits="userSpaceOnUse" x="2" y="2" width="24" height="24">
<path fill-rule="evenodd" clip-rule="evenodd" d="M2.33301 2.3335H25.0559V25.0567H2.33301V2.3335Z" fill="white"/>
</mask>
<g mask="url(#mask0_6230_10232)">
<path fill-rule="evenodd" clip-rule="evenodd" d="M13.6952 4.0835C8.39501 4.0835 4.08301 8.39433 4.08301 13.6945C4.08301 18.9947 8.39501 23.3067 13.6952 23.3067C18.9942 23.3067 23.3062 18.9947 23.3062 13.6945C23.3062 8.39433 18.9942 4.0835 13.6952 4.0835M13.6952 25.0567C7.43017 25.0567 2.33301 19.9595 2.33301 13.6945C2.33301 7.4295 7.43017 2.3335 13.6952 2.3335C19.9602 2.3335 25.0562 7.4295 25.0562 13.6945C25.0562 19.9595 19.9602 25.0567 13.6952 25.0567" fill="#212121"/>
</g>
<mask id="mask1_6230_10232" style="mask-type:luminance" maskUnits="userSpaceOnUse" x="20" y="20" width="6" height="7">
<path fill-rule="evenodd" clip-rule="evenodd" d="M20.1133 20.6582H25.9747V26.5087H20.1133V20.6582Z" fill="white"/>
</mask>
<g mask="url(#mask1_6230_10232)">
<path fill-rule="evenodd" clip-rule="evenodd" d="M25.0999 26.5087C24.8771 26.5087 24.6531 26.4236 24.4816 26.2532L20.3702 22.1536C20.0284 21.8117 20.0272 21.2576 20.3691 20.9157C20.7097 20.5716 21.2639 20.5739 21.6069 20.9134L25.7182 25.0142C26.0601 25.3561 26.0612 25.9091 25.7194 26.2509C25.5491 26.4236 25.3239 26.5087 25.0999 26.5087" fill="#212121"/>
</g>
</svg>
