<svg width="18" height="16" viewBox="0 0 18 16" fill="none" xmlns="http://www.w3.org/2000/svg">
<path opacity="0.4" d="M9.81391 0.594719L11.6693 4.32328C11.806 4.59342 12.0669 4.78101 12.3678 4.8227L16.5354 5.42968C16.7787 5.46386 16.9996 5.59226 17.1488 5.78819C17.2964 5.98162 17.3597 6.22675 17.3239 6.46771C17.2947 6.66781 17.2005 6.8529 17.0563 6.99464L14.0365 9.92196C13.8156 10.1262 13.7156 10.4289 13.7689 10.7249L14.5124 14.8403C14.5916 15.3372 14.2624 15.8058 13.7689 15.9C13.5655 15.9325 13.3572 15.8983 13.1738 15.805L9.45633 13.8681C9.18044 13.7289 8.85454 13.7289 8.57865 13.8681L4.86118 15.805C4.40442 16.0476 3.83846 15.8825 3.58424 15.4323C3.49005 15.253 3.45671 15.0487 3.48755 14.8495L4.23105 10.7332C4.28439 10.4381 4.18354 10.1337 3.96349 9.92947L0.943673 7.00381C0.584429 6.65697 0.573593 6.08584 0.919501 5.72649C0.927003 5.71899 0.935338 5.71065 0.943673 5.70232C1.08704 5.55641 1.27541 5.46386 1.47879 5.43968L5.64635 4.83187C5.94641 4.78935 6.2073 4.60342 6.34483 4.33162L8.13355 0.594719C8.29275 0.274556 8.62282 0.0752883 8.98123 0.0836259H9.09292C9.40382 0.121145 9.67471 0.313743 9.81391 0.594719Z" fill="url(#paint0_linear_6230_11018)"/>
<path d="M8.99367 13.7643C8.83225 13.7693 8.67499 13.8127 8.53355 13.8902L4.83426 15.8227C4.38162 16.0387 3.83996 15.871 3.58619 15.4382C3.49217 15.2614 3.45805 15.0587 3.48967 14.8602L4.22853 10.7527C4.27845 10.4541 4.17861 10.1505 3.96144 9.94034L0.940273 7.01544C0.58166 6.66432 0.575004 6.08801 0.926128 5.72855C0.931121 5.72355 0.935281 5.71938 0.940273 5.71521C1.08339 5.57342 1.2681 5.48001 1.46696 5.45082L5.63802 4.83699C5.94005 4.79862 6.20215 4.61013 6.33527 4.33657L8.14831 0.552639C8.32054 0.247389 8.65087 0.0655732 9.00033 0.0847556C8.99367 0.332459 8.99367 13.5958 8.99367 13.7643Z" fill="url(#paint1_linear_6230_11018)"/>
<defs>
<linearGradient id="paint0_linear_6230_11018" x1="17.3337" y1="15.9167" x2="-2.33341" y2="9.9143" gradientUnits="userSpaceOnUse">
<stop stop-color="#FEBB1B"/>
<stop offset="1" stop-color="#FFC740"/>
</linearGradient>
<linearGradient id="paint1_linear_6230_11018" x1="9.00033" y1="15.9167" x2="-1.50456" y2="14.3137" gradientUnits="userSpaceOnUse">
<stop stop-color="#FEBB1B"/>
<stop offset="1" stop-color="#FFC740"/>
</linearGradient>
</defs>
</svg>
