<svg width="34" height="32" viewBox="0 0 34 32" fill="none" xmlns="http://www.w3.org/2000/svg">
<path d="M26.8645 19.867C26.4328 20.2853 26.2345 20.8903 26.3328 21.4837L27.8145 29.6837C27.9395 30.3787 27.6461 31.082 27.0645 31.4837C26.4945 31.9003 25.7361 31.9503 25.1145 31.617L17.7328 27.767C17.4761 27.6303 17.1911 27.557 16.8995 27.5487H16.4478C16.2911 27.572 16.1378 27.622 15.9978 27.6987L8.61447 31.567C8.24947 31.7503 7.83613 31.8153 7.43113 31.7503C6.44447 31.5637 5.78613 30.6237 5.9478 29.632L7.43113 21.432C7.52947 20.8337 7.33113 20.2253 6.89947 19.8003L0.881134 13.967C0.377801 13.4787 0.202801 12.7453 0.432801 12.0837C0.656134 11.4237 1.22613 10.942 1.91447 10.8337L10.1978 9.63199C10.8278 9.56699 11.3811 9.18366 11.6645 8.61699L15.3145 1.13366C15.4011 0.966992 15.5128 0.813659 15.6478 0.683659L15.7978 0.566992C15.8761 0.480325 15.9661 0.408659 16.0661 0.350326L16.2478 0.283659L16.5311 0.166992H17.2328C17.8595 0.231992 18.4111 0.606992 18.6995 1.16699L22.3978 8.61699C22.6645 9.16199 23.1828 9.54033 23.7811 9.63199L32.0645 10.8337C32.7645 10.9337 33.3495 11.417 33.5811 12.0837C33.7995 12.752 33.6111 13.4853 33.0978 13.967L26.8645 19.867Z" fill="#FEBB1B"/>
</svg>
