<svg width="18" height="18" viewBox="0 0 18 18" fill="none" xmlns="http://www.w3.org/2000/svg">
<g clip-path="url(#clip0_4507_43172)">
<g clip-path="url(#clip1_4507_43172)">
<path d="M13.0327 17.0367C12.4559 17.0769 11.889 16.8707 11.4727 16.4694C10.7946 15.7449 10.8752 14.5277 10.9606 13.2392C10.9881 12.8225 11.0164 12.4004 11.0164 11.9951C11.0164 8.29844 9.75144 8.29844 9.33607 8.29844C9.15047 8.29844 9 8.14797 9 7.96237C9 7.77677 9.15047 7.6263 9.33607 7.6263C11.6885 7.6263 11.6885 10.9143 11.6885 11.9951C11.6885 12.4152 11.6603 12.8514 11.6314 13.2836C11.5561 14.4222 11.4849 15.4982 11.9634 16.0097C12.2541 16.2731 12.6423 16.4019 13.0328 16.3646C13.3071 16.3847 13.5756 16.2785 13.762 16.0762C14.3528 15.39 14.08 13.5638 13.8803 12.2304C13.7873 11.7083 13.7287 11.1806 13.7049 10.6509V8.63451C13.7049 8.52875 13.7547 8.42913 13.8393 8.36567C14.496 7.87771 14.4443 7.49192 14.3979 7.18342C14.3859 7.10777 14.379 7.03144 14.3771 6.95491C13.5827 5.54027 12.2006 4.55196 10.6051 4.25767C10.4241 4.21592 10.3113 4.03536 10.353 3.8544C10.3948 3.67343 10.5754 3.5606 10.7563 3.60235C13.7177 4.28388 15.0492 6.46963 15.0492 6.95491C15.0512 6.99999 15.0562 7.04489 15.0639 7.08934C15.2003 7.74545 14.9295 8.41926 14.377 8.79856V10.6516C14.4025 11.1475 14.4586 11.6413 14.545 12.1303C14.7756 13.6762 15.0633 15.595 14.2708 16.5139C13.9587 16.8667 13.5033 17.059 13.0327 17.0367Z" fill="#2E2C2A"/>
<path d="M14.0411 8.97122C13.9519 8.97138 13.8663 8.93609 13.8032 8.87308C11.9266 6.9965 12.1545 6.01387 13.1311 5.03729C13.2646 4.90833 13.4773 4.91205 13.6063 5.04554C13.7321 5.17578 13.7321 5.38224 13.6063 5.51249C13.037 6.08176 12.5 6.61881 14.2784 8.39791C14.4098 8.52897 14.4101 8.74176 14.279 8.87317C14.2158 8.93653 14.1299 8.97207 14.0405 8.97191L14.0411 8.97122Z" fill="#2E2C2A"/>
<path d="M8.01921 2.24998H2.48075C1.52488 2.24998 0.75 3.01313 0.75 3.95452V16.9091C0.75 17.0973 0.90499 17.25 1.09616 17.25H9.40384C9.59501 17.25 9.75 17.0973 9.75 16.9091V3.95452C9.74997 3.01313 8.97508 2.24998 8.01921 2.24998Z" fill="#2E2C2A"/>
<path d="M2.58334 3.74998H7.91666C8.10075 3.74998 8.25 3.8939 8.25 4.07142V7.92854C8.25 8.10606 8.10075 8.24998 7.91666 8.24998H2.58334C2.39925 8.24998 2.25 8.10606 2.25 7.92854V4.07142C2.25 3.89387 2.39925 3.74998 2.58334 3.74998Z" fill="#CFD8DC"/>
<path d="M10.9791 16.2321H1.33622C0.67052 16.2321 0.130859 16.7718 0.130859 17.4375V18.2411C0.130859 18.463 0.310759 18.6429 0.532658 18.6429H11.7827C12.0046 18.6429 12.1845 18.463 12.1845 18.2411V17.4375C12.1844 16.7718 11.6448 16.2321 10.9791 16.2321Z" fill="#2E2C2A"/>
</g>
</g>
<defs>
<clipPath id="clip0_4507_43172">
<rect width="18" height="18" fill="white"/>
</clipPath>
<clipPath id="clip1_4507_43172">
<rect width="19.2857" height="19.2857" fill="white" transform="translate(-0.642578 -0.642857)"/>
</clipPath>
</defs>
</svg>
