<svg width="65" height="77" viewBox="0 0 65 77" fill="none" xmlns="http://www.w3.org/2000/svg">
<g filter="url(#filter0_d_4278_25351)">
<path fill-rule="evenodd" clip-rule="evenodd" d="M32 6C46.9117 6 59 18.2226 59 33.3C59 44.8605 51.8933 54.7427 41.8563 58.7238L33.5375 70.2208C33.3641 70.4615 33.1339 70.658 32.8662 70.7936C32.5985 70.9292 32.3013 71 31.9997 71C31.6981 71 31.4009 70.9292 31.1332 70.7936C30.8656 70.658 30.6353 70.4615 30.4619 70.2208L22.1429 58.7235C12.1063 54.7421 5 44.8602 5 33.3C5 18.2226 17.0883 6 32 6Z" fill="#2C78B4"/>
</g>
<g filter="url(#filter1_d_4278_25351)">
<rect x="12.3955" y="12.3754" width="40.1455" height="40.3772" rx="20" fill="#F6F9FF"/>
<g clip-path="url(#clip0_4278_25351)">
<g clip-path="url(#clip1_4278_25351)">
<path d="M40.377 41.7156C39.6079 41.7692 38.8521 41.4943 38.297 40.9593C37.3928 39.9932 37.5003 38.3702 37.6141 36.6523C37.6509 36.0967 37.6885 35.5339 37.6885 34.9935C37.6885 30.0646 36.0019 30.0646 35.4481 30.0646C35.2006 30.0646 35 29.864 35 29.6165C35 29.369 35.2006 29.1684 35.4481 29.1684C38.5847 29.1684 38.5847 33.5525 38.5847 34.9935C38.5847 35.5536 38.547 36.1352 38.5085 36.7114C38.4082 38.2296 38.3131 39.6643 38.9512 40.3463C39.3388 40.6975 39.8564 40.8693 40.377 40.8195C40.7428 40.8463 41.1008 40.7047 41.3494 40.435C42.1371 39.52 41.7733 37.0851 41.5071 35.3072C41.3831 34.6111 41.3049 33.9076 41.2732 33.2012V30.5127C41.2732 30.3717 41.3396 30.2389 41.4525 30.1543C42.328 29.5036 42.259 28.9893 42.1972 28.5779C42.1813 28.4771 42.172 28.3753 42.1694 28.2732C41.1103 26.387 39.2674 25.0693 37.1401 24.6769C36.8988 24.6213 36.7484 24.3805 36.8041 24.1392C36.8598 23.8979 37.1005 23.7475 37.3418 23.8032C41.2903 24.7119 43.0656 27.6262 43.0656 28.2732C43.0683 28.3333 43.0749 28.3932 43.0853 28.4525C43.2671 29.3273 42.906 30.2257 42.1694 30.7314V33.2022C42.2033 33.8633 42.2782 34.5218 42.3934 35.1737C42.7008 37.2349 43.0843 39.7934 42.0278 41.0185C41.6115 41.4889 41.0045 41.7453 40.377 41.7156Z" fill="#2E2C2A"/>
<path d="M41.7212 30.9617C41.6023 30.9619 41.4881 30.9148 41.4039 30.8308C38.9018 28.3287 39.2056 27.0185 40.5078 25.7164C40.6858 25.5445 40.9695 25.5494 41.1414 25.7274C41.3091 25.9011 41.3091 26.1764 41.1414 26.35C40.3824 27.109 39.6663 27.8251 42.0375 30.1972C42.2128 30.372 42.2131 30.6557 42.0383 30.8309C41.9541 30.9154 41.8396 30.9628 41.7203 30.9626L41.7212 30.9617Z" fill="#2E2C2A"/>
<path d="M33.6923 22H26.3077C25.0332 22 24 23.0175 24 24.2727V41.5454C24 41.7965 24.2067 42 24.4616 42H35.5384C35.7933 42 36 41.7965 36 41.5454V24.2727C36 23.0175 34.9668 22 33.6923 22Z" fill="#2E2C2A"/>
<path d="M26.4445 24H33.5555C33.801 24 34 24.1919 34 24.4286V29.5714C34 29.8081 33.801 30 33.5555 30H26.4445C26.199 30 26 29.8081 26 29.5714V24.4286C26 24.1919 26.199 24 26.4445 24Z" fill="#CFD8DC"/>
<path d="M37.6391 40.6429H24.7819C23.8944 40.6429 23.1748 41.3624 23.1748 42.25V43.3214C23.1748 43.6173 23.4147 43.8572 23.7105 43.8572H38.7106C39.0064 43.8572 39.2463 43.6173 39.2463 43.3214V42.25C39.2462 41.3624 38.5267 40.6429 37.6391 40.6429Z" fill="#2E2C2A"/>
</g>
</g>
</g>
<defs>
<filter id="filter0_d_4278_25351" x="0" y="2" width="64" height="75" filterUnits="userSpaceOnUse" color-interpolation-filters="sRGB">
<feFlood flood-opacity="0" result="BackgroundImageFix"/>
<feColorMatrix in="SourceAlpha" type="matrix" values="0 0 0 0 0 0 0 0 0 0 0 0 0 0 0 0 0 0 127 0" result="hardAlpha"/>
<feOffset dy="1"/>
<feGaussianBlur stdDeviation="2.5"/>
<feComposite in2="hardAlpha" operator="out"/>
<feColorMatrix type="matrix" values="0 0 0 0 0 0 0 0 0 0 0 0 0 0 0 0 0 0 0.1 0"/>
<feBlend mode="normal" in2="BackgroundImageFix" result="effect1_dropShadow_4278_25351"/>
<feBlend mode="normal" in="SourceGraphic" in2="effect1_dropShadow_4278_25351" result="shape"/>
</filter>
<filter id="filter1_d_4278_25351" x="0.395508" y="0.375397" width="64.1455" height="64.3772" filterUnits="userSpaceOnUse" color-interpolation-filters="sRGB">
<feFlood flood-opacity="0" result="BackgroundImageFix"/>
<feColorMatrix in="SourceAlpha" type="matrix" values="0 0 0 0 0 0 0 0 0 0 0 0 0 0 0 0 0 0 127 0" result="hardAlpha"/>
<feOffset/>
<feGaussianBlur stdDeviation="6"/>
<feComposite in2="hardAlpha" operator="out"/>
<feColorMatrix type="matrix" values="0 0 0 0 0 0 0 0 0 0 0 0 0 0 0 0 0 0 0.1 0"/>
<feBlend mode="normal" in2="BackgroundImageFix" result="effect1_dropShadow_4278_25351"/>
<feBlend mode="normal" in="SourceGraphic" in2="effect1_dropShadow_4278_25351" result="shape"/>
</filter>
<clipPath id="clip0_4278_25351">
<rect width="24" height="24" fill="white" transform="translate(23 19)"/>
</clipPath>
<clipPath id="clip1_4278_25351">
<rect width="25.7143" height="25.7143" fill="white" transform="translate(22.1426 18.1429)"/>
</clipPath>
</defs>
</svg>
