<svg width="24" height="25" viewBox="0 0 24 25" fill="none" xmlns="http://www.w3.org/2000/svg">
<path fill-rule="evenodd" clip-rule="evenodd" d="M7.67 2.91479H16.34C19.73 2.91479 22 5.2948 22 8.83479V17.0058C22 20.5348 19.73 22.9148 16.34 22.9148H7.67C4.28 22.9148 2 20.5348 2 17.0058V8.83479C2 5.2948 4.28 2.91479 7.67 2.91479ZM11.43 15.9048L16.18 11.1548C16.52 10.8148 16.52 10.2648 16.18 9.91479C15.84 9.57479 15.28 9.57479 14.94 9.91479L10.81 14.0448L9.06 12.2948C8.72 11.9548 8.16 11.9548 7.82 12.2948C7.48 12.6348 7.48 13.1848 7.82 13.5348L10.2 15.9048C10.37 16.0748 10.59 16.1548 10.81 16.1548C11.04 16.1548 11.26 16.0748 11.43 15.9048Z" fill="white"/>
</svg>
