<svg width="21" height="20" viewBox="0 0 21 20" fill="none" xmlns="http://www.w3.org/2000/svg">
<path fill-rule="evenodd" clip-rule="evenodd" d="M10.5 1.5C5.813 1.5 2 5.313 2 10C2 14.687 5.813 18.5 10.5 18.5C15.187 18.5 19 14.687 19 10C19 5.313 15.187 1.5 10.5 1.5ZM10.5 20C4.986 20 0.5 15.514 0.5 10C0.5 4.486 4.986 0 10.5 0C16.014 0 20.5 4.486 20.5 10C20.5 15.514 16.014 20 10.5 20Z" fill="#2C78B4"/>
<path fill-rule="evenodd" clip-rule="evenodd" d="M13.9311 13.6925C13.8001 13.6925 13.6681 13.6585 13.5471 13.5875L9.77713 11.3385C9.55113 11.2025 9.41113 10.9575 9.41113 10.6935V5.84546C9.41113 5.43146 9.74713 5.09546 10.1611 5.09546C10.5761 5.09546 10.9111 5.43146 10.9111 5.84546V10.2675L14.3161 12.2975C14.6711 12.5105 14.7881 12.9705 14.5761 13.3265C14.4351 13.5615 14.1861 13.6925 13.9311 13.6925Z" fill="#2C78B4"/>
</svg>
