<svg width="24" height="25" viewBox="0 0 24 25" fill="none" xmlns="http://www.w3.org/2000/svg">
<path fill-rule="evenodd" clip-rule="evenodd" d="M11.9728 20.8681C8.7338 20.8681 5.9668 20.3781 5.9668 18.4161C5.9668 16.4541 8.7158 14.7461 11.9728 14.7461C15.2118 14.7461 17.9788 16.4381 17.9788 18.3991C17.9788 20.3601 15.2298 20.8681 11.9728 20.8681Z" stroke="#2E2C2A" stroke-width="1.5" stroke-linecap="round" stroke-linejoin="round"/>
<path fill-rule="evenodd" clip-rule="evenodd" d="M11.9731 11.9485C14.0991 11.9485 15.8231 10.2255 15.8231 8.09951C15.8231 5.97351 14.0991 4.24951 11.9731 4.24951C9.84706 4.24951 8.12306 5.97351 8.12306 8.09951C8.11706 10.2175 9.82706 11.9415 11.9461 11.9485H11.9731Z" stroke="#2E2C2A" stroke-width="1.5" stroke-linecap="round" stroke-linejoin="round"/>
<path d="M18.3623 10.8915C19.5993 10.5605 20.5113 9.43254 20.5113 8.08954C20.5113 6.68854 19.5183 5.51854 18.1963 5.24854" stroke="#2E2C2A" stroke-width="1.5" stroke-linecap="round" stroke-linejoin="round"/>
<path d="M18.9434 14.0444C20.6974 14.0444 22.1954 15.2334 22.1954 16.2954C22.1954 16.9204 21.6784 17.6014 20.8944 17.7854" stroke="#2E2C2A" stroke-width="1.5" stroke-linecap="round" stroke-linejoin="round"/>
<path d="M5.58359 10.8915C4.34559 10.5605 3.43359 9.43254 3.43359 8.08954C3.43359 6.68854 4.42759 5.51854 5.74859 5.24854" stroke="#2E2C2A" stroke-width="1.5" stroke-linecap="round" stroke-linejoin="round"/>
<path d="M5.002 14.0444C3.248 14.0444 1.75 15.2334 1.75 16.2954C1.75 16.9204 2.267 17.6014 3.052 17.7854" stroke="#2E2C2A" stroke-width="1.5" stroke-linecap="round" stroke-linejoin="round"/>
</svg>
