<svg width="296" height="460" viewBox="0 0 296 460" fill="none" xmlns="http://www.w3.org/2000/svg">
<g filter="url(#filter0_f_4277_20327)">
<ellipse cx="148" cy="230" rx="138" ry="220" fill="#FAFAFA"/>
</g>
<path d="M149 362.5C173.792 362.5 196.18 347.652 212.347 323.765C228.515 299.875 238.5 266.899 238.5 230.5C238.5 194.101 228.515 161.125 212.347 137.235C196.18 113.348 173.792 98.5 149 98.5C124.208 98.5 101.82 113.348 85.6534 137.235C69.4845 161.125 59.5 194.101 59.5 230.5C59.5 266.899 69.4845 299.875 85.6534 323.765C101.82 347.652 124.208 362.5 149 362.5Z" fill="#FAFAFA" stroke="#2C78B4"/>
<path d="M209.5 231C209.5 226.306 209.215 221.704 208.669 217.226L208.172 217.287C207.011 207.773 204.661 198.824 201.344 190.75L201.806 190.56C198.097 181.531 193.181 173.58 187.358 167.138L186.988 167.474C180.48 160.274 172.841 154.983 164.504 152.207L164.661 151.732C160.279 150.273 155.705 149.5 151 149.5C146.295 149.5 141.721 150.273 137.339 151.732L137.496 152.207C129.159 154.983 121.52 160.274 115.012 167.474L114.642 167.138C108.819 173.58 103.903 181.531 100.194 190.56L100.656 190.75C97.3393 198.824 94.9895 207.773 93.8278 217.287L93.3315 217.226C92.7847 221.704 92.5 226.306 92.5 231C92.5 235.694 92.7847 240.296 93.3315 244.774L93.8278 244.713C94.9895 254.227 97.3393 263.176 100.656 271.25L100.194 271.44C103.903 280.469 108.819 288.42 114.642 294.862L115.012 294.526C121.52 301.726 129.159 307.017 137.496 309.793L137.339 310.268C141.721 311.727 146.295 312.5 151 312.5C155.705 312.5 160.279 311.727 164.661 310.268L164.504 309.793C172.841 307.017 180.48 301.726 186.988 294.526L187.358 294.862C193.181 288.42 198.097 280.469 201.806 271.44L201.344 271.25C204.661 263.176 207.011 254.227 208.172 244.713L208.669 244.774C209.215 240.296 209.5 235.694 209.5 231Z" fill="#FAFAFA" stroke="#2C78B4" stroke-dasharray="30 30"/>
<path d="M188.939 206.078C186.839 197.574 180.687 182.516 163.076 177.182C157.704 175.547 144.797 175.622 138.432 177.321C120.393 182.139 114.593 198.039 112.732 207.072C112.074 210.353 111.858 213.708 112.09 217.047L114.455 249.088C114.505 249.754 115.814 265.554 126.544 275.178C127.371 275.955 128.144 276.787 128.859 277.669C131.053 280.36 133.519 282.818 136.218 285.003C139.752 287.743 144.099 289.226 148.571 289.217H153.452C157.924 289.228 162.272 287.745 165.805 285.003C168.508 282.818 170.978 280.36 173.177 277.669C173.885 276.789 174.654 275.961 175.479 275.19C186.21 265.554 187.518 249.754 187.568 249.088L189.908 217.487C190.178 213.657 189.852 209.808 188.939 206.078ZM184.889 217.123L182.549 248.71C182.536 248.849 181.329 263.177 172.12 271.442C171.109 272.378 170.167 273.387 169.302 274.461C167.327 276.87 165.115 279.074 162.698 281.04C160.053 283.09 156.798 284.196 153.452 284.185H148.571C145.225 284.196 141.97 283.089 139.325 281.04C136.909 279.074 134.696 276.87 132.721 274.461C131.86 273.384 130.918 272.375 129.903 271.442C120.707 263.177 119.487 248.849 119.474 248.71L117.109 216.695C116.905 213.815 117.091 210.921 117.663 208.09C119.286 200.178 124.305 186.302 139.728 182.189C143.584 181.338 147.528 180.945 151.477 181.019C154.884 180.926 158.289 181.251 161.616 181.988C176.85 186.617 182.222 199.826 184.058 207.285C184.842 210.502 185.122 213.82 184.889 217.123Z" fill="#2C78B4"/>
<path opacity="0.5" d="M184.939 215.99C184.851 213.903 184.556 211.83 184.059 209.801C182.222 202.342 176.851 189.133 161.617 184.504C158.289 183.767 154.884 183.442 151.478 183.535C147.529 183.461 143.585 183.854 139.728 184.705C124.305 188.818 119.286 202.694 117.663 210.606C117.327 212.273 117.125 213.964 117.06 215.663C116.954 213.124 117.156 210.581 117.663 208.09C119.286 200.178 124.305 186.302 139.728 182.189C143.585 181.338 147.529 180.945 151.478 181.019C154.884 180.926 158.289 181.251 161.617 181.988C176.851 186.617 182.222 199.826 184.059 207.285C184.758 210.132 185.055 213.062 184.939 215.99Z" fill="#2C78B4"/>
<path opacity="0.5" d="M184.889 217.123L182.549 248.71C182.537 248.849 181.329 263.177 172.121 271.442C171.109 272.378 170.167 273.387 169.303 274.461C167.328 276.87 165.115 279.074 162.699 281.04C160.053 283.089 156.799 284.196 153.452 284.185H148.572C145.225 284.196 141.971 283.089 139.325 281.04C136.909 279.074 134.696 276.87 132.721 274.461C131.86 273.384 130.918 272.375 129.903 271.442C120.708 263.177 119.487 248.849 119.475 248.71L117.11 216.695C117.03 215.514 117.013 214.33 117.059 213.147C117.072 213.487 117.085 213.839 117.11 214.179L119.475 246.194C119.487 246.333 120.708 260.661 129.903 268.926C130.918 269.859 131.86 270.868 132.721 271.945C134.696 274.354 136.909 276.558 139.325 278.524C141.971 280.574 145.225 281.68 148.572 281.669H153.452C156.799 281.68 160.053 280.574 162.699 278.524C165.115 276.558 167.328 274.354 169.303 271.945C170.167 270.871 171.109 269.862 172.121 268.926C181.329 260.661 182.537 246.333 182.549 246.194L184.889 214.607C184.914 214.242 184.927 213.877 184.939 213.512C184.985 214.716 184.969 215.921 184.889 217.123Z" fill="#2C78B4"/>
<defs>
<filter id="filter0_f_4277_20327" x="0" y="0" width="296" height="460" filterUnits="userSpaceOnUse" color-interpolation-filters="sRGB">
<feFlood flood-opacity="0" result="BackgroundImageFix"/>
<feBlend mode="normal" in="SourceGraphic" in2="BackgroundImageFix" result="shape"/>
<feGaussianBlur stdDeviation="5" result="effect1_foregroundBlur_4277_20327"/>
</filter>
</defs>
</svg>
