<svg width="64" height="64" viewBox="0 0 64 64" fill="none" xmlns="http://www.w3.org/2000/svg">
<path fill-rule="evenodd" clip-rule="evenodd" d="M0.333984 31.9978C0.333984 14.521 14.5207 0.331177 32.0007 0.331177C49.5123 0.331177 63.6673 14.521 63.6673 31.9978C63.6673 49.481 49.5123 63.6645 32.0007 63.6645C14.5207 63.6645 0.333984 49.481 0.333984 31.9978ZM29.214 19.9962C29.214 18.4793 30.4807 17.2095 32.0007 17.2095C33.5207 17.2095 34.7557 18.4793 34.7557 19.9962V33.9928C34.7557 35.516 33.5207 36.7478 32.0007 36.7478C30.4807 36.7478 29.214 35.516 29.214 33.9928V19.9962ZM32.0323 46.821C30.4807 46.821 29.2457 45.5543 29.2457 44.0343C29.2457 42.5143 30.4807 41.2793 32.0007 41.2793C33.5523 41.2793 34.7873 42.5143 34.7873 44.0343C34.7873 45.5543 33.5523 46.821 32.0323 46.821Z" fill="#FF981F"/>
</svg>
