<svg width="20" height="20" viewBox="0 0 20 20" fill="none" xmlns="http://www.w3.org/2000/svg">
<path fill-rule="evenodd" clip-rule="evenodd" d="M8.92062 2.93256C8.36201 2.93256 7.88677 3.32075 7.75337 3.84395H12.2389C12.1055 3.32075 11.6303 2.93256 11.0717 2.93256H8.92062ZM13.5062 3.84395H15.1571C16.9079 3.84395 18.3337 5.28698 18.3337 7.05913C18.3337 7.05913 18.2836 7.80933 18.267 8.85405C18.2653 8.93675 18.2253 9.01777 18.1594 9.06671C17.7584 9.36291 17.3915 9.60764 17.3582 9.62451C15.9741 10.5528 14.3658 11.2059 12.6525 11.5308C12.5408 11.5528 12.4307 11.4945 12.374 11.395C11.8938 10.5629 10.9967 10.0211 9.99616 10.0211C9.00233 10.0211 8.09687 10.557 7.60246 11.3899C7.54493 11.4878 7.43654 11.5443 7.32565 11.5232C5.62647 11.1975 4.01817 10.5452 2.64248 9.63295L1.84208 9.07599C1.77538 9.0338 1.73369 8.95785 1.73369 8.87346C1.70868 8.44309 1.66699 7.05913 1.66699 7.05913C1.66699 5.28698 3.09271 3.84395 4.84358 3.84395H6.48607C6.64448 2.62033 7.66999 1.66675 8.92062 1.66675H11.0717C12.3223 1.66675 13.3478 2.62033 13.5062 3.84395ZM18.0502 10.6794L18.0168 10.6963C16.3327 11.8271 14.3066 12.5782 12.1806 12.8904C11.8804 12.9326 11.5803 12.7385 11.4969 12.4347C11.3135 11.7427 10.7215 11.287 10.0128 11.287H10.0045H9.98782C9.27913 11.287 8.68717 11.7427 8.50374 12.4347C8.42037 12.7385 8.12022 12.9326 7.82007 12.8904C5.69401 12.5782 3.66799 11.8271 1.98382 10.6963C1.97548 10.6879 1.8921 10.6373 1.8254 10.6794C1.75037 10.7216 1.75037 10.8229 1.75037 10.8229L1.80873 15.1267C1.80873 16.8988 3.22611 18.3334 4.97698 18.3334H15.0153C16.7662 18.3334 18.1836 16.8988 18.1836 15.1267L18.2503 10.8229C18.2503 10.8229 18.2503 10.7216 18.1752 10.6794C18.1336 10.6541 18.0835 10.6626 18.0502 10.6794ZM10.6215 14.2153C10.6215 14.5697 10.3463 14.8482 9.99616 14.8482C9.65432 14.8482 9.37084 14.5697 9.37084 14.2153V13.1267C9.37084 12.7807 9.65432 12.4938 9.99616 12.4938C10.3463 12.4938 10.6215 12.7807 10.6215 13.1267V14.2153Z" fill="#757575"/>
</svg>
